<svg width="24" height="24" viewBox="0 0 24 24" fill="none" xmlns="http://www.w3.org/2000/svg">
<path d="M2.25475 15.3958L2.19718 3.72745L2.44238 2.67456L13.2885 8.53048L12.8702 15.093L14.1683 14.2853L16.1875 17.5306L9.04799 21.9728L6.90618 19.2541L7.67783 18.3238L2.25475 15.3958Z" fill="white"/>
<path d="M1.45413 1.0893C1.76588 0.897348 2.15601 0.880502 2.48337 1.04788L14.2073 7.04772L14.2418 7.06705L14.31 7.1095L14.336 7.12678C14.6239 7.33138 14.7908 7.66906 14.7771 8.02592L14.5827 13.0497C14.6471 13.053 14.7118 13.0607 14.7753 13.0758L14.8758 13.105C15.072 13.1733 15.2431 13.2988 15.3681 13.464L15.4267 13.5504L17.3823 16.7529C17.6843 17.2481 17.5299 17.8956 17.0353 18.2002L9.58182 22.7898C9.08602 23.0951 8.4379 22.9388 8.13456 22.4428L8.13361 22.4425L6.17899 19.2403L6.17804 19.24C6.0331 19.0024 5.98838 18.7162 6.05338 18.4449L6.05361 18.444C6.06906 18.3798 6.09047 18.3178 6.11719 18.2584L1.57122 16.155C1.20095 15.9835 0.960975 15.6121 0.960404 15.2011L0.952344 1.98828C0.952245 1.62165 1.1426 1.28112 1.45413 1.0893ZM8.52077 19.0356L9.37849 20.4423L15.0408 16.9566L14.1819 15.5506L8.52077 19.0356ZM7.40405 8.80867C7.7667 8.74634 8.14804 8.75309 8.52925 8.8445L8.80598 8.92592C10.1549 9.39845 10.9497 10.8287 10.609 12.2495C10.2681 13.6704 8.91119 14.5837 7.49499 14.393L7.21143 14.3401C5.69718 13.977 4.76714 12.4517 5.13051 10.9358C5.22238 10.5527 5.38871 10.2073 5.60929 9.91078L3.05737 5.73176L3.06409 14.5235L8.0702 16.8397L12.4355 14.1517L12.6489 8.61725L4.84924 4.62494L7.40405 8.80867ZM8.03783 10.8938C7.65624 10.8023 7.26894 11.0389 7.17604 11.4263L7.15563 11.57C7.14403 11.9046 7.36842 12.2106 7.70285 12.2908C8.08432 12.3821 8.47052 12.1462 8.56347 11.759L8.58315 11.6141C8.59457 11.2793 8.37114 10.9739 8.03783 10.8938Z" fill="black" stroke="white" stroke-linecap="round" stroke-linejoin="round"/>
<path d="M21.9288 4.44141C22.5221 4.44152 23 4.92369 23.0001 5.51465C23.0001 6.10573 22.5222 6.58875 21.9288 6.58887H15.0714C14.478 6.5888 14.0001 6.10576 14.0001 5.51465C14.0003 4.92366 14.4781 4.44148 15.0714 4.44141H21.9288Z" fill="black" stroke="white" stroke-linecap="round" stroke-linejoin="round"/>
</svg>
