<svg width="140" height="140" viewBox="0 0 140 140" fill="none" xmlns="http://www.w3.org/2000/svg">
<path fill-rule="evenodd" clip-rule="evenodd" d="M46.8067 63.707C47.1896 61.5769 49.2742 59.3866 53.9278 60.2854C58.5814 61.1842 59.2541 63.1358 58.9181 64.5708C58.9181 64.5708 54.5768 81.9035 63.5718 85.6863C69.5715 88.2098 65.8145 96.9563 64.9738 98.8071C64.9738 98.8071 55.7066 103.022 48.7696 89.8807C43.8913 80.64 46.022 68.0806 46.8067 63.707ZM69.6219 43.5197C69.6219 43.5197 70.2526 41.7907 73.4768 41.4407C76.7003 41.09 85.0408 43.2985 90.0871 37.1826C90.0871 37.1826 83.5616 24.1934 65.7669 30.8462C60.2999 32.8902 63.326 40.2003 64.2248 41.5107C66.6783 45.0849 69.6219 43.5197 69.6219 43.5197ZM82.9268 51.7832C82.9268 51.7832 87.749 51.9519 94.1967 48.6437C96.3275 55.8768 94.2472 58.0888 92.7044 62.3588L78.313 89.8807C78.313 89.8807 76.9445 81.1006 72.2363 77.2191C73.9128 74.004 81.449 59.7849 82.6152 57.4518C83.7814 55.1194 82.9268 51.7832 82.9268 51.7832Z" fill="#A4D2F6"/>
<path d="M83.0482 51.5941C83.529 52.0464 83.5972 52.5617 83.6989 53.0549C83.9756 54.9287 83.5236 56.828 82.6059 58.4724C80.3346 62.6997 78.1623 67.0699 75.9128 71.3554C75.0367 73.0358 74.0814 74.6759 73.0499 76.2752C72.7931 76.673 72.5268 77.0785 72.2638 77.4654C72.1079 77.3858 71.9521 77.3057 71.7962 77.2261C71.9555 76.7859 72.1288 76.3325 72.3028 75.8917C73.0033 74.1196 73.7948 72.3907 74.6721 70.708C76.9289 66.4095 79.2042 62.1289 81.7541 57.9617C82.6559 56.5475 83.1876 54.8221 83.0666 53.1369C83.0296 52.7095 82.9215 52.2132 82.7118 51.9974C82.8238 51.8629 82.9362 51.7285 83.0482 51.5941Z" fill="#111F78"/>
<path d="M50.5488 92.7212C50.7164 92.9377 50.897 93.1579 51.0806 93.3686C53.6663 96.2707 57.1575 98.6049 60.8888 98.6692C61.9432 98.6844 62.998 98.5974 64.0921 98.3984C64.3699 98.347 64.6366 98.2941 64.9206 98.2282C64.9935 98.3873 65.0665 98.5463 65.1394 98.7054C64.8912 98.8831 64.6475 99.04 64.3792 99.1873C63.3267 99.7712 62.0973 100.09 60.8683 100.069C56.4724 99.9697 52.8461 97.0729 50.574 93.7555C50.4119 93.5131 50.2535 93.2609 50.1113 93.0124C50.2569 92.9153 50.4031 92.8183 50.5488 92.7212Z" fill="#111F78"/>
<path d="M94.6877 48.3656C94.8951 49.1285 95.0107 49.9124 95.0972 50.6857C95.4085 53.795 95.2625 56.981 94.296 60.0461C94.118 60.5925 93.9111 61.1333 93.6637 61.6621C89.2664 70.8761 84.8116 80.1066 79.54 88.902C79.1168 89.5623 78.7018 90.2244 78.1776 90.8188C78.0459 90.7035 77.9141 90.5881 77.7824 90.4729C78.2183 89.9252 78.6111 89.2387 78.9931 88.5739C83.801 79.6196 88.0361 70.2661 92.3963 61.0715C92.6143 60.6026 92.802 60.1132 92.9651 59.6127C93.8547 56.802 94.1956 53.7537 94.2584 50.7267C94.2667 49.9747 94.2558 49.2032 94.1723 48.4681C94.3439 48.4338 94.5161 48.3999 94.6877 48.3656Z" fill="#111F78"/>
<path d="M92.7532 3.34591C96.6938 1.89084 101.014 1.81237 105.058 2.58507C108.971 3.17485 112.908 5.99822 113.933 10.0349C115.029 13.9716 114.429 18.0745 112.866 21.7332C110.126 27.7572 107.403 33.844 104.014 39.6017C98.8144 48.2641 88.3356 53.8751 78.2719 51.9337C76.0534 51.5844 73.8755 50.5064 72.4504 48.7215C71.0195 46.9617 70.3486 44.6878 70.3675 42.4666H70.8925C70.9116 44.5808 71.5914 46.7126 72.9419 48.3154C74.2886 49.9416 76.2965 50.9006 78.3881 51.1995C88.1794 52.927 98.1392 47.3724 103.046 39.0322C106.329 33.3256 108.99 27.2523 111.694 21.2007C114.787 14.6745 112.924 4.70278 104.802 3.94816C100.935 3.21872 96.8883 3.31115 93.2344 4.66047C89.7022 5.94518 86.5897 8.37605 84.4653 11.4814C81.8359 15.4384 79.3231 19.5342 76.7707 23.583C75.6162 25.4237 74.4606 27.2662 73.3063 29.1078C73.1555 29.0189 73.0045 28.9301 72.8537 28.8412C73.9083 26.9391 74.975 25.0423 76.0502 23.1524C78.4324 18.9882 80.8006 14.8404 83.3947 10.7677C85.6121 7.38648 88.9405 4.73297 92.7532 3.34591Z" fill="#111F78"/>
<path d="M71.719 28.4855C78.4835 27.4279 85.998 30.274 89.679 36.0761C89.9538 36.4807 90.2029 36.878 90.4515 37.3045C90.3038 37.3985 90.1562 37.4929 90.0085 37.5868C89.7333 37.1909 89.4608 36.8252 89.1656 36.4541C85.1498 31.1583 78.2877 28.9212 71.9029 29.8732C70.0752 30.1186 68.251 30.4799 66.4751 31.0278C66.2867 31.0867 66.0941 31.1504 65.9146 31.2117C65.6607 31.2993 65.4085 31.3933 65.1592 31.4953C65.0732 31.3429 64.9868 31.1904 64.9008 31.038C65.1295 30.8704 65.366 30.7134 65.6076 30.5657C65.7774 30.4607 65.9629 30.3547 66.1456 30.2553C67.8677 29.324 69.7767 28.7456 71.719 28.4855Z" fill="#111F78"/>
<path d="M46.5495 63.0701C47.4948 59.7582 51.0612 59.6729 53.4914 59.9461C53.5166 59.9497 53.5422 59.9539 53.5673 59.9577C55.9636 60.3702 59.2232 61.5964 59.1557 64.6677L59.1502 64.6957C58.5979 67.112 58.2697 69.5937 58.1576 72.0737C58.0376 76.5642 58.2747 82.2737 62.4082 84.442C66.4527 85.9167 68.7038 91.2513 66.5276 95.1607C64.3084 101.633 62.2293 108.138 59.4202 114.472C57.2445 119.116 52.9706 124.214 47.0103 123.6C42.0345 122.753 40.9381 116.747 42.342 112.969C44.3994 106.245 46.9691 99.6571 49.8807 93.2884C48.2133 90.8595 47.1168 88.1496 46.2816 85.3929C44.1231 78.1095 44.1634 70.1698 46.5707 62.9737L46.5495 63.0701ZM53.3855 60.7821C51.1161 60.5113 47.9833 61.1821 47.6296 63.2068L47.6084 63.3032C45.4707 70.3433 45.5468 77.9768 47.6235 84.9936C48.4588 87.7641 49.5962 90.5083 51.2424 92.8044L51.481 93.1305L51.3169 93.5003C48.332 99.9738 45.7293 106.571 43.6183 113.365C42.3072 116.869 43.4812 121.739 47.1689 122.334C52.1795 122.926 56.2369 118.459 58.3702 113.961C61.1584 107.809 63.3363 101.245 65.6198 94.8087L65.6491 94.7403C67.5865 91.2796 65.8181 86.6858 62.0514 85.1919C57.2933 82.4994 57.3864 76.5929 57.5212 72.0416C57.6716 69.5285 58.0383 67.0351 58.6341 64.5959C58.6468 62.2331 55.6952 61.0496 53.4552 60.7903C53.4321 60.7877 53.4087 60.7846 53.3855 60.7821Z" fill="#111F78"/>
<path d="M57.5344 74.4481C59.9357 72.9364 62.8559 73.126 65.4545 73.6415C65.9327 73.743 66.4065 73.8638 66.875 74.0024C76.136 76.5086 79.67 87.4512 78.1024 96.1351C75.5358 105.37 71.8225 114.132 68.0358 122.864C64.477 132.442 53.5186 139.8 43.1598 136.577C34.531 134.84 29.7595 125.346 30.6152 117.195C30.7793 114.778 31.2665 112.373 32.1949 110.107C35.3983 102.52 38.8683 95.0597 42.4072 87.6333C43.5503 85.2473 44.7089 82.8581 45.8928 80.5041C46.0508 80.5793 46.2092 80.6544 46.3672 80.7297C45.2909 83.1289 44.228 85.5601 43.1707 87.9826C39.901 95.5178 36.5871 103.066 33.4651 110.627C32.6233 112.725 32.1656 115.005 32.0117 117.288C31.2592 125.071 35.5502 133.595 43.5002 135.257C53.2346 138.261 63.3302 131.628 66.9242 122.37C70.7529 113.708 74.5453 104.941 77.1576 95.8986C78.7146 87.7027 75.4754 77.0941 66.6843 74.6313C66.2338 74.4913 65.7778 74.3685 65.3178 74.2642C62.8212 73.7231 59.9971 73.5466 57.8256 74.8849L57.5344 74.4481Z" fill="#111F78"/>
<path d="M65.6572 30.2512C69.253 29.9217 71.3183 33.2402 71.9339 35.9866C72.4307 38.2704 72.1772 40.9336 70.4314 42.6967C70.3472 42.7776 70.2593 42.8552 70.1689 42.9285C69.7742 43.2501 69.3117 43.4954 68.8208 43.6284C68.7581 43.6542 68.6946 43.6779 68.6315 43.6995C68.0985 43.8839 67.5076 43.9307 66.9382 43.8451C64.3158 43.3806 62.629 40.973 62.002 38.6198C61.9849 38.5556 61.9686 38.491 61.9528 38.4263C61.2479 35.5741 61.7383 31.3963 65.3584 30.3093C65.4579 30.2856 65.5581 30.2662 65.6572 30.2512ZM70.9598 36.2251C70.3317 33.7355 68.2119 31.1495 65.8643 31.5268C65.7992 31.5383 65.7345 31.5526 65.6688 31.5699C63.3128 32.224 62.6529 35.6021 63.3124 38.0941C63.3261 38.1498 63.3402 38.2052 63.3548 38.2602C63.901 40.2877 65.1382 42.3378 67.1207 43.0248C67.5581 43.1653 68.0267 43.2167 68.4982 43.1534C68.5552 43.1457 68.6115 43.1372 68.667 43.1267L68.8188 43.0693C69.1686 42.9263 69.4885 42.7175 69.7656 42.4609C69.8383 42.3937 69.9088 42.3231 69.9761 42.2496C71.3748 40.6628 71.5051 38.2516 70.9598 36.2251Z" fill="#111F78"/>
<path d="M93.2674 13.4657C95.4127 12.0041 98.1882 11.2998 100.807 12.225C102.097 12.6709 103.324 13.9387 103.443 15.4283C103.592 16.8936 103.053 18.1688 102.421 19.2879C99.058 25.0399 96.1812 31.2533 91.7566 36.4447C88.4235 40.6983 82.612 41.7692 77.6876 41.3741L77.6309 41.37C76.4789 41.1945 75.2421 41.257 74.055 41.4411C72.8257 41.6368 71.6193 41.9918 70.4894 42.5185C70.413 42.3611 70.3361 42.2035 70.2597 42.0461C71.4208 41.4611 72.6682 41.0539 73.9463 40.8129C75.1795 40.588 76.431 40.4798 77.717 40.6352C82.6739 40.8789 87.9247 39.7134 90.9186 35.7639C95.1524 30.6103 97.8979 24.4712 101.254 18.6207C102.474 16.6773 102.445 14.1893 100.312 13.5197C98.3363 12.8054 95.8663 13.3629 94.0665 14.6155C93.208 15.2115 92.4753 15.9741 91.9228 16.8618C89.8386 20.2054 87.8325 23.5948 85.836 27.0029C85.1884 28.1021 84.5471 29.2028 83.8652 30.2849C83.7133 30.198 83.5612 30.1112 83.4093 30.0244C83.982 28.8984 84.5312 27.7487 85.0971 26.6044C86.8406 23.0545 88.7069 19.5502 90.7518 16.1468C91.388 15.0853 92.2546 14.1682 93.2674 13.4657Z" fill="#111F78"/>
<path d="M26.8877 20.638C31.2522 24.3656 35.4355 28.2715 39.4371 32.3548C40.5803 33.5214 41.5902 34.8186 42.4668 36.2465C42.686 36.6035 42.8973 36.9683 43.0998 37.3416C42.8498 37.5866 42.5992 37.8322 42.3492 38.0772C41.9801 37.8672 41.6195 37.6486 41.2671 37.4223C39.8571 36.5169 38.5802 35.4806 37.4369 34.314C33.4353 30.2307 29.6151 25.9697 25.9765 21.5308C25.7166 21.2137 25.4573 20.896 25.1992 20.5772C25.4492 20.3322 25.6998 20.0866 25.9498 19.8416C26.2634 20.106 26.5759 20.3717 26.8877 20.638Z" fill="#111F78"/>
<path d="M45.3099 14.7844C46.8559 17.9791 48.1597 21.2505 49.2214 24.5987C49.5247 25.5554 49.6506 26.5685 49.598 27.638C49.5849 27.9054 49.5603 28.1764 49.5249 28.4508C49.1913 28.5566 48.8577 28.6622 48.5241 28.768C48.3371 28.5641 48.1612 28.3568 47.9964 28.1459C47.3372 27.3021 46.856 26.4017 46.5526 25.445C45.491 22.0968 44.671 18.6718 44.0938 15.1699C44.0525 14.9198 44.0129 14.6689 43.9741 14.418C44.3077 14.3122 44.6413 14.2066 44.9749 14.1008C45.0878 14.3282 45.1994 14.5562 45.3099 14.7844Z" fill="#111F78"/>
<path d="M60.042 12.5996C60.0336 12.8744 60.0235 13.149 60.0126 13.4233C59.8599 17.2671 59.4573 21.0677 58.804 24.8243C58.6173 25.8976 58.2463 26.939 57.6918 27.9483C57.5532 28.2006 57.4036 28.4513 57.242 28.6996C56.8972 28.6396 56.5519 28.5791 56.207 28.5191C56.1388 28.231 56.0821 27.9447 56.0368 27.6606C55.8557 26.5233 55.8584 25.4178 56.045 24.3444C56.6983 20.5878 57.6022 16.8748 58.7562 13.2053C58.8386 12.9432 58.9221 12.6808 59.007 12.4191C59.3519 12.4791 59.6972 12.5396 60.042 12.5996Z" fill="#111F78"/>
<path d="M34.4995 46.4594C35.2928 46.4594 36.0865 46.6459 36.8798 47.0192C37.0781 47.1126 37.2762 47.2178 37.4745 47.3344V48.3844C37.2762 48.501 37.0781 48.6062 36.8798 48.6995C36.0865 49.0729 35.2928 49.2594 34.4995 49.2594C31.7228 49.2594 28.9459 49.0053 26.1692 48.4972C25.971 48.4609 25.7728 48.4233 25.5745 48.3844V47.3344C25.7728 47.2955 25.971 47.2579 26.1692 47.2216C28.9459 46.7134 31.7228 46.4594 34.4995 46.4594Z" fill="#111F78"/>
<path d="M38.8561 56.6661C38.7722 56.8849 38.6812 57.095 38.5826 57.2957C38.1885 58.0984 37.6765 58.7566 37.0466 59.2699C34.8417 61.0665 32.4761 62.6661 29.9502 64.0688C29.7698 64.1689 29.5881 64.2679 29.4061 64.3661C29.1851 64.0949 28.9639 63.8238 28.743 63.5527C28.8759 63.3942 29.0097 63.2367 29.1442 63.0803C31.0282 60.8897 33.0725 58.8955 35.2774 57.0988C35.9074 56.5855 36.6559 56.2174 37.5217 55.9935C37.7381 55.9375 37.9618 55.8905 38.193 55.8526C38.4139 56.1238 38.6351 56.3949 38.8561 56.6661Z" fill="#111F78"/>
</svg>
