<svg width="269" height="80" viewBox="0 0 269 80" fill="none" xmlns="http://www.w3.org/2000/svg">
<path d="M266.034 64.0015C266.622 64.0015 267.112 64.0888 267.505 64.262C267.898 64.4353 268.193 64.6762 268.391 64.9839C268.589 65.289 268.688 65.6403 268.688 66.0385C268.688 66.3487 268.626 66.6217 268.501 66.857C268.376 67.0897 268.204 67.2816 267.985 67.4316C267.769 67.5789 267.522 67.6836 267.243 67.7457V67.8228C267.548 67.8357 267.833 67.9216 268.099 68.0793C268.367 68.2371 268.584 68.4583 268.751 68.7427C268.917 69.0245 269.001 69.361 269.001 69.7514C269.001 70.1728 268.895 70.5492 268.684 70.8801C268.476 71.2085 268.167 71.4683 267.759 71.6596C267.35 71.8509 266.847 71.9464 266.248 71.9464H262.832V64.0015H266.034ZM264.522 70.5738H265.9C266.371 70.5738 266.714 70.4839 266.93 70.3055C267.146 70.1246 267.255 69.8844 267.255 69.5846C267.255 69.3648 267.202 69.1703 267.095 69.0022C266.989 68.8342 266.836 68.7028 266.638 68.6071C266.443 68.5114 266.21 68.4627 265.939 68.4627H264.522V70.5738ZM264.522 67.3262H265.775C266.006 67.3262 266.213 67.2864 266.392 67.2062C266.574 67.1235 266.718 67.0069 266.822 66.857C266.928 66.707 266.981 66.5269 266.981 66.3175C266.981 66.0306 266.878 65.7996 266.673 65.6239C266.47 65.4481 266.181 65.3595 265.806 65.3595H264.522V67.3262Z" fill="white"/>
<path d="M259.749 64.002H261.44V69.1614C261.44 69.7407 261.3 70.2476 261.022 70.682C260.746 71.1165 260.36 71.4553 259.862 71.6984C259.365 71.9389 258.786 72.0592 258.125 72.0592C257.461 72.0592 256.881 71.9389 256.384 71.6984C255.887 71.4553 255.5 71.1165 255.224 70.682C254.948 70.2476 254.811 69.7407 254.811 69.1614V64.002H256.501V69.0179C256.501 69.3204 256.567 69.5894 256.7 69.8247C256.835 70.0601 257.025 70.245 257.27 70.3795C257.515 70.5139 257.8 70.5812 258.125 70.5812C258.453 70.5812 258.738 70.5139 258.98 70.3795C259.225 70.245 259.413 70.0601 259.546 69.8247C259.682 69.5894 259.749 69.3204 259.749 69.0179V64.002Z" fill="white"/>
<path d="M246.607 71.9467V64.002H248.298V67.28H251.73V64.002H253.416V71.9467H251.73V68.6648H248.298V71.9467H246.607Z" fill="white"/>
<path d="M242.666 64.002V71.9467H241.206L237.728 66.9463H237.669V71.9467H235.979V64.002H237.462L240.913 68.9985H240.984V64.002H242.666Z" fill="white"/>
<path d="M230.982 63.8932C231.687 63.8932 232.323 64.0535 232.887 64.3742C233.455 64.6923 233.902 65.1556 234.23 65.7634C234.561 66.371 234.726 67.1078 234.726 67.974C234.726 68.8403 234.561 69.5778 234.23 70.1855C233.903 70.7932 233.455 71.257 232.887 71.5776C232.323 71.8957 231.687 72.0557 230.982 72.0557C230.272 72.0556 229.634 71.8952 229.069 71.5747C228.505 71.2541 228.058 70.7893 227.73 70.1816C227.402 69.5739 227.238 68.8377 227.238 67.974C227.238 67.1078 227.403 66.371 227.73 65.7634C228.058 65.1556 228.505 64.6923 229.069 64.3742C229.634 64.0536 230.272 63.8933 230.982 63.8932ZM230.982 65.379C230.573 65.379 230.217 65.4785 229.912 65.6775C229.608 65.8767 229.371 66.1692 229.202 66.5545C229.035 66.9398 228.952 67.4129 228.952 67.974C228.952 68.5352 229.035 69.009 229.202 69.3944C229.371 69.7796 229.608 70.0713 229.912 70.2704C230.217 70.4695 230.573 70.5699 230.982 70.5699C231.39 70.5699 231.747 70.4695 232.051 70.2704C232.356 70.0713 232.592 69.7796 232.758 69.3944C232.927 69.009 233.012 68.5352 233.012 67.974C233.012 67.4129 232.927 66.9398 232.758 66.5545C232.592 66.1692 232.356 65.8767 232.051 65.6775C231.747 65.4785 231.39 65.379 230.982 65.379Z" fill="white"/>
<path d="M225.987 64.002V71.9467H224.297V64.002H225.987Z" fill="white"/>
<path d="M216.65 65.3869V64.002H223.217V65.3869H220.769V71.9467H219.098V65.3869H216.65Z" fill="white"/>
<path d="M216.97 71.9468H215.158L214.566 70.1353H211.68L211.087 71.9468H209.275L212.035 64.0025H214.214L216.97 71.9468ZM212.109 68.8238H214.138L213.156 65.8179H213.094L212.109 68.8238Z" fill="white"/>
<path d="M203.035 65.3869V64.002H209.602V65.3869H207.154V71.9467H205.483V65.3869H203.035Z" fill="white"/>
<path d="M198.71 63.8932C199.416 63.8932 200.051 64.0535 200.616 64.3742C201.183 64.6923 201.631 65.1556 201.959 65.7634C202.289 66.371 202.455 67.1078 202.455 67.974C202.455 68.8403 202.289 69.5778 201.959 70.1855C201.631 70.7932 201.183 71.257 200.616 71.5776C200.051 71.8957 199.416 72.0557 198.71 72.0557C198 72.0556 197.363 71.8952 196.798 71.5747C196.233 71.2541 195.787 70.7893 195.459 70.1816C195.131 69.5739 194.967 68.8377 194.967 67.974C194.967 67.1078 195.131 66.371 195.459 65.7634C195.787 65.1556 196.233 64.6923 196.798 64.3742C197.363 64.0536 198 63.8933 198.71 63.8932ZM198.71 65.379C198.302 65.379 197.945 65.4785 197.641 65.6775C197.336 65.8767 197.099 66.1692 196.93 66.5545C196.764 66.9398 196.68 67.4129 196.68 67.974C196.68 68.5352 196.764 69.009 196.93 69.3944C197.099 69.7796 197.336 70.0713 197.641 70.2704C197.945 70.4695 198.302 70.5699 198.71 70.5699C199.119 70.5699 199.475 70.4695 199.78 70.2704C200.084 70.0713 200.32 69.7796 200.487 69.3944C200.656 69.009 200.74 68.5352 200.74 67.974C200.74 67.4129 200.656 66.9398 200.487 66.5545C200.32 66.1692 200.084 65.8767 199.78 65.6775C199.475 65.4785 199.119 65.379 198.71 65.379Z" fill="white"/>
<path d="M193.711 64.002V71.9467H192.251L188.772 66.9463H188.714V71.9467H187.023V64.002H188.507L191.958 68.9985H192.028V64.002H193.711Z" fill="white"/>
<path d="M185.625 64.002V71.9467H184.165L180.687 66.9463H180.628V71.9467H178.938V64.002H180.421L183.872 68.9985H183.943V64.002H185.625Z" fill="white"/>
<path d="M177.974 71.9464H176.163L175.571 70.1348H172.684L172.091 71.9464H170.279L173.04 64.0015H175.218L177.974 71.9464ZM173.113 68.8237H175.142L174.16 65.817H174.097L173.113 68.8237Z" fill="white"/>
<path d="M167.209 71.9464H165.397L164.805 70.1348H161.918L161.325 71.9464H159.514L162.274 64.0015H164.452L167.209 71.9464ZM162.348 68.8237H164.377L163.394 65.817H163.332L162.348 68.8237Z" fill="white"/>
<path d="M153.275 65.3869V64.002H159.842V65.3869H157.394V71.9467H155.723V65.3869H153.275Z" fill="white"/>
<path d="M153.593 71.9464H151.782L151.19 70.1348H148.303L147.71 71.9464H145.898L148.659 64.0015H150.837L153.593 71.9464ZM148.732 68.8237H150.761L149.779 65.817H149.717L148.732 68.8237Z" fill="white"/>
<path d="M141.642 64.0025C142.446 64.0026 143.138 64.1611 143.718 64.4791C144.298 64.7945 144.745 65.2482 145.058 65.8404C145.373 66.4326 145.529 67.1415 145.529 67.9664C145.529 68.7939 145.372 69.5054 145.058 70.1002C144.745 70.695 144.296 71.1512 143.71 71.4693C143.127 71.7873 142.43 71.9468 141.618 71.9468H138.783V64.0025H141.642ZM140.474 70.5074H141.547C142.046 70.5074 142.467 70.4195 142.808 70.2437C143.151 70.0653 143.409 69.7899 143.581 69.4175C143.755 69.0425 143.843 68.5586 143.843 67.9664C143.843 67.3794 143.755 66.8993 143.581 66.5269C143.409 66.1547 143.152 65.8805 142.812 65.7047C142.471 65.5289 142.05 65.441 141.551 65.441H140.474V70.5074Z" fill="white"/>
<path d="M132.053 71.9467V64.002H137.44V65.3869H133.743V67.28H137.163V68.6648H133.743V70.5618H137.456V71.9467H132.053Z" fill="white"/>
<path d="M128.991 66.57C128.936 66.3812 128.86 66.2144 128.761 66.0696C128.662 65.9222 128.541 65.7981 128.398 65.6972C128.257 65.5938 128.096 65.5149 127.914 65.4606C127.734 65.4063 127.535 65.3791 127.316 65.3791C126.908 65.3791 126.548 65.48 126.239 65.6817C125.932 65.8834 125.692 66.1769 125.52 66.5623C125.349 66.945 125.263 67.4131 125.263 67.9666C125.263 68.52 125.347 68.9907 125.516 69.3786C125.686 69.7665 125.925 70.0626 126.235 70.2669C126.545 70.4687 126.91 70.5695 127.332 70.5695C127.714 70.5695 128.041 70.5023 128.312 70.3678C128.585 70.2307 128.793 70.0381 128.936 69.7898C129.082 69.5415 129.155 69.248 129.155 68.9092L129.499 68.9596H127.437V67.695H130.783V68.6959C130.783 69.3941 130.635 69.9941 130.338 70.4958C130.041 70.9949 129.633 71.3803 129.112 71.6518C128.592 71.9208 127.996 72.0553 127.324 72.0553C126.574 72.0553 125.916 71.891 125.349 71.5626C124.781 71.2316 124.339 70.7622 124.021 70.1544C123.706 69.5441 123.549 68.82 123.549 67.9821C123.549 67.3381 123.643 66.764 123.83 66.2597C124.02 65.7528 124.285 65.3235 124.626 64.9718C124.967 64.6201 125.364 64.3524 125.817 64.1688C126.27 63.9852 126.761 63.8934 127.289 63.8934C127.742 63.8934 128.163 63.9593 128.554 64.0912C128.944 64.2205 129.29 64.4041 129.592 64.6421C129.897 64.88 130.145 65.1632 130.338 65.4916C130.531 65.8175 130.654 66.1769 130.709 66.57H128.991Z" fill="white"/>
<path d="M122.293 64.002V71.9467H120.833L117.354 66.9463H117.296V71.9467H115.605V64.002H117.089L120.54 68.9985H120.611V64.002H122.293Z" fill="white"/>
<path d="M114.214 64.002V71.9467H112.523V64.002H114.214Z" fill="white"/>
<path d="M227.088 55.775V8.05756H238.639V27.2098H257.472V8.05756H269V55.775H257.472V36.5995H238.639V55.775H227.088Z" fill="white"/>
<path d="M221.942 55.7754H209.527L206.377 45.7559H189.872L186.728 55.7754H174.312L190.438 8.05762H205.816L221.942 55.7754ZM192.62 36.9961H203.622L198.303 20.0801H197.929L192.62 36.9961Z" fill="white"/>
<path d="M148.854 8.05762C153.723 8.05766 157.916 9.01331 161.432 10.9238C164.963 12.8188 167.686 15.5525 169.6 19.125C171.513 22.6819 172.47 26.9379 172.47 31.8926C172.47 36.8631 171.513 41.1354 169.6 44.708C167.702 48.2805 164.987 51.0221 161.455 52.9326C157.924 54.8276 153.731 55.7753 148.877 55.7754H131.211V8.05762H148.854ZM142.762 45.9424H148.433C151.108 45.9424 153.372 45.4917 155.224 44.5908C157.09 43.6744 158.498 42.1908 159.447 40.1406C160.412 38.0748 160.895 35.3252 160.895 31.8926C160.894 28.46 160.412 25.7262 159.447 23.6914C158.483 21.6411 157.059 20.1656 155.177 19.2646C153.31 18.3482 151.007 17.8897 148.27 17.8896H142.762V45.9424Z" fill="white"/>
<path d="M123.96 8.05756V55.775H112.408V8.05756H123.96Z" fill="white"/>
<path d="M23.8262 0H43.8621V20H23.8262V0Z" fill="#2291EA"/>
<path d="M11.3711 20H23.8259V40H11.3711V20Z" fill="#2291EA"/>
<path d="M0 8.64868H11.3718V20H0V8.64868Z" fill="#2291EA"/>
<path fill-rule="evenodd" clip-rule="evenodd" d="M43.8621 20L63.8981 0C77.9543 0 89.3491 11.3744 89.3491 25.4054V52.973C89.3491 67.8996 77.227 80 62.2735 80H23.8262V40L43.8621 20ZM43.8633 20H63.8992V60H43.8633V20Z" fill="#2291EA"/>
</svg>
