<svg width="87" height="40" viewBox="0 0 87 40" fill="none" xmlns="http://www.w3.org/2000/svg">
<path d="M86.0403 27.7626C86.2305 27.7626 86.3891 27.7908 86.5162 27.8468C86.6433 27.9029 86.7388 27.9808 86.8028 28.0803C86.8667 28.179 86.8988 28.2926 86.8988 28.4214C86.8988 28.5217 86.8787 28.61 86.8383 28.6861C86.7979 28.7614 86.7422 28.8234 86.6715 28.8719C86.6017 28.9196 86.5216 28.9534 86.4315 28.9735V28.9984C86.53 29.0026 86.6224 29.0304 86.7083 29.0814C86.7949 29.1324 86.8653 29.204 86.9191 29.296C86.973 29.3871 87 29.4959 87 29.6222C86.9999 29.7585 86.9657 29.8802 86.8976 29.9872C86.8302 30.0934 86.7304 30.1775 86.5983 30.2393C86.4661 30.3012 86.3033 30.3321 86.1097 30.3321H85.0049V27.7626H86.0403ZM85.5514 29.8882H85.9972C86.1495 29.8882 86.2605 29.8591 86.3304 29.8014C86.4002 29.7429 86.4353 29.6652 86.4353 29.5682C86.4353 29.4972 86.4182 29.4342 86.3837 29.3799C86.3492 29.3256 86.2998 29.283 86.2359 29.2521C86.1728 29.2212 86.0974 29.2054 86.0099 29.2054H85.5514V29.8882ZM85.5514 28.8378H85.9566C86.0315 28.8378 86.0983 28.825 86.1563 28.799C86.2152 28.7723 86.2615 28.7346 86.2952 28.6861C86.3297 28.6376 86.3469 28.5793 86.3469 28.5116C86.3468 28.4188 86.3135 28.3441 86.247 28.2873C86.1814 28.2304 86.088 28.2018 85.9668 28.2018H85.5514V28.8378Z" fill="#111F78"/>
<path d="M84.0084 27.7627H84.5551V29.4313C84.5551 29.6187 84.5101 29.7826 84.42 29.9231C84.3308 30.0637 84.2058 30.1732 84.045 30.2519C83.8842 30.3296 83.6969 30.3685 83.4831 30.3685C83.2685 30.3685 83.0808 30.3296 82.92 30.2519C82.7592 30.1732 82.6342 30.0637 82.545 29.9231C82.4557 29.7826 82.4111 29.6187 82.4111 29.4313V27.7627H82.9579V29.3849C82.9579 29.4828 82.9793 29.5698 83.0223 29.6459C83.066 29.722 83.1275 29.7818 83.2066 29.8253C83.2857 29.8688 83.3779 29.8905 83.4831 29.8905C83.5892 29.8905 83.6814 29.8688 83.7596 29.8253C83.8388 29.7818 83.8998 29.722 83.9427 29.6459C83.9865 29.5698 84.0084 29.4828 84.0084 29.3849V27.7627Z" fill="#111F78"/>
<path d="M79.7578 30.3321V27.7627H80.3045V28.8228H81.4144V27.7627H81.9599V30.3321H81.4144V29.2707H80.3045V30.3321H79.7578Z" fill="#111F78"/>
<path d="M78.4832 27.7627V30.3321H78.011L76.886 28.7149H76.867V30.3321H76.3203V27.7627H76.8001L77.9163 29.3786H77.939V27.7627H78.4832Z" fill="#111F78"/>
<path d="M74.7039 27.7275C74.932 27.7275 75.1376 27.7794 75.3202 27.8831C75.5037 27.986 75.6485 28.1358 75.7546 28.3324C75.8614 28.5289 75.915 28.7672 75.915 29.0473C75.915 29.3275 75.8615 29.566 75.7546 29.7626C75.6485 29.9591 75.5037 30.1091 75.3202 30.2128C75.1376 30.3157 74.932 30.3674 74.7039 30.3674C74.4742 30.3674 74.268 30.3155 74.0854 30.2119C73.9027 30.1082 73.7584 29.9579 73.6523 29.7613C73.5463 29.5648 73.4932 29.3267 73.4932 29.0473C73.4932 28.7672 73.5463 28.5289 73.6523 28.3324C73.7584 28.1358 73.9027 27.986 74.0854 27.8831C74.268 27.7794 74.4742 27.7276 74.7039 27.7275ZM74.7039 28.2081C74.5718 28.2081 74.4565 28.2403 74.358 28.3046C74.2595 28.369 74.1829 28.4636 74.1282 28.5883C74.0743 28.7129 74.0473 28.8659 74.0473 29.0473C74.0473 29.2288 74.0743 29.3821 74.1282 29.5067C74.1829 29.6313 74.2596 29.7256 74.358 29.79C74.4565 29.8544 74.5718 29.8869 74.7039 29.8869C74.8361 29.8869 74.9513 29.8544 75.0498 29.79C75.1483 29.7256 75.2245 29.6313 75.2784 29.5067C75.3331 29.3821 75.3605 29.2288 75.3605 29.0473C75.3605 28.8659 75.3331 28.7129 75.2784 28.5883C75.2245 28.4636 75.1483 28.369 75.0498 28.3046C74.9513 28.2403 74.836 28.2081 74.7039 28.2081Z" fill="#111F78"/>
<path d="M73.0897 27.7627V30.3321H72.543V27.7627H73.0897Z" fill="#111F78"/>
<path d="M70.0693 28.2106V27.7627H72.1931V28.2106H71.4014V30.3321H70.861V28.2106H70.0693Z" fill="#111F78"/>
<path d="M70.1719 30.3322H69.5859L69.3945 29.7462H68.4609L68.2695 30.3322H67.6836L68.5762 27.7628H69.2812L70.1719 30.3322ZM68.5996 29.3224H69.2559L68.9385 28.3497H68.918L68.5996 29.3224Z" fill="#111F78"/>
<path d="M65.666 28.2106V27.7627H67.7898V28.2106H66.9981V30.3321H66.4577V28.2106H65.666Z" fill="#111F78"/>
<path d="M64.2674 27.7275C64.4955 27.7275 64.701 27.7794 64.8837 27.8831C65.0672 27.986 65.212 28.1358 65.318 28.3324C65.4249 28.5289 65.4784 28.7672 65.4785 29.0473C65.4785 29.3275 65.4249 29.566 65.318 29.7626C65.212 29.9591 65.0672 30.1091 64.8837 30.2128C64.701 30.3157 64.4955 30.3674 64.2674 30.3674C64.0377 30.3674 63.8315 30.3155 63.6489 30.2119C63.4662 30.1082 63.3219 29.9579 63.2158 29.7613C63.1097 29.5648 63.0566 29.3267 63.0566 29.0473C63.0567 28.7672 63.1098 28.5289 63.2158 28.3324C63.3219 28.1358 63.4662 27.986 63.6489 27.8831C63.8315 27.7794 64.0377 27.7276 64.2674 27.7275ZM64.2674 28.2081C64.1353 28.2081 64.02 28.2403 63.9215 28.3046C63.823 28.369 63.7464 28.4636 63.6917 28.5883C63.6378 28.7129 63.6108 28.8659 63.6108 29.0473C63.6108 29.2288 63.6378 29.3821 63.6917 29.5067C63.7464 29.6313 63.823 29.7256 63.9215 29.79C64.02 29.8544 64.1352 29.8869 64.2674 29.8869C64.3995 29.8869 64.5148 29.8544 64.6133 29.79C64.7117 29.7256 64.788 29.6313 64.8418 29.5067C64.8966 29.3821 64.924 29.2288 64.924 29.0473C64.9239 28.8659 64.8966 28.7129 64.8418 28.5883C64.788 28.4636 64.7118 28.369 64.6133 28.3046C64.5148 28.2403 64.3995 28.2081 64.2674 28.2081Z" fill="#111F78"/>
<path d="M62.6502 27.7627V30.3321H62.178L61.053 28.7149H61.034V30.3321H60.4873V27.7627H60.9671L62.0833 29.3786H62.106V27.7627H62.6502Z" fill="#111F78"/>
<path d="M60.035 27.7627V30.3321H59.5628L58.4377 28.7149H58.4188V30.3321H57.8721V27.7627H58.3519L59.4681 29.3786H59.4908V27.7627H60.035Z" fill="#111F78"/>
<path d="M57.561 30.3321H56.9751L56.7836 29.7462H55.8499L55.6581 30.3321H55.0723L55.965 27.7626H56.6695L57.561 30.3321ZM55.9888 29.3221H56.6451L56.3274 28.3497H56.3071L55.9888 29.3221Z" fill="#111F78"/>
<path d="M54.0785 30.3321H53.4927L53.3012 29.7462H52.3675L52.1757 30.3321H51.5898L52.4826 27.7626H53.1871L54.0785 30.3321ZM52.5064 29.3221H53.1626L52.845 28.3497H52.8247L52.5064 29.3221Z" fill="#111F78"/>
<path d="M49.5723 28.2106V27.7627H51.696V28.2106H50.9044V30.3321H50.3639V28.2106H49.5723Z" fill="#111F78"/>
<path d="M49.6752 30.3321H49.0893L48.8979 29.7462H47.9642L47.7724 30.3321H47.1865L48.0793 27.7626H48.7837L49.6752 30.3321ZM48.1031 29.3221H48.7593L48.4417 28.3497H48.4214L48.1031 29.3221Z" fill="#111F78"/>
<path d="M45.8105 27.7628C46.0703 27.7629 46.2939 27.8144 46.4814 27.9171C46.6692 28.0192 46.814 28.166 46.915 28.3575C47.0168 28.549 47.0674 28.7783 47.0674 29.045C47.0674 29.3124 47.0167 29.5422 46.915 29.7345C46.8141 29.9268 46.6688 30.075 46.4795 30.1779C46.291 30.2807 46.0653 30.3321 45.8027 30.3322H44.8857V27.7628H45.8105ZM45.4326 29.8663H45.7793C45.9409 29.8663 46.0772 29.8382 46.1875 29.7814C46.2986 29.7237 46.3819 29.6342 46.4375 29.5138C46.4938 29.3926 46.5224 29.2364 46.5225 29.045C46.5225 28.8552 46.4939 28.6997 46.4375 28.5792C46.3819 28.4588 46.2987 28.3705 46.1885 28.3136C46.0783 28.2568 45.9426 28.2277 45.7812 28.2277H45.4326V29.8663Z" fill="#111F78"/>
<path d="M42.708 30.3321V27.7627H44.4505V28.2106H43.2547V28.8228H44.3608V29.2707H43.2547V29.8843H44.4555V30.3321H42.708Z" fill="#111F78"/>
<path d="M41.7191 28.5932C41.7014 28.5322 41.6766 28.4782 41.6446 28.4314C41.6126 28.3837 41.5735 28.3436 41.5272 28.3109C41.4817 28.2775 41.4296 28.252 41.3706 28.2344C41.3125 28.2168 41.2482 28.2081 41.1774 28.2081C41.0453 28.2081 40.9291 28.2407 40.829 28.3059C40.7296 28.3712 40.6522 28.4661 40.5966 28.5907C40.5411 28.7145 40.5133 28.8659 40.5133 29.0449C40.5133 29.2239 40.5406 29.3761 40.5954 29.5016C40.6501 29.627 40.7275 29.7228 40.8277 29.7889C40.9279 29.8541 41.0461 29.8867 41.1825 29.8867C41.3062 29.8867 41.4119 29.865 41.4994 29.8215C41.5878 29.7772 41.6551 29.7149 41.7014 29.6346C41.7486 29.5543 41.7722 29.4593 41.7722 29.3498L41.8833 29.3661H41.2166V28.9571H42.2987V29.2808C42.2987 29.5066 42.2507 29.7006 42.1547 29.8629C42.0588 30.0243 41.9266 30.1489 41.7583 30.2368C41.5899 30.3238 41.3971 30.3673 41.18 30.3673C40.9375 30.3673 40.7246 30.3141 40.5411 30.2079C40.3576 30.1009 40.2145 29.949 40.1118 29.7525C40.0099 29.5551 39.959 29.3209 39.959 29.0499C39.959 28.8416 39.9893 28.656 40.0499 28.4929C40.1113 28.3289 40.1972 28.1901 40.3075 28.0763C40.4177 27.9626 40.5461 27.876 40.6926 27.8166C40.8391 27.7572 40.9977 27.7275 41.1686 27.7275C41.3151 27.7275 41.4514 27.7489 41.5777 27.7915C41.704 27.8333 41.8159 27.8927 41.9136 27.9697C42.0121 28.0466 42.0924 28.1382 42.1547 28.2444C42.217 28.3498 42.257 28.4661 42.2747 28.5932H41.7191Z" fill="#111F78"/>
<path d="M39.5526 27.7627V30.3321H39.0803L37.9553 28.7149H37.9364V30.3321H37.3896V27.7627H37.8695L38.9856 29.3786H39.0084V27.7627H39.5526Z" fill="#111F78"/>
<path d="M36.9393 27.7627V30.3321H36.3926V27.7627H36.9393Z" fill="#111F78"/>
<path d="M73.4443 25.1019V9.66919H77.1803V15.8634H83.2711V9.66919H86.9995V25.1019H83.2711V18.9002H77.1803V25.1019H73.4443Z" fill="#111F78"/>
<path d="M71.7804 25.102H67.7651L66.7462 21.8615H61.4082L60.3912 25.102H56.376L61.5911 9.66919H66.5649L71.7804 25.102ZM62.297 19.0284H65.8553L64.1349 13.5575H64.0139L62.297 19.0284Z" fill="#111F78"/>
<path d="M48.1415 9.66919C49.7163 9.6692 51.0724 9.97828 52.2095 10.5962C53.3516 11.2091 54.2323 12.0932 54.8512 13.2486C55.47 14.399 55.7794 15.7754 55.7794 17.3779C55.7794 18.9855 55.4701 20.3672 54.8512 21.5226C54.2373 22.6781 53.3592 23.5647 52.2171 24.1826C51.0749 24.7955 49.7189 25.102 48.1491 25.102H42.4355V9.66919H48.1415ZM46.1713 21.9219H48.0054C48.8708 21.9218 49.603 21.7761 50.2017 21.4847C50.8054 21.1883 51.2608 20.7085 51.5677 20.0455C51.8796 19.3773 52.0358 18.488 52.0358 17.3779C52.0358 16.2677 51.8797 15.3835 51.5677 14.7255C51.2558 14.0624 50.7954 13.5851 50.1866 13.2938C49.5828 12.9974 48.8381 12.8491 47.9526 12.8491H46.1713V21.9219Z" fill="#111F78"/>
<path d="M40.0905 9.66919V25.1019H36.3545V9.66919H40.0905Z" fill="#111F78"/>
<path d="M7.70605 7.06323H14.1861V13.5316H7.70605V7.06323Z" fill="#2291EA"/>
<path d="M3.67773 13.5316H7.70585V20H3.67773V13.5316Z" fill="#2291EA"/>
<path d="M0 9.86035H3.67784V13.5316H0V9.86035Z" fill="#2291EA"/>
<path fill-rule="evenodd" clip-rule="evenodd" d="M14.1861 13.5316L20.6661 7.06323C25.2121 7.06323 28.8974 10.7419 28.8974 15.2798V24.1957C28.8974 29.0233 24.9769 32.9368 20.1407 32.9368H7.70605V20L14.1861 13.5316ZM14.1864 13.5316H20.6664V26.4684H14.1864V13.5316Z" fill="#2291EA"/>
</svg>
