<svg width="24" height="24" viewBox="0 0 24 24" fill="none" xmlns="http://www.w3.org/2000/svg">
<path d="M8 6L13 7M16 10L18 16M16 18L10.5 17M7.5 13L6 8M8 5.5C8 6.88071 6.88071 8 5.5 8C4.11929 8 3 6.88071 3 5.5C3 4.11929 4.11929 3 5.5 3C6.88071 3 8 4.11929 8 5.5ZM11 15.5C11 16.8807 9.88071 18 8.5 18C7.11929 18 6 16.8807 6 15.5C6 14.1193 7.11929 13 8.5 13C9.88071 13 11 14.1193 11 15.5ZM18 7.5C18 8.88071 16.8807 10 15.5 10C14.1193 10 13 8.88071 13 7.5C13 6.11929 14.1193 5 15.5 5C16.8807 5 18 6.11929 18 7.5ZM21 18.5C21 19.8807 19.8807 21 18.5 21C17.1193 21 16 19.8807 16 18.5C16 17.1193 17.1193 16 18.5 16C19.8807 16 21 17.1193 21 18.5Z" stroke="currentColor" stroke-width="2" stroke-linecap="round" stroke-linejoin="round"/>
</svg>