<svg width="86" height="36" viewBox="0 0 86 36" fill="none" xmlns="http://www.w3.org/2000/svg">
<path d="M85.0509 25.6733C85.2389 25.6733 85.3956 25.7012 85.5213 25.7566C85.6469 25.8119 85.7413 25.889 85.8046 25.9873C85.8678 26.0849 85.8995 26.1972 85.8995 26.3245C85.8995 26.4237 85.8796 26.5109 85.8397 26.5862C85.7997 26.6606 85.7447 26.7219 85.6748 26.7699C85.6058 26.817 85.5266 26.8505 85.4376 26.8703V26.8949C85.5349 26.8991 85.6263 26.9265 85.7112 26.977C85.7968 27.0274 85.8663 27.0981 85.9196 27.189C85.9728 27.2791 85.9995 27.3867 85.9995 27.5115C85.9995 27.6462 85.9656 27.7666 85.8983 27.8724C85.8317 27.9773 85.733 28.0604 85.6024 28.1216C85.4718 28.1827 85.3108 28.2133 85.1195 28.2133H84.0273V25.6733H85.0509ZM84.5676 27.7744H85.0082C85.1588 27.7744 85.2686 27.7457 85.3376 27.6887C85.4067 27.6308 85.4413 27.5541 85.4414 27.4582C85.4414 27.3879 85.4244 27.3257 85.3903 27.272C85.3562 27.2183 85.3074 27.1763 85.2442 27.1457C85.1818 27.1151 85.1073 27.0995 85.0208 27.0995H84.5676V27.7744ZM84.5676 26.7362H84.9681C85.0422 26.7362 85.1082 26.7235 85.1656 26.6978C85.2238 26.6714 85.2696 26.6341 85.3028 26.5862C85.3369 26.5382 85.3539 26.4806 85.3539 26.4137C85.3539 26.322 85.3209 26.2481 85.2552 26.1919C85.1903 26.1357 85.098 26.1074 84.9782 26.1074H84.5676V26.7362Z" fill="white"/>
<path d="M83.0437 25.6735H83.5842V27.3229C83.5842 27.5081 83.5397 27.6702 83.4506 27.8091C83.3624 27.948 83.2389 28.0563 83.0799 28.134C82.921 28.2109 82.7359 28.2493 82.5245 28.2493C82.3123 28.2493 82.1268 28.2109 81.9678 28.134C81.8089 28.0563 81.6853 27.948 81.5971 27.8091C81.5089 27.6702 81.4648 27.5081 81.4648 27.3229V25.6735H82.0053V27.277C82.0053 27.3738 82.0265 27.4598 82.0689 27.535C82.1122 27.6102 82.173 27.6693 82.2512 27.7123C82.3294 27.7553 82.4205 27.7768 82.5245 27.7768C82.6294 27.7768 82.7205 27.7553 82.7979 27.7123C82.8761 27.6693 82.9364 27.6102 82.9788 27.535C83.0221 27.4598 83.0437 27.3738 83.0437 27.277V25.6735Z" fill="white"/>
<path d="M78.8418 28.2134V25.6735H79.3822V26.7214H80.4794V25.6735H81.0186V28.2134H80.4794V27.1642H79.3822V28.2134H78.8418Z" fill="white"/>
<path d="M77.5814 25.6735V28.2134H77.1146L76.0025 26.6148H75.9838V28.2134H75.4434V25.6735H75.9176L77.021 27.2708H77.0435V25.6735H77.5814Z" fill="white"/>
<path d="M73.8453 25.6387C74.0708 25.6387 74.2739 25.6899 74.4545 25.7924C74.6359 25.8941 74.779 26.0423 74.8838 26.2366C74.9895 26.4308 75.0424 26.6664 75.0424 26.9433C75.0424 27.2203 74.9895 27.456 74.8838 27.6503C74.779 27.8446 74.6359 27.9929 74.4545 28.0954C74.2739 28.1971 74.0708 28.2482 73.8453 28.2482C73.6182 28.2482 73.4144 28.1969 73.2338 28.0945C73.0533 27.9919 72.9106 27.8434 72.8058 27.6491C72.7009 27.4548 72.6484 27.2194 72.6484 26.9433C72.6485 26.6664 72.7009 26.4308 72.8058 26.2366C72.9106 26.0423 73.0533 25.8941 73.2338 25.7924C73.4144 25.6899 73.6182 25.6387 73.8453 25.6387ZM73.8453 26.1137C73.7147 26.1137 73.6007 26.1455 73.5034 26.2091C73.406 26.2728 73.3302 26.3663 73.2762 26.4895C73.2229 26.6127 73.1963 26.7639 73.1962 26.9433C73.1962 27.1227 73.2229 27.2742 73.2762 27.3974C73.3302 27.5205 73.406 27.6138 73.5034 27.6775C73.6007 27.7411 73.7146 27.7732 73.8453 27.7732C73.9759 27.7732 74.0898 27.7411 74.1872 27.6775C74.2845 27.6138 74.3599 27.5205 74.4131 27.3974C74.4672 27.2742 74.4943 27.1227 74.4943 26.9433C74.4943 26.7639 74.4672 26.6127 74.4131 26.4895C74.3599 26.3663 74.2845 26.2728 74.1872 26.2091C74.0898 26.1455 73.9759 26.1137 73.8453 26.1137Z" fill="white"/>
<path d="M72.2494 25.6735V28.2134H71.709V25.6735H72.2494Z" fill="white"/>
<path d="M69.2637 26.1162V25.6735H71.363V26.1162H70.5805V28.2134H70.0463V26.1162H69.2637Z" fill="white"/>
<path d="M69.3662 28.2136H68.7871L68.5977 27.6345H67.6748L67.4854 28.2136H66.9062L67.7891 25.6736H68.4854L69.3662 28.2136ZM67.8125 27.2146H68.4609L68.1465 26.2537H68.127L67.8125 27.2146Z" fill="white"/>
<path d="M64.9121 26.1162V25.6735H67.0115V26.1162H66.2289V28.2134H65.6947V26.1162H64.9121Z" fill="white"/>
<path d="M63.5289 25.6387C63.7543 25.6387 63.9575 25.6899 64.1381 25.7924C64.3195 25.8941 64.4626 26.0423 64.5674 26.2366C64.6731 26.4308 64.726 26.6664 64.726 26.9433C64.726 27.2203 64.6731 27.456 64.5674 27.6503C64.4626 27.8446 64.3194 27.9929 64.1381 28.0954C63.9575 28.1971 63.7544 28.2482 63.5289 28.2482C63.3018 28.2482 63.0979 28.1969 62.9174 28.0945C62.7369 27.9919 62.5942 27.8434 62.4894 27.6491C62.3845 27.4548 62.332 27.2194 62.332 26.9433C62.332 26.6664 62.3845 26.4308 62.4894 26.2366C62.5942 26.0423 62.7369 25.8941 62.9174 25.7924C63.098 25.6899 63.3018 25.6387 63.5289 25.6387ZM63.5289 26.1137C63.3983 26.1137 63.2843 26.1455 63.187 26.2091C63.0896 26.2728 63.0138 26.3663 62.9597 26.4895C62.9065 26.6127 62.8798 26.7639 62.8798 26.9433C62.8798 27.1227 62.9065 27.2742 62.9597 27.3974C63.0138 27.5205 63.0896 27.6138 63.187 27.6775C63.2843 27.7411 63.3982 27.7732 63.5289 27.7732C63.6595 27.7732 63.7734 27.7411 63.8708 27.6775C63.9681 27.6138 64.0435 27.5205 64.0967 27.3974C64.1508 27.2742 64.1779 27.1227 64.1779 26.9433C64.1779 26.7639 64.1508 26.6127 64.0967 26.4895C64.0435 26.3663 63.9681 26.2728 63.8708 26.2091C63.7734 26.1455 63.6595 26.1137 63.5289 26.1137Z" fill="white"/>
<path d="M61.931 25.6735V28.2134H61.4642L60.3521 26.6148H60.3334V28.2134H59.793V25.6735H60.2673L61.3706 27.2708H61.3931V25.6735H61.931Z" fill="white"/>
<path d="M59.3451 25.6735V28.2134H58.8783L57.7662 26.6148H57.7475V28.2134H57.207V25.6735H57.6813L58.7847 27.2708H58.8071V25.6735H59.3451Z" fill="white"/>
<path d="M56.8995 28.2133H56.3204L56.1311 27.6341H55.2082L55.0186 28.2133H54.4395L55.322 25.6733H56.0183L56.8995 28.2133ZM55.3455 27.2149H55.9942L55.6802 26.2537H55.6601L55.3455 27.2149Z" fill="white"/>
<path d="M53.4581 28.2133H52.879L52.6897 27.6341H51.7668L51.5772 28.2133H50.998L51.8805 25.6733H52.5769L53.4581 28.2133ZM51.9041 27.2149H52.5528L52.2388 26.2537H52.2187L51.9041 27.2149Z" fill="white"/>
<path d="M49.002 26.1162V25.6735H51.1013V26.1162H50.3187V28.2134H49.7845V26.1162H49.002Z" fill="white"/>
<path d="M49.1046 28.2133H48.5255L48.3362 27.6341H47.4133L47.2237 28.2133H46.6445L47.527 25.6733H48.2234L49.1046 28.2133ZM47.5505 27.2149H48.1992L47.8852 26.2537H47.8652L47.5505 27.2149Z" fill="white"/>
<path d="M45.2832 25.6736C45.5402 25.6736 45.7618 25.7243 45.9473 25.8259C46.1327 25.9268 46.2752 26.0722 46.375 26.2615C46.4756 26.4508 46.5264 26.6775 46.5264 26.9412C46.5263 27.2055 46.4756 27.4327 46.375 27.6228C46.2751 27.813 46.1316 27.9596 45.9443 28.0613C45.758 28.1629 45.5349 28.2136 45.2754 28.2136H44.3691V25.6736H45.2832ZM44.9092 27.7537H45.2529C45.4126 27.7536 45.5473 27.7249 45.6562 27.6687C45.7659 27.6117 45.8485 27.5239 45.9033 27.405C45.959 27.2852 45.9863 27.1304 45.9863 26.9412C45.9863 26.7537 45.9589 26.6002 45.9033 26.4812C45.8484 26.3621 45.7662 26.2738 45.6572 26.2175C45.5482 26.1613 45.4136 26.1335 45.2539 26.1335H44.9092V27.7537Z" fill="white"/>
<path d="M42.2188 28.2134V25.6735H43.9412V26.1162H42.7592V26.7214H43.8526V27.1642H42.7592V27.7706H43.9462V28.2134H42.2188Z" fill="white"/>
<path d="M41.2399 26.4945C41.2224 26.4341 41.1979 26.3808 41.1663 26.3345C41.1346 26.2874 41.096 26.2477 41.0502 26.2154C41.0053 26.1824 40.9537 26.1571 40.8954 26.1398C40.838 26.1224 40.7743 26.1137 40.7045 26.1137C40.5738 26.1137 40.459 26.146 40.36 26.2105C40.2618 26.275 40.1852 26.3688 40.1303 26.492C40.0754 26.6144 40.0479 26.764 40.0479 26.9409C40.0479 27.1179 40.075 27.2683 40.1291 27.3924C40.1831 27.5164 40.2597 27.6111 40.3587 27.6764C40.4577 27.7409 40.5746 27.7731 40.7094 27.7731C40.8318 27.7731 40.9362 27.7516 41.0227 27.7086C41.1101 27.6648 41.1767 27.6032 41.2224 27.5238C41.269 27.4445 41.2923 27.3506 41.2923 27.2423L41.4022 27.2584H40.7431V26.8541H41.8128V27.1741C41.8128 27.3973 41.7654 27.5891 41.6705 27.7495C41.5757 27.9091 41.445 28.0323 41.2786 28.1191C41.1122 28.2051 40.9216 28.2481 40.707 28.2481C40.4673 28.2481 40.2568 28.1956 40.0754 28.0906C39.894 27.9848 39.7525 27.8347 39.651 27.6404C39.5503 27.4453 39.5 27.2138 39.5 26.9459C39.5 26.74 39.53 26.5565 39.5899 26.3953C39.6506 26.2332 39.7355 26.096 39.8445 25.9835C39.9535 25.8711 40.0804 25.7855 40.2252 25.7268C40.37 25.6681 40.5268 25.6387 40.6957 25.6387C40.8405 25.6387 40.9753 25.6598 41.1001 25.702C41.2249 25.7433 41.3356 25.802 41.4321 25.8781C41.5295 25.9542 41.6089 26.0447 41.6705 26.1497C41.7321 26.2539 41.7716 26.3688 41.7891 26.4945H41.2399Z" fill="white"/>
<path d="M39.0971 25.6735V28.2134H38.6302L37.5181 26.6148H37.4994V28.2134H36.959V25.6735H37.4333L38.5366 27.2708H38.5591V25.6735H39.0971Z" fill="white"/>
<path d="M36.5151 25.6735V28.2134H35.9746V25.6735H36.5151Z" fill="white"/>
<path d="M72.6016 23.0433V7.7879H76.2946V13.9109H82.3153V7.7879H86.0009V23.0433H82.3153V16.9128H76.2946V23.0433H72.6016Z" fill="white"/>
<path d="M70.9559 23.0434H66.9868L65.9796 19.8401H60.7029L59.6976 23.0434H55.7285L60.8837 7.7879H65.8004L70.9559 23.0434ZM61.5815 17.0396H65.0988L63.3982 11.6315H63.2787L61.5815 17.0396Z" fill="white"/>
<path d="M47.5896 7.7879C49.1463 7.78792 50.4868 8.09344 51.6108 8.70424C52.7398 9.31008 53.6104 10.184 54.2221 11.3262C54.8339 12.4633 55.1397 13.8239 55.1397 15.408C55.1397 16.9971 54.8339 18.3629 54.2221 19.5051C53.6154 20.6472 52.7473 21.5237 51.6183 22.1345C50.4893 22.7403 49.1488 23.0433 47.5971 23.0434H41.9492V7.7879H47.5896ZM45.642 19.8997H47.455C48.3105 19.8997 49.0343 19.7557 49.6261 19.4676C50.2229 19.1746 50.673 18.7004 50.9764 18.0449C51.2848 17.3844 51.4391 16.5054 51.4391 15.408C51.4391 14.3106 51.2848 13.4366 50.9764 12.7861C50.6681 12.1306 50.2129 11.6588 49.6111 11.3708C49.0143 11.0778 48.2782 10.9312 47.4029 10.9312H45.642V19.8997Z" fill="white"/>
<path d="M39.6305 7.7879V23.0433H35.9375V7.7879H39.6305Z" fill="white"/>
<path d="M7.61719 5.21191H14.0227V11.6059H7.61719V5.21191Z" fill="#2291EA"/>
<path d="M3.63477 11.606H7.61658V18H3.63477V11.606Z" fill="#2291EA"/>
<path d="M0 7.97693H3.63557V11.606H0V7.97693Z" fill="#2291EA"/>
<path fill-rule="evenodd" clip-rule="evenodd" d="M14.0227 11.6059L20.4282 5.21191C24.922 5.21191 28.565 8.84833 28.565 13.3341V22.1475C28.565 26.9195 24.6895 30.7881 19.9089 30.7881H7.61719V18L14.0227 11.6059ZM14.0231 11.6059H20.4286V24.394H14.0231V11.6059Z" fill="#2291EA"/>
</svg>
