<svg width="24" height="24" viewBox="0 0 24 24" fill="none" xmlns="http://www.w3.org/2000/svg">
<g clip-path="url(#clip0_1510_102)">
<path d="M5 17.5L2.5 7V6L13.5 9L14.5 15L15.5 14L18 16.5L12.5 22L10 20L10.5 19L5 17.5Z" fill="white"/>
<path d="M1.29272 5.29297C1.53849 5.0472 1.89508 4.94572 2.23413 5.02734L13.8347 7.82715C13.8478 7.8303 13.861 7.83467 13.8738 7.83887L13.9421 7.86133L13.9724 7.87207C14.2448 7.98136 14.4548 8.20501 14.5476 8.48242L14.5798 8.60449L15.4607 13.0098C15.5064 13.0034 15.5528 13 15.5994 13C15.8648 13 16.1192 13.106 16.3064 13.293L18.7068 15.6934L18.7761 15.7695C19.0958 16.1621 19.0729 16.7413 18.7068 17.1074L13.1072 22.707C12.7165 23.0976 12.0834 23.0969 11.6931 22.707L9.29272 20.3066C9.10574 20.1194 8.99976 19.8651 8.99976 19.5996L9.00464 19.501C9.00598 19.4875 9.00862 19.4743 9.0105 19.4609L4.60425 18.5801C4.22461 18.5042 3.9199 18.2151 3.82788 17.835L1.02808 6.23438H1.0271C0.94542 5.89533 1.047 5.53877 1.29272 5.29297ZM11.4138 19.5996L12.4001 20.5859L16.5857 16.4004L15.5994 15.4141L11.4138 19.5996ZM8.21069 10.7969C8.51518 10.6708 8.8491 10.5996 9.19995 10.5996C10.636 10.5997 11.7996 11.7646 11.7996 13.2002C11.7994 14.5463 10.7766 15.6531 9.46558 15.7861L9.19995 15.7998C7.76443 15.7997 6.5995 14.6362 6.59937 13.2002C6.59937 12.8494 6.67055 12.5154 6.79663 12.2109L3.80542 9.21973L5.62183 16.7441L10.4695 17.7139L13.7136 14.4697L12.7439 9.62207L5.21948 7.80566L8.21069 10.7969ZM9.07886 12.6123C8.80556 12.6685 8.59937 12.9104 8.59937 13.2002L8.61206 13.3213C8.66823 13.5941 8.90989 13.7997 9.19995 13.7998C9.53121 13.7997 9.79946 13.5314 9.79956 13.2002L9.78784 13.0791C9.73187 12.8054 9.48946 12.5997 9.19995 12.5996L9.07886 12.6123ZM19.1072 1.00977C19.6114 1.061 20.0046 1.48713 20.0046 2.00488V4H21.9998C22.552 4 22.9998 4.44772 22.9998 5C22.9998 5.55228 22.552 6 21.9998 6H20.0046V8.00488C20.0046 8.52263 19.6114 8.94877 19.1072 9L19.0046 9.00488C18.4527 9.0047 18.0046 8.55721 18.0046 8.00488V6H15.9998C15.4476 5.99988 14.9998 5.55221 14.9998 5C14.9998 4.44779 15.4476 4.00012 15.9998 4H18.0046V2.00488C18.0046 1.45255 18.4527 1.00507 19.0046 1.00488L19.1072 1.00977Z" fill="#3D3D3D" stroke="white" stroke-linecap="round" stroke-linejoin="round"/>
</g>
<defs>
<clipPath id="clip0_1510_102">
<rect width="24" height="24" fill="white"/>
</clipPath>
</defs>
</svg>
