<svg width="24" height="24" viewBox="0 0 24 24" fill="none" xmlns="http://www.w3.org/2000/svg">
<path d="M1.46948 5.46973C1.6539 5.28531 1.92141 5.20935 2.17554 5.27051L13.7761 8.07031C13.7826 8.07188 13.7893 8.07408 13.7957 8.07617L13.864 8.09863L13.8787 8.10352C14.1119 8.19702 14.2847 8.40323 14.3347 8.65332L15.2693 13.3271C15.3713 13.2771 15.484 13.2501 15.5994 13.25C15.7983 13.25 15.9892 13.3294 16.1296 13.4697L18.53 15.8701L18.5818 15.9268C18.8219 16.2212 18.8047 16.656 18.53 16.9307L12.9304 22.5303C12.6375 22.8231 12.1626 22.8227 11.8699 22.5303L9.46948 20.1299C9.32917 19.9894 9.24976 19.7986 9.24976 19.5996L9.2644 19.4521C9.27721 19.3884 9.30028 19.3277 9.32886 19.2695L4.65308 18.335C4.36786 18.2779 4.13897 18.061 4.07007 17.7764L1.27026 6.17578C1.20905 5.92166 1.2851 5.65418 1.46948 5.46973ZM11.0603 19.5996L12.4001 20.9395L16.9392 16.4004L15.5994 15.0605L11.0603 19.5996ZM8.15601 11.0957C8.47013 10.9391 8.82449 10.8496 9.19995 10.8496C10.4978 10.8497 11.5496 11.9025 11.5496 13.2002C11.5494 14.4169 10.6251 15.4178 9.44019 15.5381L9.19995 15.5498C7.90237 15.5497 6.84948 14.498 6.84937 13.2002C6.84937 12.8248 6.93889 12.4704 7.09546 12.1562L3.35327 8.41406L5.41577 16.958L10.5515 17.9854L13.9851 14.5518L12.9578 9.41602L4.41382 7.35352L8.15601 11.0957ZM9.11304 12.3545C8.68448 12.3982 8.34937 12.7602 8.34937 13.2002L8.35425 13.2871C8.39793 13.7153 8.75982 14.0497 9.19995 14.0498C9.66926 14.0497 10.0495 13.6695 10.0496 13.2002L10.0457 13.1133C10.0022 12.6845 9.63979 12.3497 9.19995 12.3496L9.11304 12.3545ZM21.9998 4.25C22.414 4.25 22.7498 4.58579 22.7498 5C22.7498 5.41421 22.414 5.75 21.9998 5.75H15.9998C15.5856 5.74988 15.2498 5.41414 15.2498 5C15.2498 4.58586 15.5856 4.25012 15.9998 4.25H21.9998Z" fill="#3D3D3D" stroke="white" stroke-width="0.5" stroke-linecap="round" stroke-linejoin="round"/>
</svg>
