<svg width="150" height="124" viewBox="0 0 150 124" fill="none" xmlns="http://www.w3.org/2000/svg">
<path d="M0.000230074 78.9942C1.78849 79.8883 3.57675 80.7825 5.365 81.6766C6.54515 79.2045 7.7253 76.7325 8.90545 74.2604C11.9392 67.9056 14.973 61.5507 18.0067 55.1959L16.5078 56.4548C40.2448 48.8963 63.9819 41.3377 87.7189 33.7791L88.4145 33.5852L88.4995 32.8277C89.003 16.1075 102.067 -1.92819 120.529 0.736675C123.277 0.921387 125.922 1.35161 128.641 1.98529C125.946 1.25476 123.314 0.723914 120.554 0.43784C102.089 -3.08207 87.3612 15.261 86.3092 32.6224L87.0898 31.6711C63.0928 38.3585 39.0957 45.046 15.0987 51.7335L14.0398 52.0707L13.5997 52.9924C10.3361 59.2323 7.07253 65.4722 3.80892 71.7121C2.53935 74.1395 1.26979 76.5669 0.000230074 78.9942Z" fill="black"/>
<ellipse cx="68.2875" cy="119.697" rx="60.3549" ry="3.74875" fill="#9F9E9E"/>
<path fill-rule="evenodd" clip-rule="evenodd" d="M109.151 82.4006C120.651 83.9448 139.034 73.2089 142.651 42.9446C149.024 -10.3758 93.1514 -10.0558 87.4044 33.8478L14.3037 57.1793L2.68262 82.4006L17.6776 89.5237L32.6726 77.424L46.1681 85.6698L64.9119 68.8019L75.0335 77.424L89.1514 61.4448C92.9001 74.192 97.6514 80.8564 109.151 82.4006ZM128.123 43.5778C126.164 53.9111 119.236 61.2756 112.651 60.0267C106.066 58.7779 102.316 49.3887 104.275 39.0554C106.235 28.722 113.162 21.3576 119.747 22.6064C126.333 23.8552 130.083 33.2444 128.123 43.5778Z" fill="#3A81F6"/>
<path d="M93.2597 63.3017C92.8561 62.9101 92.4526 62.5185 92.0491 62.1269C87.8028 66.2569 83.5678 70.3978 79.3439 74.5496L81.1326 74.4647C80.7041 74.0819 80.2755 73.6992 79.8468 73.3167C76.968 70.7473 74.0848 68.183 71.1974 65.6237L70.1747 64.7173L69.0937 65.6523C62.7352 71.1522 56.3978 76.6753 50.0813 82.2218L52.4601 82.002C47.9951 79.1985 43.5236 76.4056 39.0458 73.6233L37.7706 72.8309L36.5699 73.785C31.5413 77.7807 26.5242 81.7907 21.5186 85.8149L23.8904 85.5344C22.0634 84.6625 20.2356 83.7922 18.407 82.9236C15.2373 81.4179 12.0672 79.9127 8.89694 78.408L9.97379 81.3786C13.8446 72.9701 17.7115 64.5599 21.5747 56.1479L20.1242 57.3675C44.4829 50.874 68.8336 44.3502 93.1762 37.796L94.6056 37.4227L94.6874 35.9324C94.7779 20.0006 106.683 3.59443 122.986 4.08511C139.875 4.04053 147.966 23.5413 145.899 39.3436C144.876 56.4289 136.389 76.6492 118.436 79.3788L118.451 79.3777C117.145 79.4728 115.763 79.3947 114.419 79.2114C108.263 78.3963 102.282 75.0232 99.4005 69.4473C98.9017 69.707 98.403 69.9668 97.9043 70.2265C100.947 76.4125 107.494 80.2529 114.121 81.2389C115.582 81.4637 117.071 81.5803 118.591 81.4984L118.605 81.4973C138.596 78.731 147.525 57.1829 148.874 39.6007C151.374 23.4472 142.938 0.731759 123.094 0.474936C104.214 -0.292982 90.7729 18.5385 90.6213 35.7244L92.1325 33.8607C67.7414 40.2322 43.3583 46.6339 18.9833 53.066L17.9687 53.3365L17.5328 54.2856C13.6485 62.6878 9.76807 71.0918 5.89145 79.4975L4.96226 81.516L6.96829 82.4681C10.1375 83.9749 13.307 85.4812 16.4768 86.9869C18.3054 87.8556 20.1347 88.7225 21.9649 89.5879L23.2437 90.1925L24.3367 89.3074C29.3277 85.2651 34.3073 81.2086 39.2754 77.1379L36.7995 77.2996C41.3186 80.0145 45.8442 82.7188 50.3762 85.4126L51.6777 86.1862L52.7549 85.1927C58.9343 79.4939 65.0927 73.7718 71.2301 68.0263L69.1263 68.0549C72.1121 70.4988 75.1022 72.9376 78.0966 75.3713C78.5424 75.7337 78.9884 76.096 79.4344 76.4582L80.4108 77.2509L81.2231 76.3733C85.2465 72.027 89.2586 67.6697 93.2597 63.3017Z" fill="black"/>
<path d="M109.151 37.945C109.704 36.7363 110.298 35.5992 110.949 34.5324C112.453 32.0751 114.349 29.7778 116.809 28.6254C119.261 27.4118 122.117 28.0918 123.902 30.0164C127.566 33.9551 127.842 40.1984 126.439 45.454C126.205 46.3355 125.934 47.1781 125.607 48.0449C123.824 52.7146 120.812 57.9297 115.966 58.223C111.015 58.3059 108.035 52.3565 107.686 47.3008C107.569 46.0097 107.562 44.7538 107.649 43.4451C107.413 44.7353 107.276 45.9951 107.259 47.3176C107.122 52.3831 109.379 59.4445 115.954 59.9396C122.422 59.7665 125.73 53.7188 127.696 48.8444C128.058 47.9082 128.358 46.9927 128.613 46.0298C130.127 40.2867 129.799 33.2851 125.148 28.7253C122.892 26.4577 118.937 25.8548 116.251 27.5357C113.531 29.1012 111.845 31.6915 110.573 34.3296C110.031 35.4783 109.564 36.6816 109.151 37.945Z" fill="black"/>
</svg>
