<svg width="120" height="120" viewBox="0 0 120 120" fill="none" xmlns="http://www.w3.org/2000/svg">
<path d="M12.3176 69.6717C14.1059 70.5658 15.8941 71.46 17.6824 72.3541C18.4045 70.7982 19.1265 69.2423 19.8486 67.6864C21.7048 63.6866 23.561 59.6869 25.4172 55.6872L23.9183 56.9461C38.7295 52.0514 53.5407 47.1567 68.3519 42.262L69.0378 42.0789L69.1324 41.3107C69.3451 30.9634 77.2123 19.7302 88.769 21.2386C90.4876 21.3353 92.1454 21.5858 93.8519 21.9644C92.1697 21.4889 90.5239 21.1378 88.7942 20.9397C77.2345 18.5763 67.7033 30.1169 66.9422 41.1053L67.7227 40.154C52.6516 44.1776 37.5804 48.2012 22.5092 52.2247L21.4288 52.5818L21.0102 53.4837C18.9242 57.3685 16.8381 61.2533 14.7521 65.1381C13.9406 66.6493 13.1291 68.1605 12.3176 69.6717Z" fill="black"/>
<ellipse cx="56.0698" cy="95.6534" rx="37.7832" ry="2.34678" fill="#9F9E9E"/>
<path fill-rule="evenodd" clip-rule="evenodd" d="M81.6513 72.3058C88.8505 73.2725 100.358 66.5516 102.623 47.6056C106.612 14.2261 71.635 14.4264 68.0373 41.9109L22.275 56.5168L15 72.3058L24.3871 76.765L33.7743 69.1903L42.2227 74.3524L53.9566 63.7927L60.2929 69.1903L69.131 59.1871C71.4777 67.167 74.4521 71.3391 81.6513 72.3058ZM93.5279 48.002C92.3012 54.4709 87.9647 59.0811 83.8421 58.2993C79.7196 57.5176 77.372 51.6398 78.5987 45.1709C79.8254 38.7021 84.1619 34.0918 88.2845 34.8736C92.4071 35.6554 94.7547 41.5332 93.5279 48.002Z" fill="#3A81F6"/>
<path d="M71.9292 60.5693C71.5257 60.1777 71.1222 59.7861 70.7186 59.3944C68.0146 61.9354 65.3217 64.4873 62.6399 67.05L64.4286 66.9651C64.1636 66.7216 63.8986 66.4782 63.6335 66.2349C61.8528 64.6011 60.0679 62.9723 58.2787 61.3486L57.281 60.4431L56.175 61.3772C52.1532 64.7743 48.1523 68.1947 44.1725 71.6384L46.5512 71.4186C43.7686 69.6431 40.9795 67.8781 38.184 66.1236L36.9207 65.3308L35.7081 66.2854C32.5488 68.7727 29.401 71.2744 26.2647 73.7902L28.6365 73.5097C27.4934 72.9626 26.3494 72.4172 25.2047 71.8735C23.2204 70.9308 21.2358 69.9888 19.2509 69.0472L20.3278 72.0178C22.7499 66.7534 25.1681 61.4873 27.5826 56.2195L26.1321 57.4391C41.378 53.3625 56.6159 49.2557 71.8458 45.1185L73.2715 44.7495L73.357 43.2548C73.4022 33.5158 80.5682 23.6987 90.2921 23.9541C100.312 23.8698 105.313 35.4764 104.099 45.3033C103.52 55.9061 98.2901 68.3161 87.432 70.018L87.4468 70.0169C86.669 70.0789 85.8239 70.0372 85.0044 69.9302C81.2387 69.4519 77.601 67.4276 75.8269 64.0511C75.3281 64.3109 74.8294 64.5706 74.3307 64.8304C76.2653 68.817 80.4697 71.3085 84.7064 71.9577C85.6434 72.1062 86.5958 72.1864 87.5867 72.1376L87.6015 72.1365C100.497 70.3979 106.169 56.6601 107.074 45.5604C108.721 35.3824 103.375 20.561 90.3999 20.3439C78.0984 19.8113 69.3972 32.0537 69.2909 43.0468L70.802 41.1832C55.5237 45.1376 40.2534 49.1224 24.9912 53.1375L23.9752 53.4092L23.5407 54.3571C21.1051 59.6152 18.6734 64.8751 16.2455 70.1368L15.3165 72.1558L17.3223 73.1073C19.3061 74.051 21.2902 74.9942 23.2745 75.9368C24.4192 76.4806 25.5647 77.0227 26.711 77.5632L27.9926 78.1675L29.0828 77.2826C32.2046 74.7488 35.3149 72.2006 38.4136 69.6383L35.9377 69.8C38.7745 71.4869 41.6177 73.1633 44.4674 74.8291L45.7869 75.6005L46.8461 74.6093C50.6889 71.0133 54.5107 67.3939 58.3114 63.7512L56.2077 63.7798C58.0952 65.2881 59.9871 66.7914 61.8832 68.2896C62.1655 68.5127 62.448 68.7357 62.7305 68.9585L63.7319 69.7485L64.5191 68.8737C67.0003 66.1164 69.4704 63.3483 71.9292 60.5693Z" fill="black"/>
<path d="M81.651 44.4756C82.0234 43.7291 82.4191 43.0297 82.8473 42.3772C84.5992 39.2949 88.5147 37.0994 90.653 39.7536C92.7615 42.1031 92.925 45.8698 92.0672 49.0687C91.9248 49.6053 91.7602 50.1191 91.5621 50.6488C90.4805 53.5339 88.6499 56.6429 85.92 56.849C83.124 57.009 81.1235 53.4925 80.8142 50.3294C80.716 49.527 80.6841 48.7415 80.7108 47.9188C80.5354 48.723 80.4229 49.5124 80.3872 50.3461C80.2103 53.5191 81.4879 58.1475 85.9078 58.5656C90.26 58.4797 92.386 54.538 93.6515 51.4483C93.8847 50.8493 94.0775 50.2625 94.2415 49.6445C95.2095 45.958 94.995 41.4331 91.8983 38.4625C90.3983 36.9788 87.7172 36.6157 85.9913 37.7554C84.2405 38.8127 83.224 40.4891 82.4711 42.1744C82.1521 42.9088 81.8838 43.6745 81.651 44.4756Z" fill="black"/>
</svg>
