<svg width="120" height="120" viewBox="0 0 120 120" fill="none" xmlns="http://www.w3.org/2000/svg">
<path d="M92.7362 32.2434C93.5374 32.6717 94.7988 33.3858 95.5394 33.8303L96.8858 34.6384L96.9943 36.4109C97.0538 37.3859 97.1038 39.0885 97.1052 40.1946L97.1076 42.2054L98.0802 42.5795C99.5158 43.1317 99.4601 43.1678 99.6821 41.5426C99.8302 40.4578 100.157 39.8538 100.81 39.4553C101.504 39.0323 102.034 39.0456 102.786 39.5043C103.388 39.8717 104.585 41.2722 104.585 41.61C104.585 41.7051 104.909 41.5547 105.305 41.2755C106.764 40.2469 108.135 40.5444 108.148 41.8925C108.152 42.2475 108.092 42.7924 108.014 43.1033C107.889 43.6043 107.906 43.6558 108.166 43.556C108.328 43.494 108.711 43.5261 109.017 43.6272C109.769 43.8752 109.938 44.5971 109.494 45.6556C109.386 45.9121 109.479 45.9465 110.283 45.9465C112.021 45.9465 112.869 46.3562 112.177 46.8618C111.766 47.1623 111.839 47.2765 112.441 47.278C113.266 47.28 115.56 47.872 115.844 48.1561C116.07 48.3813 116.055 48.4306 115.706 48.6171C115.399 48.7815 113.397 48.8016 106.305 48.7116C101.349 48.6488 97.261 48.6557 97.22 48.727C97.1791 48.7985 97.1822 49.6421 97.2271 50.6021L97.3088 52.348H103.67L106.289 53.6684C107.73 54.3945 108.908 55.0402 108.908 55.103C108.908 55.166 109.129 55.3091 109.4 55.4211C109.719 55.5533 109.948 55.8082 110.054 56.1479C110.147 56.4437 110.268 60.7053 110.333 65.9407L110.448 75.2104H110.052C109.834 75.2104 109.132 75.0592 108.492 74.8741C107.852 74.6892 106.424 74.4498 105.318 74.342L103.307 74.146L103.198 68.9148C103.138 66.0376 103.089 61.2638 103.089 58.3067V52.93H97.269V53.9276H101.881L101.97 54.5933C102.129 55.7797 102.049 55.8636 100.639 55.9828C99.9468 56.0413 98.9052 56.0891 98.3246 56.0891C97.7318 56.0891 97.2692 56.162 97.269 56.2554C97.269 56.3583 98.1586 56.4217 99.6051 56.4217H101.941L101.891 57.3777C101.843 58.3094 101.829 58.3346 101.343 58.3677C101.068 58.3864 100.04 58.4497 99.0564 58.5083C97.6837 58.5905 97.269 58.6694 97.269 58.8487C97.2691 59.0378 97.7072 59.082 99.579 59.082C102.095 59.082 102.091 59.0804 102.091 60.0797C102.091 61.0789 102.095 61.0773 99.579 61.0773C97.608 61.0773 97.2691 61.1149 97.269 61.3338C97.269 61.5538 97.5931 61.587 99.535 61.5664C101.991 61.5401 102.084 61.5725 102.088 62.4601C102.094 63.5202 101.974 63.5714 99.4962 63.5714C97.2578 63.5714 97.2462 63.5734 97.2989 63.9455C97.3511 64.3131 97.3926 64.3196 99.68 64.3196H102.008V66.1486L99.6384 66.1947C97.7046 66.2324 97.2691 66.285 97.269 66.4811C97.269 66.6773 97.7045 66.73 99.6384 66.7677L102.008 66.8137L102.062 67.3771C102.091 67.687 102.071 68.1172 102.017 68.3332C101.919 68.7225 101.899 68.7258 99.5816 68.7258C97.4455 68.7258 97.2495 68.7508 97.3005 69.0168C97.3501 69.275 97.6231 69.313 99.7319 69.354L102.107 69.4003L102.008 71.303L99.7215 71.3493C97.8407 71.3874 97.4353 71.4389 97.4353 71.6403C97.4353 71.8441 97.8247 71.885 99.7631 71.885H102.091V72.78C102.091 73.876 102.094 73.8748 99.4085 73.878C97.4779 73.8803 97.4738 73.8811 97.3945 74.2959L97.3151 74.7116H101.72C105.541 74.7116 106.292 74.7545 107.392 75.0355C108.088 75.2136 109.781 75.6346 111.153 75.971C112.524 76.3073 113.739 76.6682 113.852 76.7726C114.18 77.0771 114.376 79.7228 114.569 86.4573C114.669 89.9196 114.803 92.8063 114.867 92.8723C114.932 92.9383 116.099 93.0131 117.461 93.0385C119.067 93.0685 119.959 93.1485 119.998 93.2663C120.087 93.5337 116.537 93.6666 109.307 93.6666C94.285 93.6666 79.2646 93.5001 64.2428 93.4992C52.8234 93.4985 42.9749 93.4504 42.3577 93.392C41.5763 93.3182 41.2354 93.2176 41.2354 93.0606C41.2354 92.8812 41.7388 92.8352 43.7116 92.8352C45.8162 92.8352 46.203 92.7958 46.2888 92.5722C46.4033 92.2737 46.4282 90.342 46.3175 90.3412C46.2778 90.3412 46.0424 90.4184 45.7947 90.5125C44.452 91.0229 42.9527 89.1882 43.6348 87.8693C43.7773 87.5938 44.057 87.2543 44.2565 87.1146C44.5734 86.8925 44.5945 86.8064 44.4237 86.4315C44.0556 85.6236 44.1813 85.1748 44.9937 84.3963L45.7593 83.6627L45.478 82.9261C45.1994 82.1967 45.201 82.1826 45.6269 81.4555C45.8695 81.0417 46.0572 80.4656 46.0572 80.1352C46.0572 78.9514 46.7397 78.2666 47.509 78.6782C47.8652 78.8691 48.2188 79.8725 48.2188 80.6928C48.2188 81.0694 48.3438 81.33 48.6345 81.5586C49.09 81.9169 49.1508 82.3547 48.8602 83.1884C48.6786 83.7091 48.6982 83.7572 49.2984 84.2612L49.9268 84.7886L49.8096 86.0402C49.7068 87.1355 49.7377 87.3855 50.0565 88.0419C50.4133 88.7765 50.4147 88.805 50.1229 89.4198C49.7003 90.3107 48.9986 90.7093 48.004 90.6235L47.207 90.5548L47.2557 91.6536L47.3043 92.7521L50.7129 92.8469L50.7159 90.2223C50.7209 86.1591 51.2914 76.4395 51.5413 76.159C51.6064 76.0863 52.6613 75.9741 53.886 75.9096L56.1128 75.7924L56.2297 74.961C56.2941 74.5037 56.4641 72.4461 56.6076 70.3885C56.751 68.3309 56.9411 66.1236 57.0301 65.4835C57.1192 64.8433 57.3075 62.6734 57.4488 60.6616C57.7165 56.8503 57.9728 54.6198 58.1818 54.2816C58.2948 54.099 59.1574 53.9706 62.5182 53.6361L63.7652 53.5119L63.8841 52.4311C63.9494 51.8366 64.1199 49.5546 64.2627 47.3598C64.4056 45.1651 64.5909 42.5088 64.6747 41.4572C64.7585 40.4055 64.9108 38.2731 65.0132 36.7184C65.1311 34.9267 65.2811 33.7659 65.4227 33.5474C65.6153 33.2506 65.9313 33.1749 67.6987 33.002C68.8276 32.8916 70.3872 32.7145 71.1646 32.6087C75.1546 32.0653 83.3229 31.9604 85.4457 31.7384C85.867 31.6942 87.3521 31.6146 88.7456 31.5612L91.2792 31.4645L92.7362 32.2434ZM110.405 86.9314C110.405 87.938 110.455 89.7191 110.514 90.8895L110.623 93.0178L111.387 92.9679L112.15 92.9184L112.102 89.9255C112.076 88.2794 112.012 86.5466 111.96 86.0749L111.867 85.2176L111.136 85.1593L110.405 85.1013L110.405 86.9314ZM99.4377 75.4043C96.3701 75.4196 92.1021 75.4871 89.953 75.5545C77.0043 75.9603 73.4906 76.0482 63.2664 76.2223C57.0492 76.3282 51.9114 76.4619 51.8472 76.5193C51.7852 76.5768 51.6548 79.5418 51.5574 83.1083C51.4601 86.6748 51.3363 90.3223 51.2826 91.2141L51.185 92.8352L52.7364 92.8328C53.5894 92.8313 54.3887 92.7661 54.5126 92.6876C54.6606 92.5939 54.7686 92.0487 54.8282 91.0917C54.9177 89.6582 54.914 89.6408 54.5727 89.8235C53.9418 90.161 53.2175 90.0449 52.6953 89.5226C52.2871 89.1144 52.2093 88.9029 52.2093 88.2009C52.2093 87.4866 52.2818 87.2974 52.7083 86.8988C53.158 86.4785 53.1916 86.3783 53.0491 85.8817C52.8486 85.1824 53.0438 84.6519 53.7335 84.0219L54.2619 83.5393L53.9675 82.8862C53.6809 82.2507 53.6824 82.2117 54.0219 81.4441C54.2139 81.0102 54.3708 80.3336 54.3708 79.9409C54.3708 79.1514 54.9968 78.2033 55.5179 78.2033C56.156 78.2033 56.4451 78.6377 56.5317 79.7267C56.611 80.7237 56.6446 80.7928 57.1681 81.0392C58.1158 81.4853 58.2622 82.0821 57.6963 83.1915C57.4346 83.7046 57.408 83.8797 57.5716 84.0137C57.6858 84.1075 58.0227 84.379 58.3198 84.6171C58.8886 85.0729 58.9861 85.4985 58.6967 86.2602C58.576 86.5776 58.6026 86.864 58.7982 87.3526C59.1774 88.3006 58.9978 89.0328 58.2451 89.6069C57.6234 90.0811 56.981 90.1908 56.1583 89.9628L55.701 89.836L55.7035 91.1279C55.7049 91.8383 55.7662 92.5144 55.8397 92.6302C55.9436 92.7936 57.0464 92.8307 60.7838 92.7964L65.5942 92.7521L65.6773 88.429C65.7538 84.451 65.7372 84.0878 65.4695 83.8778C65.2399 83.6978 65.1785 83.3941 65.1785 82.4361C65.1785 81.2443 65.1867 81.2213 65.6358 81.136C66.8954 80.8967 81.3156 80.4767 81.5143 80.6734C81.743 80.8998 81.7434 83.5707 81.5147 83.6479C81.3553 83.7018 81.3069 84.7781 81.3069 88.2766V92.8352C84.4898 92.8352 104.419 92.7937 104.829 92.7937C104.866 92.6788 104.923 88.7133 104.956 83.9813L105.015 75.3767L99.4377 75.4043ZM108.077 93.0015H110.072V85.0576L109.448 84.9445C109.106 84.8823 108.657 84.791 108.451 84.7417L108.077 84.6519V93.0015ZM66.276 87.1404C66.2196 88.9466 66.1478 90.9666 66.1166 91.6298L66.0597 92.8352H72.94L73.0456 88.4893C73.1034 86.099 73.1109 84.0789 73.0623 83.9999C73.0136 83.9211 71.4898 83.8566 69.6761 83.8566H66.3788L66.276 87.1404ZM79.3532 83.7245C78.5531 83.7433 76.8882 83.7994 75.6537 83.8492L73.409 83.9397L73.3648 88.3875L73.3203 92.8352H80.591L80.6988 90.9647C80.758 89.9359 80.8069 87.8783 80.8073 86.3922L80.8081 83.6903L79.3532 83.7245ZM109.484 89.5098C109.628 89.5098 109.739 89.6543 109.739 89.8423C109.739 90.0252 109.705 90.1748 109.662 90.1749C109.62 90.1749 109.505 90.0252 109.407 89.8423C109.265 89.577 109.281 89.5098 109.484 89.5098ZM110.737 89.7402C110.737 89.4747 110.815 89.3417 110.945 89.3851C111.255 89.4885 111.289 89.9524 110.995 90.0656C110.804 90.1389 110.737 90.0551 110.737 89.7402ZM74.0853 88.6784C74.378 88.6785 74.4021 89.1177 74.1156 89.2334C73.9987 89.2807 74.044 89.3231 74.2191 89.3304C74.4813 89.3415 74.4965 89.3843 74.3165 89.6012C74.1304 89.8255 74.0716 89.8279 73.8635 89.6199C73.7167 89.4729 73.6672 89.2451 73.7357 89.0297C73.7969 88.8365 73.9543 88.6784 74.0853 88.6784ZM71.7692 88.9279C71.9186 88.5383 72.3839 88.6141 72.28 89.011C72.2323 89.1938 72.2585 89.3434 72.3384 89.3435C72.4184 89.3435 72.4427 89.4512 72.3924 89.5825C72.2854 89.8612 71.896 89.7565 71.7645 89.4138C71.7144 89.2836 71.7166 89.065 71.7692 88.9279ZM79.8105 81.0988C79.0331 81.0908 75.5351 81.1571 72.0372 81.2459L65.6773 81.4076V83.524C70.896 83.524 76.106 83.2943 81.3214 83.1389L81.2726 82.126L81.2238 81.1131L79.8105 81.0988ZM111.652 78.4347C110.117 78.1118 110.22 78.0151 110.273 79.7332L110.321 81.2633L111.402 81.4627C111.996 81.5722 112.542 81.6063 112.615 81.5383C112.687 81.4705 112.725 80.7914 112.698 80.0295L112.649 78.6445L111.652 78.4347ZM106.948 79.131L106.996 80.7675L107.994 80.9747C109.772 81.3438 109.686 81.4032 109.779 79.7413C109.824 78.9414 109.795 78.2037 109.716 78.1017C109.636 78.0001 109.216 77.873 108.782 77.8193C108.348 77.7656 107.747 77.6704 107.447 77.6079L106.9 77.4942L106.948 79.131ZM62.8606 54.2838C62.3521 54.2966 61.1505 54.3781 60.1904 54.4647C59.2301 54.5512 58.4237 54.6424 58.3984 54.6674C58.3731 54.6931 58.2424 56.351 58.1079 58.3521C57.9736 60.354 57.7885 62.5903 57.6969 63.322C57.6051 64.0535 57.416 66.4105 57.2765 68.5595C57.1369 70.7086 56.9498 73.0148 56.8607 73.6844C56.7716 74.3541 56.6986 75.0836 56.6986 75.3056V75.7092H59.3493C61.0325 75.7092 62.0393 75.6451 62.1083 75.5335C62.1682 75.4368 62.3567 73.4727 62.5273 71.1689C62.698 68.865 62.8775 66.7181 62.9261 66.398C62.9746 66.0777 63.1314 63.7583 63.2743 61.2436C63.4173 58.7287 63.5908 56.1287 63.6597 55.4656L63.785 54.2601L62.8606 54.2838ZM90.416 32.0048C90.0243 32.0188 88.5953 32.0873 87.2407 32.1573C80.6183 32.5003 75.4566 32.6654 70.7457 33.2085C69.5585 33.3455 67.9456 33.5083 67.1618 33.5705L65.7366 33.6833L65.5288 37.2793C65.4144 39.257 65.2538 41.4363 65.172 42.1223C65.0901 42.8081 64.9058 45.3521 64.7627 47.7755C64.6194 50.1989 64.4328 52.7802 64.3478 53.5119C64.263 54.2435 64.078 56.8249 63.9365 59.2483C63.7949 61.6717 63.605 64.3278 63.5143 65.151C63.2796 67.2829 62.8175 75.3988 62.9248 75.5061C63.0222 75.5994 82.3258 75.2478 87.1264 75.0652L89.8699 74.961L89.9836 70.3885C90.0461 67.8736 90.1784 63.7584 90.2773 61.2436C90.3762 58.7286 90.5668 51.4709 90.7005 45.1152C90.8343 38.7594 90.9852 33.2038 91.0359 32.7695L91.1285 31.9797L90.416 32.0048ZM61.188 67.7954L61.7699 67.8113L61.7621 68.7258C61.7515 69.9653 61.5195 73.7076 61.4246 74.1712C61.3507 74.5318 61.2819 74.5453 59.5222 74.5453H57.6963V74.0533C57.6963 73.7826 57.7749 73.0158 57.8712 72.349C57.9674 71.6823 58.0983 70.4259 58.1621 69.5572L58.2782 67.9776L59.4421 67.8785C60.0823 67.824 60.8679 67.7866 61.188 67.7954ZM58.6939 69.1941C58.6939 69.6345 58.6252 70.4016 58.5414 70.8984C58.4575 71.3954 58.3481 72.307 58.2982 72.9242L58.2076 74.0465H60.9733L61.0813 72.4254C61.1407 71.5336 61.2363 70.2618 61.294 69.5987L61.3989 68.3933H58.6939V69.1941ZM105.074 71.7187C104.988 71.7187 104.918 72.0038 104.918 72.3521V72.9852L106.123 73.3441C106.786 73.5414 107.65 73.7531 108.044 73.8143L108.76 73.9257L108.646 73.4457C108.584 73.1819 108.486 72.9169 108.429 72.8568C108.314 72.7344 105.32 71.7189 105.074 71.7187ZM88.2903 69.8176C88.2903 71.2836 88.2156 72.5451 88.1182 72.7274C87.9711 73.0022 87.7599 73.0493 86.6633 73.0515C85.9578 73.0528 84.333 73.1232 83.0528 73.2078C81.7725 73.2926 77.9565 73.441 74.5729 73.5375C71.1893 73.6339 67.5527 73.743 66.4915 73.7799C65.4302 73.8166 64.4904 73.7982 64.4029 73.7388C64.3039 73.6716 64.2949 72.8467 64.3787 71.5524C64.5647 68.6781 64.6208 68.4115 65.0611 68.3176C65.2628 68.2744 68.5331 68.123 72.3282 67.9808C76.1234 67.8387 80.276 67.647 81.5563 67.5551C82.8366 67.4631 84.4079 67.3668 85.048 67.3411C85.6882 67.3155 86.6797 67.2799 87.2511 67.262L88.2903 67.2294V69.8176ZM99.5376 72.2542C97.7675 72.2151 97.413 72.2485 97.3309 72.4624C97.2772 72.6026 97.28 72.9039 97.3374 73.1323C97.4406 73.5439 97.4582 73.5477 99.2784 73.5477C101.372 73.5477 101.696 73.4421 101.667 72.771L101.647 72.3006L99.5376 72.2542ZM68.1448 68.7584C67.6565 68.7764 66.7568 68.817 66.1456 68.8489L65.0343 68.9067L64.9466 69.7723C64.8984 70.2483 64.8257 71.2551 64.7849 72.0097L64.7112 73.3814H65.4187C65.8078 73.3814 66.693 73.3336 67.3858 73.2751L68.6454 73.1685L68.7342 72.4021C68.7831 71.9805 68.8702 70.9809 68.9278 70.1807L69.0327 68.7258L68.1448 68.7584ZM92.7797 70.1972C92.7797 71.0085 92.7322 72.0195 92.674 72.4437L92.5681 73.2151H94.6087V71.1317C94.6087 69.6099 94.5526 69.0307 94.4008 68.984C94.2866 68.9487 93.8749 68.8753 93.4863 68.8209L92.7797 68.7219V70.1972ZM72.7855 68.5904C72.0311 68.6073 71.0237 68.6485 70.5468 68.682C69.7141 68.7405 69.6767 68.764 69.6037 69.2748C69.484 70.1127 69.2044 73.1277 69.2423 73.1718C69.2621 73.1937 70.3291 73.1637 71.6144 73.1052L73.9525 72.9989L74.0549 72.2524C74.1111 71.8419 74.1572 70.8431 74.1572 70.0328V68.5595L72.7855 68.5904ZM79.1671 68.3869C79.109 68.3379 78.138 68.3516 77.009 68.4174C75.8797 68.4833 74.9095 68.5832 74.8531 68.6394C74.797 68.6964 74.7204 69.7232 74.683 70.9218L74.6151 73.1016L76.1575 72.992C77.006 72.9318 78.0153 72.8826 78.4007 72.8826H79.1014L79.1866 70.6795C79.2335 69.4677 79.2247 68.4361 79.1671 68.3869ZM82.6371 68.1284C81.8598 68.1199 80.9059 68.1428 80.5171 68.1796L79.8105 68.2461V69.0424C79.8105 69.4804 79.761 70.5341 79.7007 71.3842L79.5909 72.9295L81.6984 72.8483C82.8573 72.8038 83.8338 72.7372 83.8684 72.7002C83.9028 72.663 83.9579 71.6229 83.9906 70.3885L84.0504 68.1438L82.6371 68.1284ZM84.6323 69.2834C84.6323 70.0474 84.5844 71.1323 84.5257 71.6943L84.4187 72.7163L85.648 72.7141C86.3239 72.7129 87.0412 72.6679 87.2417 72.6142C87.6821 72.496 87.7433 72.2268 87.8894 69.765L88.0005 67.8944H84.6323V69.2834ZM106.994 69.8975C104.934 69.2376 104.885 69.2403 104.949 70.0082C105 70.6171 105.017 70.6304 106.176 70.9925C106.822 71.1946 107.627 71.4115 107.964 71.4746L108.576 71.5896V70.4043L106.994 69.8975ZM99.6017 69.7234C97.8695 69.7234 97.4061 69.7719 97.3338 69.9608C97.2836 70.0914 97.2673 70.3721 97.2974 70.5843C97.3515 70.9659 97.3787 70.9705 99.5137 70.9705H101.675L101.727 70.3469L101.778 69.7234H99.6017ZM105.125 66.9338C104.982 66.8836 104.918 67.0673 104.918 67.5304C104.918 68.1665 104.952 68.2122 105.624 68.4563C106.013 68.5974 106.705 68.8209 107.162 68.9528C107.619 69.0845 108.125 69.2452 108.285 69.3095C108.535 69.4104 108.576 69.3254 108.576 68.6964V67.9664L106.954 67.4862C106.063 67.2222 105.24 66.9736 105.125 66.9338ZM100.47 67.091C99.8526 67.1065 98.8985 67.1625 98.3498 67.2157C97.4606 67.302 97.3462 67.3553 97.2965 67.7058C97.2659 67.9221 97.3099 68.1682 97.3942 68.2525C97.4837 68.3419 98.389 68.3583 99.5697 68.2914L101.592 68.1771V67.0631L100.47 67.091ZM92.9157 65.4112C92.8835 66.4447 92.9277 67.1247 93.0291 67.1538C93.1205 67.1801 93.5081 67.2453 93.8902 67.2987L94.5851 67.3958L94.6384 65.8755C94.6974 64.1918 94.6248 64.0611 93.4977 63.8265L92.9685 63.7162L92.9157 65.4112ZM83.9673 60.7415C86.4151 60.6115 88.1755 60.6542 88.4949 60.8516C88.7131 60.9877 88.5197 65.7056 88.2842 65.9896C88.1782 66.1173 86.7706 66.2177 84.0098 66.2944C81.7459 66.3574 78.8111 66.4878 77.4877 66.5844C76.1645 66.6808 72.7601 66.7719 69.9223 66.7867L64.7628 66.8137L64.8077 65.4835C64.8324 64.7519 64.8959 63.6516 64.9486 63.0386C65.041 61.9643 65.0635 61.918 65.5687 61.762C65.857 61.6731 68.2255 61.5177 70.8318 61.417C73.4381 61.3162 76.9173 61.1519 78.5634 61.0518C80.2095 60.9515 82.6412 60.8118 83.9673 60.7415ZM105.089 64.4027C104.995 64.4027 104.918 64.6976 104.918 65.0581C104.918 65.4185 105.006 65.7681 105.114 65.8352C105.331 65.9689 107.844 66.7288 108.243 66.7812C108.424 66.8048 108.506 66.6213 108.543 66.1159C108.593 65.4216 108.59 65.4171 107.878 65.2279C107.484 65.1233 106.734 64.8949 106.211 64.7203C105.688 64.5456 105.184 64.4028 105.089 64.4027ZM67.8709 62.1015C67.1674 62.1162 66.3546 62.158 66.0648 62.1943L65.5377 62.2603L65.4344 63.5394C65.3776 64.2428 65.2898 65.1737 65.2392 65.6082L65.1472 66.398L66.7841 66.3956C67.6843 66.3941 68.5163 66.3323 68.633 66.2582C68.8437 66.1245 68.921 65.5992 69.0715 63.2804L69.1497 62.0749L67.8709 62.1015ZM73.3146 61.9809C72.9092 61.9748 71.9343 61.9962 71.1481 62.0285L69.7184 62.0871L69.5685 64.1596L69.4185 66.232L71.6118 66.2319C72.818 66.2319 73.8409 66.1738 73.8849 66.1028C73.9288 66.0318 73.984 65.0777 74.008 63.9828L74.0517 61.9918L73.3146 61.9809ZM62.2645 63.031C62.2127 63.9227 62.1334 64.9598 62.0882 65.3356L62.0059 66.019L60.8904 66.1221C60.2767 66.1788 59.4942 66.1796 59.1512 66.1237L58.5276 66.0219L58.5328 65.0876C58.5387 64.0368 58.8032 61.8033 58.95 61.5655C59.0029 61.4799 59.7915 61.4098 60.7023 61.4098H62.3586L62.2645 63.031ZM78.7969 61.7779C78.5771 61.7974 77.5665 61.8372 76.5513 61.8663L74.7051 61.9192L74.5976 63.4359C74.5382 64.2701 74.4897 65.203 74.4897 65.5092V66.0654L76.5266 66.063C77.6468 66.0615 78.6567 66.0012 78.7709 65.9287C78.9074 65.8419 79.0157 65.1036 79.0876 63.7696L79.1964 61.7424L78.7969 61.7779ZM99.6301 64.569C98.3259 64.569 97.6013 64.6359 97.4686 64.7686C97.3588 64.8783 97.269 65.1776 97.269 65.4336C97.269 65.8784 97.3044 65.8992 98.0588 65.8982C98.4933 65.8977 99.4658 65.8492 100.22 65.7905L101.592 65.6837V64.569H99.6301ZM83.2606 61.6104C82.872 61.6292 81.907 61.6694 81.1164 61.6997L79.6788 61.7549L79.6099 63.7854C79.5722 64.9021 79.5551 65.8378 79.5723 65.8647C79.5892 65.8917 80.5851 65.8619 81.7853 65.7985L83.9673 65.6832V61.5761L83.2606 61.6104ZM86.7736 61.4326C86.0074 61.445 85.2224 61.4862 85.0292 61.5243C84.7328 61.5825 84.6614 61.7516 84.5719 62.6067C84.5137 63.1642 84.4661 64.1036 84.4661 64.6945V65.7688L86.1704 65.6491C87.1075 65.5834 87.886 65.5194 87.9003 65.5066C87.9143 65.4939 87.9801 64.567 88.0463 63.4467L88.1668 61.4098L86.7736 61.4326ZM60.5326 61.9086C59.898 61.9086 59.3443 61.9647 59.3018 62.0333C59.2596 62.102 59.1706 62.9251 59.1042 63.8623L58.9836 65.5666H61.477L61.5801 64.9431C61.6368 64.6002 61.684 63.7772 61.685 63.1141L61.6868 61.9086H60.5326ZM105.399 61.988C104.93 61.8851 104.918 61.8999 104.918 62.5508C104.918 62.9184 105.006 63.274 105.114 63.3411C105.331 63.4748 107.844 64.2347 108.243 64.2871C108.428 64.3112 108.492 64.1505 108.492 63.6646V63.0095L107.187 62.5516C106.469 62.2999 105.664 62.0463 105.399 61.988ZM99.5085 61.9086C97.8569 61.9086 97.406 61.958 97.3338 62.146C97.1403 62.6501 97.3394 63.1561 97.7263 63.144C97.9321 63.1373 98.886 63.1187 99.8462 63.1024L101.592 63.0725V61.9086H99.5085ZM93.1884 59.082C93.1714 59.082 93.1098 59.4293 93.0517 59.8536C92.9935 60.2778 92.9459 60.9798 92.9459 61.4134V62.2019L93.7026 62.3924C94.1189 62.4971 94.5303 62.539 94.6171 62.4854C94.7039 62.4319 94.7749 61.7633 94.7749 61V59.6122L93.9972 59.3472C93.5693 59.2014 93.2053 59.082 93.1884 59.082ZM105.145 59.4146C104.958 59.4146 104.911 59.5847 104.95 60.1202C105 60.8149 105.015 60.8307 105.915 61.1349C106.418 61.305 107.18 61.586 107.609 61.7596C108.037 61.933 108.434 62.0749 108.491 62.0749C108.71 62.0748 108.483 60.6906 108.243 60.5595C107.741 60.2856 105.384 59.4146 105.145 59.4146ZM99.8047 59.4373C98.8216 59.4498 97.8449 59.4929 97.6335 59.5331C97.3146 59.5941 97.2586 59.6954 97.301 60.134C97.3452 60.5895 97.4147 60.6602 97.8094 60.6514C98.0608 60.6456 99.0149 60.6269 99.9294 60.6098L101.592 60.5785V59.4146L99.8047 59.4373ZM88.7891 56.7653C88.7891 58.0593 88.7123 59.2475 88.617 59.4256C88.4732 59.6943 88.261 59.7476 87.3284 59.7489C86.7144 59.7497 85.1644 59.8217 83.8841 59.9087C82.6038 59.9956 78.8627 60.1434 75.5705 60.237C72.2783 60.3306 68.5816 60.4525 67.3555 60.5077L65.1261 60.6082L65.2378 58.655C65.3976 55.8583 65.4835 55.4333 65.9068 55.3515C66.5662 55.2241 73.7219 54.8892 80.2261 54.6812C83.7927 54.5673 87.1785 54.4634 87.7499 54.4503L88.7891 54.4264V56.7653ZM60.1072 55.545C60.9975 55.4182 62.496 55.4208 62.5758 55.5492C62.7299 55.7986 62.3182 59.9967 62.1278 60.1188C61.8653 60.2862 59.494 60.2736 59.2252 60.1034C59.05 59.9921 59.0426 59.5699 59.1869 57.9077C59.2851 56.7762 59.4201 55.7977 59.487 55.7329C59.5536 55.6685 59.8329 55.5841 60.1072 55.545ZM69.5154 55.8258C69.4442 55.7548 68.4747 55.7739 66.8177 55.879L65.8793 55.9384L65.7595 57.9348C65.6935 59.0324 65.6667 59.9497 65.6999 59.9736C65.7332 59.9969 66.5461 59.9743 67.5063 59.9233L69.2522 59.8302L69.4185 57.8626C69.5099 56.7805 69.5536 55.8638 69.5154 55.8258ZM62.2891 56.3801C62.3745 55.9425 62.351 55.9239 61.7415 55.9466C61.3914 55.9595 60.8056 56.0156 60.4398 56.0713L59.7747 56.1723L59.6865 57.835C59.638 58.7494 59.6238 59.5538 59.6548 59.6224C59.6858 59.6909 60.1881 59.7471 60.771 59.7471C61.9848 59.7471 61.935 59.8126 62.0962 58.0013C62.153 57.3611 62.2398 56.6315 62.2891 56.3801ZM72.4075 55.5903C70.6109 55.5903 70.3253 55.6279 70.1949 55.8813C70.1126 56.0414 69.9953 56.9767 69.9343 57.9597L69.8236 59.7471H74.1333L74.2215 58.8742C74.2699 58.3941 74.3458 57.4589 74.3901 56.7958L74.4704 55.5903H72.4075ZM77.3148 55.424C75.7841 55.424 75.137 55.4833 75.0425 55.6319C74.9698 55.7463 74.8825 56.6816 74.8484 57.7103L74.7864 59.5808H76.971C78.5737 59.5808 79.173 59.5255 79.2202 59.373C79.2555 59.2585 79.3227 58.3233 79.3696 57.2946L79.4549 55.424H77.3148ZM106.134 57.4795C105.012 56.9684 104.918 56.9813 104.918 57.6435C104.918 58.1405 104.993 58.2324 105.624 58.5007C106.013 58.6662 106.719 58.9768 107.194 59.1911C108.344 59.711 108.576 59.6959 108.576 59.1012C108.576 58.6007 108.204 58.2503 107.412 58.0022C107.183 57.9307 106.608 57.6955 106.134 57.4795ZM82.148 55.2578C80.9519 55.2578 80.12 55.3266 80.0556 55.4309C79.9968 55.526 79.9065 56.4613 79.8548 57.5093L79.7611 59.4146L81.573 59.4123C84.3248 59.409 84.1335 59.5717 84.1335 57.2335V55.2578H82.148ZM84.7411 56.4632C84.6824 57.2176 84.6338 58.1611 84.6333 58.5597L84.6323 59.2842L86.3366 59.1645C87.2737 59.0988 88.0731 59.0144 88.1133 58.9771C88.1532 58.9397 88.2191 58.0502 88.2592 57.0004L88.3322 55.0915H84.8478L84.7411 56.4632ZM97.269 58.0844H98.6591C99.4238 58.0844 100.396 58.0369 100.821 57.9787C101.534 57.8809 101.592 57.8372 101.592 57.3967V56.9205H97.269V58.0844ZM94.1321 54.619C93.0988 54.3094 93.1122 54.2923 93.1122 55.9229C93.1122 57.2933 93.1394 57.4193 93.435 57.4193C93.6126 57.4193 93.8039 57.4941 93.8604 57.5856C93.917 57.677 94.1457 57.7518 94.369 57.7518C94.7687 57.7518 94.7749 57.7296 94.7749 56.2817V54.8117L94.1321 54.619ZM105.029 54.7589C104.968 54.759 104.918 55.051 104.918 55.4078C104.918 55.9645 104.982 56.0803 105.375 56.2228C105.626 56.3141 106.412 56.656 107.121 56.9828L108.409 57.5773V56.3151L106.775 55.5372C105.876 55.1092 105.09 54.7589 105.029 54.7589ZM97.269 55.6004L101.509 55.5072L101.613 54.4264H97.269V55.6004ZM88.953 50.5606C88.9515 51.8181 88.8852 52.9497 88.8055 53.0753C88.6338 53.3465 86.6115 53.4897 79.1454 53.7595C76.3562 53.8605 73.064 54.0136 71.8294 54.1C70.5948 54.1865 68.6943 54.2578 67.6062 54.2587L65.6278 54.2601L65.7441 51.8908C65.8206 50.3297 65.9326 49.448 66.0726 49.3066C66.2351 49.1423 68.4412 49.033 75.4172 48.8431C80.4398 48.7065 85.1852 48.5328 85.9625 48.4573C86.7398 48.3817 87.7312 48.3095 88.1656 48.2971L88.9554 48.2743L88.953 50.5606ZM66.2843 51.1266C66.2248 51.9636 66.1762 52.9057 66.1762 53.2201V53.7917L67.9085 53.7348C68.8614 53.7036 69.6744 53.6408 69.7151 53.595C69.7559 53.5488 69.8397 52.6325 69.9015 51.5582L70.014 49.6045H66.3921L66.2843 51.1266ZM73.2041 49.4649C72.3107 49.4795 71.3367 49.5218 71.0396 49.5586L70.4992 49.6256L70.4978 50.7374C70.4971 51.349 70.448 52.2523 70.3888 52.7452L70.2813 53.641L72.3438 53.5208C73.4783 53.4547 74.4532 53.3508 74.5102 53.2899C74.5672 53.2289 74.662 52.3376 74.721 51.3088L74.8283 49.4382L73.2041 49.4649ZM79.542 49.1344C79.3695 49.1502 78.368 49.2153 77.3164 49.2788C76.2647 49.3425 75.3924 49.4043 75.3781 49.4163C75.3638 49.4289 75.3019 50.168 75.2406 51.0594C75.1792 51.9511 75.0888 52.8225 75.0399 52.9959C74.9546 53.2973 75.0505 53.3073 77.2212 53.2245C78.4699 53.1769 79.5197 53.1097 79.5536 53.0754C79.5877 53.0407 79.6696 52.1337 79.7356 51.0594C79.8493 49.2077 79.8393 49.1072 79.542 49.1344ZM93.2785 52.8975L93.8021 53.08C94.7497 53.4103 94.7749 53.3807 94.7749 51.9422C94.7749 51.2161 94.7183 50.5869 94.6489 50.544C94.5798 50.5011 94.243 50.4137 93.9007 50.3493L93.2785 50.2326V52.8975ZM83.1359 49.0078C82.45 48.9998 81.5335 49.0225 81.0991 49.0584L80.3093 49.124V49.838C80.3093 50.2307 80.2599 51.1352 80.1997 51.848L80.0901 53.1441L82.116 53.0607C83.2302 53.0148 84.1712 52.9478 84.2072 52.9119C84.2432 52.876 84.2973 51.986 84.3277 50.9345L84.3829 49.0226L83.1359 49.0078ZM86.8036 48.7732C85.8945 48.7732 85.1098 48.8396 85.0597 48.9208C85.0095 49.0021 84.9184 49.9446 84.8572 51.0156L84.746 52.9628L86.4414 52.9049C87.7205 52.8612 88.1753 52.7856 88.2941 52.5974C88.3807 52.46 88.4527 51.5434 88.4542 50.5606L88.4566 48.7732H86.8036ZM94.2513 46.628C93.4965 46.3648 93.445 46.3875 93.443 46.9857C93.442 47.2829 93.3965 47.7959 93.342 48.1254C93.2499 48.6824 93.2763 48.7313 93.7179 48.8204C93.9791 48.8731 94.324 48.9669 94.484 49.0287C94.7442 49.1293 94.7749 49.0177 94.7749 47.9759C94.7749 46.8182 94.7714 46.8092 94.2513 46.628ZM89.085 44.8242L89.0386 47.0273L87.2927 47.1406C86.3325 47.2028 84.4993 47.3353 83.219 47.4347C81.9387 47.5343 78.5717 47.7269 75.7368 47.8629C72.9019 47.9987 69.5931 48.1585 68.384 48.2177C66.4517 48.3124 66.1727 48.293 66.0825 48.0574C66.0258 47.91 66.0809 46.907 66.2047 45.8288L66.4299 43.8681L69.3374 43.6754C70.9366 43.5693 73.4048 43.404 74.8223 43.3079C76.2398 43.212 79.4945 43.0513 82.0551 42.9509C84.6157 42.8506 86.8229 42.7441 86.9602 42.7141C87.0973 42.6842 87.6421 42.651 88.1705 42.6404L89.1313 42.6211L89.085 44.8242ZM101.698 39.6282C101.269 39.6282 101.028 39.7425 100.772 40.0669C100.408 40.5298 99.9294 41.9359 99.9294 42.5425C99.9294 42.7402 99.7824 43.0352 99.6027 43.1978C99.2562 43.5114 98.9949 43.4915 97.851 43.0655L97.1859 42.818L97.1398 45.3313C97.1143 46.7136 97.1309 47.9412 97.1761 48.0595C97.2423 48.2316 99.0351 48.2715 106.201 48.26C111.119 48.2522 114.947 48.1864 114.707 48.1137C114.467 48.0413 113.496 47.8918 112.549 47.7815C110.275 47.5172 110.114 47.4069 111.194 46.8516L111.818 46.5311L110.21 46.4465C109.325 46.4001 108.558 46.3175 108.503 46.263C108.449 46.2083 108.553 45.9745 108.735 45.7432C109.084 45.2998 109.225 44.4961 109.014 44.1544C108.863 43.9105 108.095 43.8895 107.506 44.1135C106.992 44.309 106.949 44.0852 107.328 43.1775C107.647 42.4149 107.648 41.5561 107.33 41.2924C106.941 40.9699 105.99 41.2389 105.307 41.8646C104.615 42.4994 104.372 42.4789 104.074 41.761C103.959 41.4841 103.509 40.8909 103.072 40.4428C102.421 39.7746 102.174 39.6282 101.698 39.6282ZM70.3813 44.2422C70.3149 44.1207 69.8221 44.1203 67.7335 44.2401L66.7138 44.2986L66.5944 46.0482C66.5288 47.0101 66.5135 47.8356 66.5603 47.8827C66.6072 47.9296 67.4191 47.9059 68.3646 47.8301L70.0835 47.6924L70.2664 46.0297C70.3668 45.1152 70.4186 44.3107 70.3813 44.2422ZM74.4482 43.8193C74.1511 43.838 73.2497 43.8785 72.4451 43.9089C71.4875 43.9453 70.9614 44.0339 70.9211 44.1658C70.8873 44.2763 70.8177 45.1017 70.7663 45.9999L70.6728 47.633L72.6229 47.5169C73.6954 47.4532 74.6665 47.3264 74.7807 47.2353C74.9217 47.1229 74.9886 46.542 74.9886 45.4274V43.785L74.4482 43.8193ZM78.7713 43.6509C78.1082 43.6685 77.0982 43.7094 76.5266 43.7418L75.4874 43.8009V47.3275L77.5879 47.215C78.7431 47.1533 79.7532 47.0627 79.8325 47.0137C79.9118 46.9646 79.9767 46.1809 79.9767 45.2717V43.6187L78.7713 43.6509ZM84.3829 43.3706C84.2914 43.3565 83.431 43.3975 82.4708 43.4615C81.5106 43.5257 80.6688 43.5871 80.6002 43.5983C80.5317 43.6096 80.4755 44.4146 80.4755 45.3873V47.1557L82.4292 47.0375C83.5037 46.9725 84.442 46.862 84.514 46.7923C84.7045 46.6076 84.5816 43.4012 84.3829 43.3706ZM88.6849 43.2521C88.59 43.099 86.449 43.1088 85.7131 43.2656L85.2143 43.3719L85.0964 45.0262C85.0316 45.936 85.0095 46.7115 85.0474 46.7496C85.0854 46.7875 85.8949 46.7656 86.8462 46.7008L88.5756 46.5829L88.6711 44.9835C88.7236 44.1039 88.7298 43.3247 88.6849 43.2521ZM94.4008 42.7258C93.6453 42.5235 93.611 42.5688 93.611 43.7688C93.611 44.9065 93.6156 44.918 94.1347 45.0989C94.4226 45.1993 94.6846 45.2814 94.7166 45.2814C94.7487 45.2806 94.7749 44.7284 94.7749 44.0539C94.7749 42.9213 94.746 42.8184 94.4008 42.7258ZM85.048 37.6436C87.4893 37.4297 89.0625 37.4411 89.231 37.6745C89.3803 37.8812 89.2803 41.5321 89.1217 41.6691C89.0755 41.7085 86.2698 41.8687 82.8865 42.0252C79.5029 42.1816 76.0236 42.3777 75.1548 42.461C74.2861 42.5441 71.9854 42.6635 70.042 42.7261L66.5087 42.8401L66.5233 41.6084C66.5313 40.9308 66.5873 40.0023 66.648 39.5451L66.7581 38.7137L68.8365 38.5166C69.9796 38.408 73.7582 38.1968 77.2332 38.0471C80.7083 37.8973 84.225 37.716 85.048 37.6436ZM70.6194 38.8316C70.5073 38.8507 69.6963 38.8908 68.8167 38.9206L67.2173 38.9746L67.1124 39.7402C67.0547 40.1614 67.0074 40.9259 67.0072 41.439L67.0069 42.3717L68.7399 42.2885C69.693 42.2428 70.5059 42.168 70.5462 42.1223C70.5864 42.0761 70.665 41.3094 70.721 40.418C70.7983 39.1864 70.7738 38.8051 70.6194 38.8316ZM75.4185 39.1709C75.5015 38.6371 75.4948 38.6309 74.8713 38.6648C74.5243 38.6836 73.5957 38.7237 72.8079 38.7541L71.3754 38.8092L71.2713 39.6759C71.214 40.1526 71.1664 40.898 71.1658 41.3325L71.1643 42.1223L72.2866 42.1208C72.904 42.1201 73.7968 42.0728 74.2709 42.0159L75.1331 41.9123L75.2338 40.8117C75.2893 40.2065 75.3723 39.4681 75.4185 39.1709ZM80.414 38.7553C80.4893 38.4943 80.3644 38.4673 79.1981 38.493C78.4833 38.5088 77.412 38.5649 76.8176 38.6177L75.7368 38.7137L75.6889 40.355L75.6412 41.9961L76.6865 41.8958C77.2616 41.8404 78.2665 41.7477 78.9198 41.6897L80.1076 41.5842L80.2188 40.315C80.28 39.6172 80.3678 38.9154 80.414 38.7553ZM84.0088 38.1626C83.5744 38.1796 82.8075 38.2176 82.3045 38.2472C80.5547 38.3504 80.6418 38.2567 80.6418 40.0356V41.6004L82.5124 41.5153C83.5413 41.4684 84.4765 41.401 84.5908 41.3658C84.7381 41.3202 84.7986 40.8393 84.7986 39.7165V38.1317L84.0088 38.1626ZM87.3343 37.9786C86.4426 37.9858 85.6197 38.0295 85.5053 38.0756C85.3591 38.1346 85.2973 38.6367 85.2971 39.7667L85.2966 41.374L88.7039 41.2078L88.8099 40.709C88.8683 40.4346 88.925 39.7051 88.9358 39.0878L88.9554 37.9655L87.3343 37.9786ZM93.6739 38.9631C93.6393 38.9632 93.611 39.414 93.611 39.965C93.611 40.8872 93.6449 40.9795 94.0376 41.1289C94.7056 41.3827 94.7407 41.3473 94.8011 40.3611C94.8574 39.4428 94.8511 39.4284 94.2974 39.1972C93.989 39.0684 93.7085 38.9631 93.6739 38.9631ZM93.7773 35.9686C93.7773 37.2577 93.7896 37.2983 94.255 37.5389C94.5177 37.6749 94.7796 37.739 94.837 37.6816C94.8943 37.6243 94.9412 37.0426 94.9412 36.3891V35.2004L93.7773 34.6454V35.9686ZM54.3143 32.0617C54.8652 31.7744 54.8805 31.7727 55.185 31.9654C55.3635 32.0786 55.2949 32.1754 54.8867 32.3866C54.5951 32.5374 54.2789 32.8629 54.1841 33.11L54.0115 33.5593L53.6302 33.0841C53.3421 32.725 53.1629 32.6363 52.8955 32.7212C52.6398 32.8024 52.5419 32.7629 52.5418 32.5788C52.5418 32.1986 53.1381 31.9311 53.5245 32.138C53.7557 32.2617 53.9708 32.2409 54.3143 32.0617ZM56.4492 28.5323C56.9163 28.2508 57.1024 28.2735 57.4469 28.6542C57.7553 28.9951 57.7056 29.0437 57.0976 28.9967C56.8813 28.9799 56.6348 29.1426 56.4502 29.4242L56.1523 29.879L55.8426 29.4965C55.5859 29.1796 55.4896 29.1498 55.2803 29.3235C54.9531 29.595 54.7455 29.3862 54.9788 29.0204C55.0796 28.8626 55.371 28.7363 55.638 28.7349C55.9012 28.7336 56.2663 28.6424 56.4492 28.5323ZM52.9712 27.4488C53.1383 27.282 53.5395 27.2896 53.5395 27.4593C53.5394 27.5337 53.3098 27.8143 53.0291 28.0828C52.5648 28.5272 52.5044 28.545 52.3559 28.2801C52.2661 28.1202 52.0405 27.9892 51.8547 27.9891C51.6571 27.9891 51.546 27.9027 51.5874 27.7813C51.6265 27.6671 51.9257 27.5735 52.2522 27.5735C52.5789 27.5735 52.9023 27.5174 52.9712 27.4488Z" fill="#111F78"/>
<path d="M60.6892 63.0763C59.6916 62.0122 57.8349 63.5197 57.0312 64.4065C58.0954 65.7367 59.9133 75.7684 60.6892 80.618C62.3797 78.9276 65.7106 75.2641 65.5111 74.1334C65.3116 73.0028 64.0978 73.3852 63.5159 73.7177C64.2364 72.637 65.5776 70.2593 65.1786 69.3947C64.7795 68.53 62.8508 69.0344 61.9363 69.3947C62.6014 68.2308 63.7819 65.7699 63.1833 65.2379C62.5847 64.7058 61.2712 65.127 60.6892 65.4041C61.1049 65.0716 61.6869 64.1405 60.6892 63.0763Z" fill="white"/>
<path d="M60.2532 93.1468C39.968 97.3368 27.0265 94.8926 23.0914 93.1468C23.7842 89.9599 25.2197 83.2037 25.4192 81.674C25.6187 80.1443 25.0035 79.4293 24.671 79.2631C15.9417 93.3131 8.62569 91.6503 3.88694 83.5861C0.129365 77.1917 4.61022 62.1559 7.38808 55.2528C7.01492 55.02 7.19581 55.0114 7.4618 55.0705C7.43737 55.1306 7.41279 55.1914 7.38808 55.2528C7.7147 55.4565 8.46581 55.8319 9.95588 56.4838C13.1483 57.8805 16.3851 55.9019 17.6044 54.7379V60.1418C23.9892 54.023 28.0795 52.6041 29.3266 52.6595C29.1936 53.7902 32.8737 56.9549 34.7304 58.3959L36.8919 60.1418L39.4692 59.4767L40.7162 49.3341C41.6307 49.0016 44.9562 48.3742 51.9396 48.5028C65.4907 48.7523 73.8479 60.9731 71.0608 71.6145C70.3292 74.4079 66.1558 77.5449 64.1606 78.7642C64.6594 77.7389 65.6736 75.4222 65.7401 74.358C65.8066 73.2939 64.7148 73.2496 64.1606 73.3604C64.5485 72.5568 65.2912 70.6668 65.1582 69.5361C65.0252 68.4055 63.3846 68.6771 62.581 68.9542C62.9689 67.8734 63.6285 65.6121 63.1629 65.2131C62.7158 64.8298 61.3639 65.3361 60.6683 65.6713C60.6402 65.6863 60.6126 65.6998 60.5857 65.7119C60.6121 65.6987 60.6396 65.6852 60.6683 65.6713C61.219 65.3788 61.9506 64.5467 61.0014 63.2178C60.0038 61.8211 58.0362 63.1347 57.1771 63.966C57.1771 63.966 62.581 83.0042 60.2532 93.1468Z" fill="#A4D2F6"/>
<path fill-rule="evenodd" clip-rule="evenodd" d="M17.0583 25.0908C16.9188 25.3289 16.773 27.6557 16.7348 30.252C16.7023 32.4492 16.7349 32.8231 16.9807 33.0688C17.1365 33.2246 17.3018 33.3144 17.3478 33.2684C17.4762 33.1402 17.6863 29.2898 17.687 27.0561C17.6877 25.333 17.6504 25.0564 17.4122 25.0101C17.2607 24.9809 17.1014 25.0171 17.0583 25.0908ZM27.3288 27.478C27.2691 27.6655 26.5839 28.4699 25.8057 29.2654C24.0077 31.1035 23.6432 31.593 23.9776 31.7214C24.2963 31.8436 28.2435 27.7955 28.2451 27.3446C28.2464 26.9855 27.4482 27.1017 27.3288 27.478ZM9.72657 27.4369C9.57543 27.6816 11.4615 31.2698 11.8266 31.4321C11.8951 31.4627 11.9513 31.5618 11.9513 31.6525C11.9513 31.9166 13.3044 34.1202 13.4667 34.1202C13.7203 34.1202 13.6281 33.6841 13.2815 33.2434C13.0986 33.011 12.9489 32.7842 12.9489 32.7395C12.9489 32.6949 12.5098 31.9585 11.9729 31.103C11.097 29.707 10.2886 28.1612 10.2886 27.8822C10.2886 27.6811 9.81004 27.302 9.72657 27.4369ZM3.97023 29.4498C3.97023 29.5331 4.207 29.8004 4.49632 30.044C4.7858 30.2874 5.46834 31.0237 6.01338 31.68C6.55842 32.3363 7.23814 33.1533 7.52413 33.4958C7.80995 33.8384 8.1001 34.1189 8.1686 34.1194C8.34651 34.1205 8.3234 33.6601 8.14216 33.5936C8.05903 33.5632 7.55306 33.0145 7.01783 32.3743C6.06144 31.2307 5.41048 30.4833 4.68487 29.6957C4.31309 29.2923 3.97023 29.1743 3.97023 29.4498ZM21.1486 31.9337C20.9489 31.9931 20.6122 32.307 20.4004 32.6309C20.0211 33.2115 19.8416 33.5592 19.074 35.201C18.8602 35.6582 18.5919 36.1312 18.4775 36.252C18.3632 36.3728 18.2696 36.57 18.2696 36.6903C18.2696 36.8105 18.1579 37.1231 18.0212 37.3851C17.8847 37.647 17.7725 38.0627 17.7718 38.3087C17.7703 39.0003 17.4958 39.0172 16.7421 38.3721C16.3615 38.0464 15.7077 37.6244 15.2894 37.4345C14.8709 37.2446 14.4005 37.021 14.244 36.9375C13.6948 36.6447 11.655 36.4051 10.7126 36.5228C9.92842 36.6209 9.73904 36.71 9.58191 37.0549C9.44008 37.366 9.44175 37.5979 9.58856 37.9868C9.82866 38.6228 9.79208 38.6654 9.19832 38.4396C8.80991 38.292 8.65262 38.3161 8.30245 38.5761C7.74328 38.9916 7.67826 39.6757 8.12271 40.4665L8.4787 41.1L7.75126 41.0002C6.48161 40.8261 5.97048 41.7554 6.70025 42.9112C7.22867 43.7483 7.22883 43.764 6.70275 43.764C5.84528 43.764 5.63245 44.0228 5.63877 45.0584C5.6421 45.581 5.75167 46.1957 5.88236 46.4243C6.01305 46.6529 6.12262 47.043 6.12595 47.2911C6.1341 47.9259 6.65952 49.1871 7.46178 50.4976C8.1395 51.605 8.14399 51.6228 7.88328 52.1723C7.73829 52.4779 7.24829 53.7975 6.79436 55.1045C6.34027 56.4118 5.90165 57.6311 5.81934 57.8139C5.73704 57.9968 5.541 58.6328 5.38354 59.2273C5.22625 59.8217 4.95606 60.7882 4.7833 61.3752C4.61038 61.9623 4.46905 62.575 4.46905 62.7371C4.46905 62.8992 4.39423 63.0781 4.30278 63.1347C4.21133 63.1912 4.13684 63.4388 4.13717 63.6848C4.13784 64.244 3.48954 67.8395 3.30681 68.2891C3.17545 68.6127 2.75778 70.5999 2.4683 72.2796C2.38948 72.7369 2.2415 73.5973 2.13925 74.1917C1.85209 75.8618 1.88269 78.1324 2.21008 79.4413C2.83027 81.9211 3.18244 83.0353 3.65415 84.0091C4.24458 85.2277 4.26836 85.2596 5.63295 86.653C6.53381 87.5728 8.88158 89.3225 9.21495 89.3225C9.26683 89.3225 9.66056 89.4889 10.0899 89.6925C10.7392 90.0002 11.1364 90.0594 12.4501 90.0438C15.1076 90.0122 16.6132 89.3549 18.7615 87.288C20.0622 86.0366 20.9015 84.9249 22.6451 82.145C22.9701 81.6268 23.3876 81.0282 23.5727 80.8149C23.7579 80.6015 24.0238 80.2773 24.1635 80.0944C24.415 79.7652 24.4209 79.766 24.7484 80.1775C24.9341 80.4108 25.0808 80.8486 25.0826 81.1752C25.0883 82.1577 24.4438 86.2551 24.0694 87.6179C23.8745 88.3269 23.6545 89.2061 23.5804 89.5719C23.3442 90.7376 22.9558 92.114 22.7593 92.481C22.6085 92.7628 22.624 92.9203 22.8341 93.241C22.9799 93.4635 23.1948 93.6456 23.3115 93.6456C23.5102 93.6456 23.6083 93.3089 24.3558 90.0601C24.4835 89.5056 24.588 88.8317 24.588 88.5626C24.588 88.2934 24.6676 87.8119 24.7647 87.4923C24.9237 86.9702 25.1722 85.3197 25.6032 81.9234C25.6844 81.2832 25.7565 80.6473 25.7633 80.5101C25.7868 80.0452 24.9551 73.9663 24.4099 70.6169C24.3058 69.9767 24.162 69.0415 24.0903 68.5385C23.9553 67.5896 23.58 66.3131 23.2777 65.7737C22.9558 65.1998 22.4264 63.9033 22.4243 63.6842C22.4214 63.3915 21.2279 61.0777 20.4255 59.8092C19.6748 58.6227 19.6512 58.793 20.6909 57.8971C21.0625 57.577 21.6586 57.0907 22.0156 56.8163C22.3727 56.542 22.7861 56.2053 22.9344 56.0681C23.0825 55.9309 23.3195 55.7439 23.4608 55.6524C23.6023 55.561 24.1942 55.1381 24.7765 54.7126C26.186 53.6828 27.328 53.0918 28.1513 52.9665C28.5235 52.9098 28.9415 52.8055 29.0801 52.7347C29.2431 52.6517 29.5723 52.7698 30.0099 53.0682C31.8131 54.2978 34.409 54.8694 35.7506 54.3327C36.9405 53.8565 38.1298 52.8173 38.617 51.8282C39.3767 50.2857 39.4242 50.0657 39.3572 48.3971C39.2926 46.7885 39.2985 46.7569 39.6645 46.7569C40.1296 46.7569 40.8231 46.0276 41.0703 45.2787C41.3801 44.3398 41.0093 43.0857 40.2076 42.3615C39.8467 42.0354 39.4395 41.7594 39.3025 41.7479C39.1657 41.7364 38.9788 41.7085 38.8874 41.6856C38.7959 41.6626 38.6529 41.6347 38.5694 41.6232C38.486 41.6117 38.3706 41.2845 38.3129 40.8958C38.1011 39.47 37.6952 38.0189 37.4173 37.695C36.8893 37.0792 36.1375 36.7805 35.116 36.7805C34.5475 36.7805 34.0005 36.6831 33.8066 36.5474C33.1897 36.1153 32.1025 35.9128 31.4881 36.1154C31.18 36.2172 30.9043 36.3529 30.8755 36.4171C30.6684 36.8788 28.0842 38.4433 27.5286 38.4433C27.2225 38.4433 24.7709 40.8397 24.7351 41.1739C24.6546 41.9267 25.0396 42.8275 25.9672 44.0579C26.6097 44.9099 26.6313 44.9826 26.7611 46.7183C26.9322 49.008 27.3812 50.296 28.4209 51.4801C28.6965 51.7941 28.8568 52.0914 28.777 52.1407C28.6972 52.1901 28.2644 52.3118 27.8155 52.4113C26.8566 52.6236 25.7161 53.1336 24.9732 53.6821C24.6821 53.8969 24.3984 54.0728 24.3429 54.0728C24.2463 54.0728 23.2641 54.7279 23.0915 54.9075C23.0458 54.9552 22.8213 55.0871 22.5927 55.2007C21.6258 55.6812 20.5203 56.3828 20.4641 56.5514C20.4307 56.6514 20.3232 56.7332 20.2251 56.7332C20.1272 56.7332 19.527 57.2757 18.8916 57.9387L17.7364 59.1441L17.8367 58.2296C17.8919 57.7267 18.043 55.9309 18.1727 54.2391C18.3024 52.5473 18.5684 50.4523 18.7638 49.5835C18.9593 48.7147 19.1951 47.555 19.2877 47.0063C19.3803 46.4576 19.5208 45.859 19.5998 45.6761C19.6786 45.4932 19.7902 44.9899 19.8474 44.5576C19.9047 44.1254 20.0137 43.7334 20.0893 43.6865C20.1651 43.6398 20.2754 43.32 20.3344 42.976C20.3934 42.632 20.5444 42.0888 20.6698 41.7687C20.7953 41.4486 21.1386 40.5508 21.4328 39.7734C21.7269 38.9961 22.0641 38.1357 22.1823 37.8613C23.0657 35.8102 23.2784 33.6327 22.6858 32.7069C22.1231 31.8278 21.893 31.7121 21.1486 31.9337ZM21.0515 33.1088C20.8081 33.3821 20.4125 34.002 20.1728 34.4865C19.933 34.9708 19.6382 35.5543 19.5177 35.7829C19.2691 36.2545 18.7827 37.2162 18.5684 37.6601C18.4894 37.8239 18.3513 38.345 18.2616 38.8182C18.1719 39.2914 18.0403 39.7367 17.9693 39.8077C17.8983 39.8787 17.4627 39.5766 17.0011 39.1363C15.6515 37.8488 13.555 36.9496 11.8987 36.9478C10.8501 36.9465 10.4548 37.1686 10.4548 37.7592C10.4548 38.7565 10.7766 39.2316 12.0101 40.0551C14.4961 41.715 15.2766 41.9854 16.0762 41.4634C16.6917 41.0617 15.5221 39.5631 13.626 38.324C13.0565 37.9519 12.6633 37.6026 12.7521 37.5477C13.0444 37.367 14.0109 37.8997 15.1908 38.8917C17.0415 40.4477 17.5244 41.4498 16.7477 42.1234C16.3206 42.4938 15.1721 42.5404 14.6903 42.2068C14.5099 42.082 14.1752 41.9267 13.9466 41.8618C13.5949 41.7622 13.6461 41.856 14.2791 42.4722C15.5278 43.6876 15.8951 44.5912 15.3183 45.029C14.9069 45.3412 14.2836 45.3116 13.566 44.9458C12.8144 44.5626 12.7785 44.7036 13.4622 45.354C14.2201 46.0751 14.4562 46.7249 14.1682 47.2972C13.9605 47.7096 13.8528 47.754 13.0693 47.7492C12.5707 47.7462 12.0632 47.6399 11.878 47.4998C11.3419 47.0944 11.2618 47.2209 11.6154 47.9141C12.5422 49.731 11.4204 50.836 9.62298 49.8765C9.23956 49.6719 8.62169 49.2441 8.24991 48.9259L7.57401 48.3473L7.69506 48.8294C7.83273 49.3783 8.4057 50.1156 9.22725 50.8011C9.84296 51.3149 9.90149 51.5024 9.56961 51.8982C9.37441 52.1308 8.47837 54.1704 8.23012 54.9468C8.09827 55.3591 9.22759 56.0362 10.4213 56.2605C10.9427 56.3586 12.015 56.3981 12.8041 56.3486C14.4324 56.2463 15.518 55.7914 16.4692 54.8121C16.7737 54.499 17.1411 54.2419 17.286 54.2409C17.5026 54.2394 17.5824 53.8627 17.7361 52.1191C17.9331 49.8803 18.3145 47.2309 18.5797 46.258C18.6668 45.938 18.8118 45.302 18.9016 44.8447C19.2077 43.2871 20.3459 39.7651 20.9972 38.3601C21.209 37.9029 21.4394 37.3417 21.5091 37.1131C21.5788 36.8845 21.7008 36.6156 21.7805 36.5157C22.0106 36.2264 22.2068 34.4143 22.1044 33.5244C21.9901 32.5321 21.6759 32.4081 21.0515 33.1088ZM1.30988 34.2075C1.30988 34.3468 1.47815 34.535 1.68399 34.6257C1.88984 34.7161 2.28257 34.9376 2.55692 35.1178C2.83127 35.2981 3.22766 35.5209 3.43766 35.613C3.64767 35.7053 4.05919 36.0052 4.35216 36.2797C4.64513 36.5544 4.982 36.7794 5.10088 36.7797C5.67452 36.7819 4.42332 35.7028 2.53514 34.5671C1.3857 33.8756 1.30988 33.8535 1.30988 34.2075ZM28.4122 35.2088C28.0007 35.4223 27.518 35.6015 27.3396 35.6068C26.834 35.6221 25.0868 36.1741 25.0868 36.3186C25.0868 36.5092 25.5377 36.4778 26.7495 36.2029C29.2697 35.6313 29.9113 35.3592 29.6682 34.966C29.5131 34.7149 29.2758 34.7608 28.4122 35.2088ZM8.99996 39.2309C8.70566 39.332 8.73775 40.519 9.04153 40.7711C9.1787 40.885 9.29094 41.0645 9.29094 41.1701C9.29094 41.3959 10.037 42.2236 10.6244 42.6494C12.1096 43.7261 13.7209 44.5953 14.231 44.5953C14.8627 44.5953 14.741 43.7443 13.9881 42.8965C11.7127 40.3341 9.8255 38.9474 8.99996 39.2309ZM31.3592 39.6948C30.3011 40.0832 29.3186 40.9126 28.5407 42.0736C27.4051 43.769 27.1254 44.7958 27.4216 46.1829C27.5183 46.6358 27.6726 47.3804 27.7644 47.8376C28.0832 49.4254 28.7428 50.8864 29.5761 51.8504C30.0249 52.3695 31.1208 53.0752 31.4784 53.0752C31.7219 53.0752 31.8981 52.5732 31.9016 51.8697C31.9034 51.524 31.9851 51.4125 32.2365 51.4125C32.5349 51.4125 32.569 51.5234 32.569 52.4932V53.574H33.079C33.4865 53.574 33.5718 53.5155 33.5036 53.283C33.27 52.4883 33.2085 51.745 33.3761 51.745C33.6134 51.745 33.83 52.1863 33.968 52.9505C34.06 53.4606 34.1511 53.574 34.4683 53.574C35.0184 53.574 35.2305 53.2524 35.0167 52.7427C34.4319 51.348 34.3907 51.0799 34.7605 51.0799C34.838 51.0799 35.0895 51.4915 35.3197 51.9944C35.5498 52.4974 35.813 52.9089 35.9046 52.9089C36.2227 52.9089 36.2754 52.3705 36.0025 51.9086C35.7036 51.4028 35.6361 50.7474 35.8828 50.7474C35.9678 50.7474 36.2089 51.0909 36.4185 51.5106L36.7998 52.2738L37.1914 51.8016C38.0663 50.7464 38.5957 48.9812 38.5671 47.2141C38.5483 46.0515 38.6238 45.8951 38.9728 46.3724C39.1597 46.6282 39.2186 46.6097 39.6366 46.1646C40.5356 45.2072 40.7218 44.088 40.1698 42.96C39.9718 42.5552 39.2551 42.1012 38.8144 42.1012C38.4436 42.1012 37.8897 42.6245 37.8897 42.9748C37.8897 43.1403 37.7823 43.3169 37.651 43.3672C37.339 43.487 36.227 42.4729 36.227 42.0687C36.227 41.7 35.7684 40.9413 35.3652 40.6427C35.2081 40.5263 34.9823 40.3383 34.8634 40.2249C34.0179 39.4174 32.6701 39.2136 31.3592 39.6948ZM1.10204 41.3958C-0.0525519 41.4529 -0.282506 41.6166 0.330539 41.9448C0.564484 42.07 1.12482 42.0934 2.01022 42.0149C3.0983 41.9187 3.29816 41.8588 3.1141 41.6846C2.80217 41.3891 2.39963 41.3314 1.10204 41.3958ZM7.54874 41.931C7.07486 42.4546 7.35603 42.9948 8.92148 44.5687C10.3612 46.0164 12.1176 47.2557 12.7296 47.2557C13.1499 47.2557 13.4477 46.9423 13.4477 46.5001C13.4477 46.0668 12.0529 44.4404 10.8933 43.5214C10.4269 43.1517 9.91811 42.7236 9.76248 42.5696C8.92614 41.7426 7.96907 41.4664 7.54874 41.931ZM33.2757 42.4389C32.8891 42.5944 32.79 42.844 33.051 43.0053C33.1332 43.0561 33.5121 42.9582 33.893 42.7876C34.4101 42.5562 34.5162 42.4509 34.3119 42.3726C33.962 42.2383 33.7396 42.2526 33.2757 42.4389ZM29.1929 43.7681C28.9465 43.962 28.7448 44.1924 28.7448 44.2801C28.7448 44.6106 29.2309 44.608 29.5633 44.2756C29.7532 44.0857 30.0646 43.9302 30.255 43.9302C30.7392 43.9302 30.5638 43.5264 30.053 43.465C29.821 43.4372 29.4453 43.5696 29.1929 43.7681ZM31.1141 43.5415C30.9876 43.5925 30.9063 43.9437 30.9063 44.439C30.9063 45.4819 31.3564 45.8455 32.489 45.7178C33.3339 45.6226 33.7329 45.3625 33.7329 44.9076C33.7329 44.5069 33.4444 44.5134 32.8184 44.9279C32.5441 45.1096 32.1912 45.2587 32.0345 45.2592C31.6219 45.2609 31.3739 44.6818 31.4997 44.011C31.6056 43.4464 31.542 43.3689 31.1141 43.5415ZM6.86087 44.5562C6.34293 44.8976 6.45799 46.2005 7.06938 46.9155C8.79461 48.9335 9.77313 49.6033 10.6091 49.3379C10.8767 49.2529 10.9537 49.0897 10.9537 48.6071C10.9537 47.8553 10.3085 46.7871 9.28362 45.8424C7.84055 44.5119 7.33525 44.2437 6.86087 44.5562ZM33.9971 46.2042C33.3292 46.6408 31.4495 47.2557 30.7821 47.2557C30.2746 47.2557 30.3082 47.4678 30.9888 48.5641C31.9704 50.1448 32.8632 50.9137 33.717 50.9137C34.5739 50.9137 35.0508 50.3252 35.2523 49.0188C35.3496 48.3883 35.3783 47.3968 35.316 46.8157C35.1853 45.5946 35.0353 45.5251 33.9971 46.2042ZM33.7915 46.8343C33.4679 47.061 32.6084 47.3285 31.5356 47.5367L31.0842 47.6243L31.403 48.2492C32.1188 49.6522 33.3392 50.6443 33.839 50.2296C34.3495 49.806 34.5643 49.0998 34.5643 47.8459C34.5643 46.5065 34.458 46.3675 33.7915 46.8343ZM48.1986 48.0081C48.0614 48.0443 46.5275 48.1948 44.79 48.3423C40.0873 48.7416 40.365 48.6577 40.1302 49.7504C39.8446 51.0798 39.4282 53.7373 39.2003 55.6872C39.0407 57.0514 39.0433 57.435 39.2142 57.6409C39.8251 58.3769 40.2973 57.5479 40.448 55.4752C40.5082 54.646 40.6008 53.7855 40.6538 53.563C40.8327 52.8128 41.0371 51.5024 41.1496 50.3844L41.2616 49.2732L42.3606 49.1084C45.5808 48.6256 49.9252 48.4385 51.4409 48.7174L52.106 48.8397L52.2081 50.7497C52.2641 51.8001 52.4274 53.0336 52.5709 53.4909C53.6124 56.8095 53.8731 57.6279 54.2492 58.7609C54.4828 59.4645 55.0009 60.7365 55.4008 61.5875C56.0574 62.985 56.4467 63.9996 56.9831 65.7119C57.0833 66.0319 57.2797 66.9672 57.4192 67.7903C57.5589 68.6133 57.7847 69.7731 57.9212 70.3675C58.0577 70.9619 58.2905 71.972 58.4384 72.6122C59.2927 76.3081 59.4545 77.2014 59.8424 80.3588C60.1259 82.6673 59.9706 89.9302 59.6117 91.1515C59.2583 92.353 59.2593 92.3615 59.8303 92.9727C60.23 93.4005 60.3805 93.4673 60.6361 93.3307C60.8964 93.1913 60.9683 92.897 61.0552 91.6166C61.1129 90.7664 61.2366 89.8093 61.3302 89.4899C61.5276 88.816 61.5381 83.685 61.3447 82.3391L61.2134 81.4246L62.0467 80.6348C62.8723 79.8523 63.1631 79.6899 63.1631 80.0113C63.1631 80.1027 63.2567 80.1774 63.3709 80.1774C63.5997 80.177 65.3324 79.013 65.9897 78.418C66.2183 78.211 67.0788 77.4612 67.9018 76.7517C69.8001 75.1154 70.1583 74.7491 70.5977 73.9939C71.0931 73.1429 71.8819 70.7068 72.2297 68.9538C72.4891 67.6464 72.4972 67.3034 72.304 65.8093C71.7188 61.2807 69.3966 56.6081 66.6761 54.4848C66.2762 54.1728 65.507 53.5023 64.9668 52.9952C63.761 51.8631 62.6767 51.0959 61.5835 50.6011C61.1262 50.3941 60.6399 50.1688 60.5027 50.1003C60.3655 50.0319 59.6921 49.8091 59.0063 49.6051C58.3204 49.4013 57.5348 49.1671 57.2604 49.0848C55.7455 48.6307 48.9137 47.8188 48.1986 48.0081ZM52.7277 50.8578C52.7932 52.5642 52.8846 53.0689 53.4152 54.6548C53.7519 55.6607 54.1781 56.9701 54.3625 57.5645C54.8096 59.007 56.8718 63.1922 57.1424 63.2065C57.5225 63.2266 58.6874 62.5465 58.7737 62.2542C58.9486 61.6623 59.5902 60.4509 60.0375 59.8684C60.2934 59.5352 60.5027 59.2055 60.5027 59.1356C60.5027 58.9032 62.8337 56.7332 63.0836 56.7332C63.4642 56.7332 63.3746 57.1321 62.894 57.5772C62.4491 57.9892 60.5027 60.4686 60.5027 60.6234C60.5027 60.6705 60.3138 60.9873 60.0829 61.3276C59.8521 61.6678 59.6881 62.021 59.7186 62.1124C59.749 62.2039 60.0609 62.3593 60.4116 62.4576C61.4553 62.7506 61.9157 63.6376 61.5755 64.7008C61.4628 65.0533 61.486 65.0859 61.7645 64.9648C61.9393 64.8888 62.3527 64.7945 62.683 64.7551C63.1662 64.6976 63.3694 64.7694 63.7222 65.1223C64.2162 65.6163 64.2578 65.882 63.9402 66.5176C63.8188 66.7604 63.5944 67.2081 63.4414 67.5128C63.0404 68.311 63.0771 68.3722 63.9573 68.3722C64.4081 68.3722 64.9121 68.4845 65.1222 68.6318C65.6899 69.0293 66.0286 69.8078 65.9007 70.4212C65.7789 71.007 65.1404 72.4163 64.9598 72.4983C64.7673 72.5856 65.0118 73.0278 65.2526 73.0278C65.6819 73.0278 66.3222 73.9107 66.3222 74.503C66.3222 75.0289 65.866 75.9832 65.3723 76.4898C65.2546 76.6107 65.1583 76.7986 65.1583 76.9073C65.1583 77.0159 64.9683 77.3098 64.736 77.5604C64.0255 78.3266 64.5948 78.0669 65.5275 77.1993C66.0103 76.7502 66.6298 76.2096 66.9042 75.9983C68.4818 74.7832 69.6693 73.3887 69.9885 72.3767C70.063 72.1404 70.3154 71.4233 70.5495 70.7832C71.697 67.6436 71.3787 63.4205 69.7203 59.7841C69.589 59.496 69.4814 59.2176 69.4814 59.1657C69.4814 58.8019 67.6339 56.0603 66.9133 55.3546C64.1376 52.6366 61.5896 50.7474 60.6996 50.7474C60.5913 50.7474 60.5027 50.688 60.5027 50.6155C60.5027 50.5429 60.2222 50.4012 59.8792 50.3004C57.4192 49.5785 56.7805 49.4076 55.9126 49.2395C55.3737 49.1352 54.4195 49.0137 53.7923 48.9698L52.652 48.8896L52.7277 50.8578ZM43.0446 50.1239C43.045 50.2383 43.531 51.4166 44.1249 52.7427C44.7188 54.0687 45.2045 55.2658 45.2045 55.403C45.2044 55.6599 44.2104 56.1263 43.2538 56.3182C42.9577 56.3775 42.6727 56.4952 42.6205 56.5797C42.5684 56.6642 42.3149 56.7332 42.057 56.7332C41.4584 56.7332 41.1112 57.105 41.4484 57.385C41.6332 57.5381 41.8919 57.5221 42.6113 57.313C43.1203 57.165 43.58 56.9739 43.6329 56.8885C43.6856 56.803 43.8655 56.7332 44.0325 56.7332C44.3105 56.7332 46.0274 56.246 46.1897 56.1211C46.2279 56.0917 46.1779 55.8993 46.0784 55.6936C45.5314 54.5627 45.0394 53.4064 45.0394 53.2518C45.0394 53.1547 44.9646 53.0752 44.8731 53.0752C44.7817 53.0752 44.7069 52.9959 44.7069 52.8989C44.7069 52.5741 43.3692 49.916 43.2058 49.916C43.1168 49.916 43.0443 50.0096 43.0446 50.1239ZM29.9087 54.0507C29.9087 54.2441 33.3846 57.7308 33.5773 57.7308C33.6473 57.7308 34.0289 58.0258 34.4253 58.3863C35.1255 59.0229 35.1366 59.0489 34.814 59.2871C34.4836 59.5312 34.484 59.5359 34.8679 60.0551C36.1733 61.8206 36.4731 62.5386 36.0882 62.9767C36.0118 63.0637 35.8186 63.49 35.6588 63.9244C35.4989 64.3589 35.3045 64.7142 35.2267 64.7142C35.1489 64.7142 34.5377 64.1005 33.8686 63.3503C33.1995 62.6001 32.1294 61.4714 31.4906 60.8423L30.329 59.6983L32.1452 59.7434C33.4029 59.7746 33.9812 59.7297 34.0252 59.5972C34.1203 59.3119 33.5542 59.2314 31.0258 59.1716C29.7623 59.1416 28.6581 59.0409 28.5644 58.9471C28.4707 58.8535 28.3494 57.8304 28.2947 56.6737C28.2242 55.1797 28.1284 54.5148 27.9641 54.3786C27.37 53.8854 27.3075 54.8545 27.7229 58.1144C27.9275 59.7198 28.075 59.9165 29.0371 59.8667C29.7565 59.8295 29.8094 59.8624 30.966 61.0659C31.6199 61.7464 32.4165 62.6328 32.7361 63.0354C33.0557 63.4381 33.5093 63.9619 33.7439 64.1993C34.4392 64.903 35.1364 65.873 36.0256 67.3746C36.9781 68.9831 37.4709 69.5652 38.6092 70.4258C39.4896 71.0914 39.8822 71.1882 39.8903 70.7416C39.8931 70.5816 40.0054 70.3053 40.1397 70.1279C40.2739 69.9503 40.387 69.651 40.3908 69.4628C40.3948 69.2744 40.6236 68.4845 40.8994 67.7071C41.1754 66.9298 41.3951 66.0837 41.3879 65.8266C41.3806 65.5697 41.5258 65.0177 41.7107 64.6C41.8954 64.1823 42.0465 63.7154 42.0465 63.5625C42.0465 63.4095 42.1144 63.2133 42.1973 63.1263C42.2803 63.0395 42.424 62.7065 42.5167 62.3864C42.6094 62.0664 42.8438 61.393 43.0377 60.89C43.5771 59.4898 43.9094 57.928 43.7343 57.6153C43.5985 57.3727 43.5661 57.3775 43.4164 57.6626C43.3248 57.8374 43.1948 58.2421 43.1278 58.5622C43.0606 58.8822 42.9487 59.2189 42.879 59.3104C42.8094 59.4018 42.6983 59.6527 42.6321 59.8679C42.5661 60.0831 42.3305 60.5265 42.1089 60.8534C41.8871 61.1803 41.6644 61.6402 41.6142 61.8755C41.4631 62.583 40.8495 64.2159 40.7376 64.2086C40.6803 64.2048 40.4498 63.812 40.2257 63.3357C39.7844 62.3979 39.7608 61.6126 40.151 60.8577C40.2797 60.6091 40.4033 60.047 40.4259 59.6087L40.4669 58.8116L38.2716 58.8683L36.0765 58.9251L34.6137 57.7888C33.8092 57.164 32.5279 56.0535 31.7666 55.3212C30.4437 54.0489 29.9087 53.6831 29.9087 54.0507ZM16.5238 55.9984C15.2541 56.8399 14.1494 57.1103 12.3735 57.014C10.4595 56.9103 9.7121 56.734 8.83701 56.1805C8.4501 55.9357 8.10608 55.7355 8.0725 55.7355C7.98154 55.7355 6.69493 59.3362 6.40894 60.3912C6.27277 60.8941 6.03483 61.792 5.88037 62.3864C5.7259 62.9809 5.53103 63.6414 5.44739 63.8546C5.36392 64.0676 5.2216 64.7784 5.13131 65.4342C5.04102 66.0898 4.89022 66.9631 4.79627 67.3746C3.59778 72.6253 2.94517 76.3232 2.98324 77.6459C3.0283 79.2042 3.99883 82.8289 4.89687 84.7921C5.68101 86.5063 7.3266 87.8222 10.3649 89.1645C11.4518 89.6447 12.6995 89.5481 14.7919 88.8219C17.1327 88.0093 18.9061 86.4413 20.8944 83.427C21.9283 81.8594 22.0822 81.532 21.9978 81.0812C21.9116 80.6225 21.9782 80.4926 22.5333 80.035C22.882 79.7476 23.2438 79.5101 23.3373 79.5071C23.4307 79.5043 23.7179 79.3166 23.9754 79.0901L24.4436 78.6781L24.2622 77.0584C24.1623 76.1677 23.9746 74.7654 23.8451 73.9423C23.4844 71.6529 23.2267 69.0558 23.3418 68.8697C23.3985 68.7779 23.3675 68.46 23.2729 68.1634C23.1783 67.8668 22.9392 67.1002 22.7415 66.4601C22.5438 65.8199 22.318 65.2147 22.2399 65.115C22.1616 65.0154 21.9123 64.3666 21.6859 63.673C21.1062 61.8974 19.8677 59.3982 19.5095 59.2815C19.4221 59.253 19.1803 59.4795 18.9723 59.7849C18.4021 60.6223 17.6819 61.3888 17.465 61.3888C17.3588 61.3888 17.272 61.4583 17.272 61.5433C17.272 61.6281 17.1759 61.7965 17.0583 61.9174C16.5678 62.4217 14.8906 66.1675 14.3917 67.8734C13.7793 69.9668 13.412 71.1307 13.2879 71.3714C13.2156 71.5123 13.1041 71.9366 13.0402 72.3145C12.906 73.1083 12.5725 73.3125 12.011 72.9447C11.6246 72.6915 11.4611 72.0302 11.785 72.0302C11.8765 72.0302 11.9518 71.8619 11.9525 71.6561C11.9531 71.4503 12.1472 70.7208 12.3836 70.0349C12.6202 69.3491 12.9589 68.2745 13.1365 67.6468C13.7035 65.6425 15.318 62.1034 16.0386 61.2854C16.2704 61.0222 16.5698 60.601 16.704 60.3496C16.8382 60.0982 17.0086 59.8923 17.0828 59.8923C17.2274 59.8923 17.5769 55.5668 17.4383 55.4921C17.3925 55.4674 16.981 55.6953 16.5238 55.9984ZM59.3363 63.4707C58.9261 63.7011 58.4263 63.9732 58.2256 64.0751C57.6791 64.3528 57.6483 64.6226 58.0309 65.7882C58.2778 66.5404 58.4469 66.8247 58.6099 66.7622C58.7364 66.7137 58.84 66.5785 58.84 66.4616C58.84 66.2358 60.0756 65.0468 60.3102 65.0468C60.504 65.0468 60.8353 64.2763 60.8353 63.8252C60.8353 63.4285 60.5544 63.0515 60.2591 63.0515C60.1617 63.0515 59.7463 63.2401 59.3363 63.4707ZM61.9928 65.7051C61.6763 65.9757 61.3329 66.2002 61.2297 66.2039C61.1266 66.2077 60.946 66.3267 60.8283 66.4684C60.7107 66.6102 60.4583 66.7142 60.2676 66.6994C59.6576 66.6525 59.5947 66.6962 59.1976 67.4448C58.8407 68.1177 58.8244 68.2482 59.0054 68.9828C59.1143 69.4242 59.242 70.0697 59.2893 70.4169C59.3365 70.764 59.4304 71.0259 59.4978 70.9988C59.5653 70.9717 60.1193 70.3883 60.7288 69.7024C61.4293 68.9144 61.9054 68.2106 62.0223 67.7903C62.2165 67.0918 62.5779 66.1495 62.8289 65.6883C62.9695 65.4294 62.898 65.2131 62.6719 65.2131C62.615 65.2131 62.3094 65.4345 61.9928 65.7051ZM63.2161 69.7217C62.6067 70.0358 62.077 70.1964 61.7852 70.1557C61.4051 70.1025 61.2149 70.2188 60.7258 70.804C59.6838 72.0507 59.6592 72.1556 60.0185 73.8087C60.4764 75.916 60.3966 75.8526 61.3725 74.8819C61.8459 74.4109 62.2928 74.0255 62.3656 74.0255C62.4384 74.0255 62.498 73.8763 62.498 73.6943C62.498 73.512 62.7299 73.1565 63.0136 72.9045C63.5726 72.4071 63.9063 71.8626 64.3644 70.7C64.9427 69.2323 64.6497 68.9828 63.2161 69.7217ZM64.1607 73.9423C63.9321 74.073 63.6075 74.1826 63.4392 74.1859C63.2711 74.1891 62.57 74.7517 61.8811 75.436C60.8472 76.4632 60.6472 76.746 60.735 77.0571C60.7934 77.2645 60.888 77.9018 60.9453 78.4732C61.0027 79.0449 61.1099 79.5124 61.1838 79.5124C61.2574 79.5124 61.8266 79.0045 62.4483 78.3838C63.3019 77.5317 63.7769 76.8636 64.388 75.6558C65.3351 73.7835 65.2719 73.307 64.1607 73.9423Z" fill="#111F78"/>
</svg>
