<svg width="120" height="120" viewBox="0 0 120 120" fill="none" xmlns="http://www.w3.org/2000/svg">
<path d="M32.0728 18.5766C33.0035 18.6179 33.6548 18.7983 33.784 19.0507C33.9387 19.353 33.8467 20.0326 33.48 21.2979C32.4256 24.9352 30.408 28.0335 26.7758 31.5933C24.5339 33.7905 21.5068 35.9574 18.1881 37.7405C17.0209 38.3677 14.4916 39.5952 14.1408 39.7047C14.032 39.7387 14.0198 39.8074 14.047 40.2303C14.0955 40.9847 13.7895 42.3512 13.4296 42.988C12.7257 44.2334 11.2376 45.3753 9.33396 46.1306C8.05844 46.6368 8.09056 46.7009 8.54225 44.5497C8.88377 42.923 8.89818 42.8058 8.82913 42.2196C8.75991 41.6315 8.74427 41.5977 8.49937 41.5045C8.29519 41.4268 8.16592 41.4392 7.87157 41.564C5.33967 42.2196 3.60615 38.7723 4.52219 37.5001C4.72952 37.2122 4.7413 37.1677 4.69038 36.865C4.63946 36.5623 4.60692 36.5271 4.22627 36.3636C3.5725 36.0827 2.69279 35.9356 1.56585 35.9186C0.989352 35.91 0.393542 35.8657 0.241741 35.8203C-0.0167603 35.7429 -0.0302666 35.7221 0.0291207 35.492C0.178553 34.9131 1.64031 33.3421 2.74002 32.5784C4.22337 31.5485 5.35307 31.3295 7.04876 31.7433L7.92409 31.9569L8.2881 31.5121C8.8514 30.8239 10.5487 29.0063 11.4826 28.091C14.5953 25.0408 18.1871 22.4903 21.6349 20.8822C25.2593 19.1918 28.7187 18.4276 32.0728 18.5766ZM26.467 19.661C26.3719 19.6094 26.0465 19.6634 25.5106 19.8197C21.9468 20.8589 17.8336 23.136 14.3078 26.0216C10.6914 28.9813 7.74269 32.5784 5.26685 36.865C8.16284 36.5456 9.01497 39.4602 8.49937 41.1332C12.3478 39.8339 16.1692 38.5938 19.6723 36.5117C23.6575 34.143 26.9644 31.2451 29.5612 27.846C29.997 27.2757 30.4748 26.6296 30.623 26.4102L30.8925 26.0115C31.1903 23.5839 30.0252 20.3071 26.467 19.661Z" fill="#111F78"/>
<path d="M19.6919 28.8756C20.4411 29.7303 20.4888 30.9137 19.7985 31.5188C19.1082 32.1239 17.9412 31.9216 17.192 31.067C16.4428 30.2123 16.3951 29.0289 17.0854 28.4237C17.7757 27.8186 18.9427 28.0209 19.6919 28.8756Z" fill="#111F78"/>
<path d="M23.9384 25.4731C24.6276 26.2594 24.6715 27.3482 24.0365 27.9049C23.4014 28.4616 22.3278 28.2755 21.6385 27.4892C20.9493 26.7029 20.9053 25.6141 21.5404 25.0574C22.1755 24.5007 23.2491 24.6868 23.9384 25.4731Z" fill="#111F78"/>
<path d="M27.7093 22.7767C28.2809 23.4288 28.3174 24.3317 27.7907 24.7933C27.264 25.255 26.3737 25.1007 25.8021 24.4486C25.2305 23.7965 25.194 22.8936 25.7207 22.432C26.2474 21.9703 27.1377 22.1246 27.7093 22.7767Z" fill="#111F78"/>
<path d="M7.17265 35.3724C7.26718 35.3686 7.36107 35.3697 7.45582 35.3764C7.83332 35.4024 8.20946 35.5152 8.54255 35.7048C9.72049 36.3506 10.4723 37.7423 10.2754 39.05C10.2631 39.143 10.2468 39.2338 10.2266 39.3252C10.1727 39.3169 10.1187 39.3085 10.0648 39.3002C10.0723 39.2113 10.0762 39.1241 10.0769 39.0358C10.0965 37.7965 9.36487 36.6641 8.3268 36.0848C8.03115 35.917 7.72455 35.7665 7.39751 35.632C7.31536 35.5983 7.23276 35.5658 7.14762 35.5343C7.15592 35.4803 7.16435 35.4264 7.17265 35.3724Z" fill="#111F78"/>
<path d="M87.1184 86.0408C90.7594 89.3177 88.9247 96.8564 88.2835 97.5462C88.1829 96.7414 87.2666 96.7952 86.8272 97.4005C86.6304 97.6716 86.6815 98.2278 86.6815 98.5656C84.5698 98.1287 83.0406 94.8519 83.1862 92.4489C83.0146 92.982 78.9504 94.9975 78.1617 94.9975C77.4406 97.9272 76.7752 99.5736 75.6131 100.161C75.2263 99.5583 73.9383 98.5656 73.6304 100.161C73.3557 100.195 73.0677 100.189 72.7732 100.095C71.0239 99.5382 70.2943 96.7127 71.1588 94.7063C66.9477 93.9053 65.9282 91.0653 66.5836 88.5167C67.0433 87.9451 68.3131 86.9596 70.5886 87.3516C71.7989 86.0669 77.3607 83.9291 78.5987 87.7157C80.2943 86.178 84.473 83.6599 87.1184 86.0408Z" fill="#A4D2F6"/>
<path d="M102.291 54.8205C64.7855 46.3225 40.0457 56.4253 31.3781 63.2632C28.2725 65.4135 24.5761 61.1129 24.2317 56.1672C23.5728 46.706 21.5626 37.8715 36.7164 28.0413C74.0415 3.82884 110.204 22.4075 114.983 25.3749C119.762 28.3424 121.489 32.9562 118.504 37.1068C117.715 38.203 111.977 48.5266 106.124 53.5638C104.877 54.6371 104.231 55.26 102.291 54.8205Z" fill="#A4D2F6"/>
<path d="M91.5495 96.776C92.0585 96.6582 92.7215 96.5313 93.2224 97.0429C93.6773 97.6273 93.3541 98.2938 93.0712 98.7271C92.3923 99.648 91.489 100.263 90.5692 100.836C89.6257 101.325 88.687 102.086 87.4263 101.73C86.5076 100.807 86.6873 99.6103 86.5997 98.544C86.5923 98.1996 86.5938 97.8568 86.5999 97.5136L86.5993 97.4849L86.6215 97.4582L86.6646 97.4078C86.8837 97.1584 87.1566 96.9389 87.5023 96.8368C87.6643 96.7915 87.8476 96.7734 88.0321 96.8352C88.217 96.8933 88.3767 97.0599 88.4367 97.2423C88.5213 97.481 88.5584 97.7179 88.5933 97.9483C88.6104 98.063 88.6256 98.1774 88.6443 98.284C88.6483 98.3065 88.6526 98.3288 88.6571 98.3502C88.6635 98.3461 88.6701 98.3423 88.6765 98.3382C88.7382 98.2988 88.7993 98.258 88.8622 98.2158C88.9867 98.1321 89.113 98.0462 89.24 97.9616C89.4939 97.7924 89.7533 97.626 90.0192 97.47C90.4958 97.1939 90.9872 96.9286 91.5495 96.776ZM88.1224 97.3451C88.0731 97.1288 87.8301 97.0352 87.564 97.0916C87.2739 97.1491 86.9963 97.3278 86.7644 97.5478C86.7689 97.7884 86.7754 98.0283 86.7856 98.2682C86.7894 98.3576 86.7937 98.447 86.7986 98.5365C86.8032 98.5908 86.8077 98.6458 86.812 98.7014C86.8894 99.6995 86.9252 100.885 87.5782 101.478C89.4244 101.573 91.4865 99.9843 92.7286 98.4992C92.9906 98.1137 93.1459 97.5887 92.9014 97.3219C92.6599 97.0471 92.1139 97.0722 91.6595 97.1957C91.1749 97.3279 90.6989 97.5799 90.2404 97.8468C89.9832 97.9978 89.7283 98.1577 89.4741 98.3203C89.4307 98.348 89.3873 98.3758 89.3439 98.4037C89.2597 98.4576 89.1753 98.5118 89.0901 98.5657C89.0246 98.607 88.9606 98.6471 88.8912 98.6882C88.875 98.6979 88.8567 98.7085 88.8388 98.7187C88.8215 98.7285 88.8028 98.7389 88.7831 98.7493C88.7655 98.7585 88.7418 98.7706 88.7194 98.7804C88.7089 98.7851 88.691 98.7926 88.6749 98.7979C88.6734 98.7984 88.6716 98.7989 88.6695 98.7996C88.6543 98.8045 88.6244 98.8142 88.5818 98.8144C88.5135 98.8159 88.443 98.7794 88.4094 98.7468C88.3728 98.7131 88.3558 98.6841 88.3418 98.6588C88.3161 98.6094 88.3057 98.572 88.2957 98.5356C88.2776 98.4653 88.2687 98.4035 88.2605 98.3426C88.2489 98.2532 88.2408 98.1669 88.2328 98.0822C88.2301 98.0524 88.2273 98.0228 88.2245 97.9933C88.2091 97.8337 88.1927 97.6757 88.1644 97.5263C88.1527 97.4642 88.139 97.4037 88.1224 97.3451Z" fill="#111F78"/>
<path d="M74.2157 99.0043C74.5141 98.9888 74.8368 99.0852 75.0624 99.1768C75.1726 99.2216 75.3023 99.2787 75.4197 99.3759C75.5414 99.4768 75.6402 99.6124 75.7074 99.8015C75.8157 100.106 75.8417 100.553 75.7653 101.235C76.9009 100.697 77.7182 100.633 78.297 100.844C78.946 101.082 79.2268 101.639 79.3139 102.081C79.3767 102.4 79.208 102.714 78.9954 102.975C78.775 103.246 78.4636 103.514 78.1358 103.758C77.4785 104.247 76.7156 104.668 76.3664 104.845C75.993 105.034 75.2153 105.257 74.4505 105.357C74.0657 105.407 73.6726 105.428 73.326 105.394C72.9866 105.362 72.6561 105.274 72.4321 105.075C72.2877 104.947 72.2274 104.755 72.2041 104.567C72.1801 104.375 72.1905 104.148 72.221 103.907C72.2824 103.424 72.4314 102.84 72.6039 102.262C72.777 101.683 72.9768 101.101 73.1431 100.62C73.3123 100.13 73.4405 99.7618 73.48 99.5912C73.5251 99.3965 73.6238 99.2467 73.7659 99.1467C73.9035 99.0498 74.064 99.0122 74.2157 99.0043ZM74.2385 99.4406C74.1392 99.4458 74.0669 99.469 74.0173 99.5039C73.9722 99.5357 73.9292 99.5885 73.9057 99.6899C73.8823 99.7909 73.8349 99.9431 73.7727 100.13C73.7292 100.261 73.6784 100.408 73.6234 100.568C73.6122 100.6 73.6009 100.632 73.5895 100.666C73.5785 100.697 73.5673 100.73 73.5561 100.762C73.3898 101.244 73.1926 101.818 73.0225 102.388C72.8517 102.959 72.7111 103.516 72.6544 103.962C72.626 104.186 72.6202 104.372 72.6378 104.513C72.656 104.66 72.695 104.724 72.7222 104.748C72.8415 104.854 73.0583 104.93 73.3679 104.959C73.6703 104.989 74.0281 104.971 74.3941 104.924C75.1312 104.827 75.8554 104.614 76.1686 104.455C76.506 104.284 77.2449 103.877 77.8749 103.408C78.1907 103.173 78.4694 102.929 78.6567 102.699C78.8517 102.459 78.9082 102.283 78.8852 102.166C78.8165 101.817 78.6058 101.423 78.1469 101.255C77.6793 101.084 76.8872 101.122 75.5979 101.809C75.3368 101.948 75.0564 102.113 74.7555 102.307L74.5184 101.94C74.7916 101.764 75.05 101.609 75.2944 101.476C75.3556 101.04 75.3769 100.712 75.3714 100.463C75.3672 100.271 75.347 100.126 75.3168 100.015C75.3102 99.9913 75.3031 99.9688 75.2956 99.9478C75.2534 99.8289 75.1988 99.7603 75.1409 99.7123C75.0785 99.6606 75.0023 99.6239 74.898 99.5816C74.6945 99.4989 74.4422 99.43 74.2385 99.4406Z" fill="#111F78"/>
<path fill-rule="evenodd" clip-rule="evenodd" d="M72.1227 74.19C72.1145 74.0341 72.1167 73.8787 72.1337 73.7264C72.5309 73.4852 73.6102 73.0063 74.7996 73.0063C75.9406 73.0063 76.6489 73.613 76.8713 73.879C76.8961 74.0245 76.9134 74.1759 76.9241 74.3296C76.7842 74.4807 76.4851 74.7219 76.1414 74.7526C75.8817 74.7759 75.7234 74.5011 75.5709 74.2363C75.4437 74.0155 75.3205 73.8016 75.1458 73.773C74.8781 73.7291 74.6793 73.9455 74.4666 74.1772C74.2667 74.3949 74.0544 74.6262 73.7608 74.6674C73.3963 74.7187 73.0944 74.4617 72.8552 74.258C72.6967 74.1231 72.5658 74.0116 72.4623 74.0285C72.2681 74.0604 72.1596 74.1444 72.1227 74.19Z" fill="#111F78"/>
<path fill-rule="evenodd" clip-rule="evenodd" d="M75.3283 71.2599C74.2156 71.2912 73.2141 72.0836 72.8217 72.5009C72.8441 72.4828 72.8673 72.465 72.8912 72.4475C72.9174 72.4283 72.9444 72.4094 72.9723 72.3909C74.4614 71.4032 76.1632 72.1762 76.6312 73.1638C76.6511 73.2057 76.6697 73.2495 76.6872 73.2947C77.0357 73.2721 77.2319 73.1839 77.3405 73.0746C77.4963 72.9176 77.4717 72.7172 77.4578 72.6045C77.4548 72.5799 77.4523 72.5594 77.4523 72.5445C77.4523 72.4366 77.088 71.6275 76.1093 71.351C75.8829 71.2871 75.6236 71.2516 75.3283 71.2599Z" fill="#111F78"/>
<path d="M69.1722 82.5147C69.0435 82.7421 68.9207 82.9649 68.7979 83.1942C67.2543 86.2234 65.3035 90.3897 67.8626 93.0782C68.5777 93.7534 69.5245 94.1653 70.504 94.4407C70.7611 94.5119 70.992 94.5693 71.2558 94.6252C71.2481 94.6793 71.2404 94.7333 71.2327 94.7873C70.96 94.7669 70.7184 94.7411 70.4477 94.6967C69.4176 94.5292 68.3637 94.1505 67.5628 93.396C64.7148 90.2815 66.9737 86.0648 68.6245 83.0965C68.7581 82.8712 68.8917 82.653 69.0315 82.4308C69.0784 82.4588 69.1253 82.4867 69.1722 82.5147Z" fill="#111F78"/>
<path fill-rule="evenodd" clip-rule="evenodd" d="M77.1938 85.7575C75.1474 84.8982 72.865 85.6926 71.1793 86.8854C70.6576 87.2529 70.1631 87.6669 69.7283 88.1338L69.8475 88.2462C70.2801 87.7991 70.7745 87.4002 71.2922 87.0494C72.9717 85.9042 75.1816 85.199 77.0786 86.0322C79.0669 87.1058 78.7196 89.8667 78.4526 91.9896C78.4412 92.0793 78.4301 92.1679 78.4193 92.2552C78.0563 94.5453 77.411 96.7911 76.6754 98.9945C76.3897 99.4907 75.8931 99.8334 75.3168 100.015C75.347 100.126 75.3672 100.271 75.3714 100.463C76.0589 100.243 76.6744 99.801 77.0784 99.1243C77.8064 96.9124 78.4448 94.6382 78.7922 92.3114C78.9589 91.1497 79.0621 89.9621 78.9417 88.777C78.8249 87.6348 78.4144 86.2517 77.1938 85.7575ZM73.6234 100.568C73.6784 100.408 73.7292 100.261 73.7727 100.13C72.9303 100.003 72.1449 99.567 71.7494 98.8033C71.688 98.7 71.6365 98.6019 71.5855 98.4917C70.7907 96.3527 71.4935 93.8583 72.1267 91.6113L72.1396 91.5654C72.3241 90.9645 72.5283 90.3652 72.7592 89.7813L72.6088 89.7165C72.3418 90.292 72.1051 90.8849 71.8908 91.4828L71.8294 91.6718C71.1096 93.8854 70.3304 96.2818 71.1891 98.6743C71.2462 98.7983 71.3042 98.9093 71.3741 99.027C71.8519 99.8738 72.7025 100.397 73.6234 100.568Z" fill="#111F78"/>
<path d="M83.487 92.3845C81.5785 94.3032 78.9988 94.9955 78.1421 95.2095L78.0363 94.7856C78.8839 94.5739 81.3595 93.9039 83.1773 92.0764L83.487 92.3845Z" fill="#111F78"/>
<path fill-rule="evenodd" clip-rule="evenodd" d="M87.2827 85.8831C85.0393 84.0529 81.9902 85.2577 79.9303 86.6411C79.4424 86.9704 78.9763 87.329 78.5439 87.7278L78.654 87.8492C79.0864 87.4667 79.5533 87.122 80.0398 86.8072C82.1061 85.4692 85.0662 84.4198 87.0743 86.1335C89.9188 89.0064 89.4076 93.9902 88.2184 97.4595C88.2005 97.4821 88.1825 97.5044 88.1644 97.5263C88.1724 97.5686 88.1795 97.6116 88.1858 97.6551C88.1902 97.685 88.1942 97.7151 88.198 97.7455C88.2081 97.827 88.2165 97.9099 88.2245 97.9933L88.2328 98.0822C88.2929 98.0187 88.3499 97.9547 88.4053 97.8926C88.4485 97.8441 88.4907 97.7968 88.5326 97.7516C89.917 93.8237 90.3472 89.0367 87.2827 85.8831ZM86.812 98.7014C86.8077 98.6458 86.8032 98.5908 86.7986 98.5365C86.7949 98.4696 86.7916 98.4027 86.7886 98.3358L86.7856 98.2682C86.6731 98.2551 86.557 98.225 86.437 98.1759C85.8037 97.9609 85.2553 97.5469 84.8417 97.0161C83.5014 95.2038 83.3258 92.7167 83.5229 90.4489C83.5826 89.8744 83.6774 89.2998 83.8366 88.7499L83.6809 88.6989C83.4824 89.2521 83.353 89.8323 83.2627 90.4156C82.9528 92.7193 83.0304 95.2805 84.4981 97.2859C84.9536 97.8721 85.5796 98.3467 86.2957 98.5875C86.4553 98.6439 86.6312 98.6856 86.812 98.7014Z" fill="#111F78"/>
<path d="M77.7221 82.2842C77.7763 82.3606 77.828 82.4414 77.8762 82.5227C78.5338 83.6859 78.7328 85.0224 78.8347 86.3175C78.8607 86.6893 78.848 87.0643 78.798 87.4366C78.7856 87.5293 78.7708 87.6243 78.7537 87.7147C78.6991 87.7153 78.6444 87.716 78.5898 87.7167C78.5705 87.6272 78.5525 87.5335 78.5359 87.4425C78.4695 87.0764 78.4244 86.712 78.399 86.3479C78.2987 85.0771 78.1847 83.7857 77.6992 82.6137C77.6632 82.5313 77.6239 82.449 77.5825 82.3701C77.629 82.3415 77.6756 82.3128 77.7221 82.2842Z" fill="#111F78"/>
<path d="M80.8818 76.1594C81.3268 75.8601 81.96 76.1824 82.1325 76.6126L82.1386 76.6268C82.8464 79.0996 83.1365 81.6556 82.4624 84.2083C82.343 84.5154 82.1811 84.8604 81.8234 85.0665C80.8286 85.5671 79.7889 85.1504 78.9748 84.7085C78.6975 84.5512 78.431 84.3732 78.1862 84.1708C78.2186 84.1269 78.251 84.0829 78.2835 84.0391C78.5398 84.2048 78.8147 84.3495 79.0933 84.4747C79.9122 84.8358 80.8953 85.1011 81.6154 84.695C81.8065 84.5854 81.9539 84.3238 82.0531 84.0556C82.675 81.7505 82.4289 79.0823 81.8045 76.7573C81.6614 76.4464 81.3268 76.279 81.0456 76.4469C80.8184 76.5636 80.8323 77.0295 80.9011 77.3969L80.9024 77.4053C81.0198 78.4709 80.9007 79.5583 80.5353 80.5617C80.4252 80.8594 80.2957 81.1511 80.1253 81.4231C80.0786 81.3947 80.032 81.3662 79.9853 81.3378C80.1357 81.0758 80.2514 80.7878 80.3471 80.4966C80.6656 79.5126 80.7458 78.4602 80.6051 77.4422L80.6066 77.4507C80.5518 77.0675 80.3841 76.5297 80.8818 76.1594Z" fill="#111F78"/>
<path d="M65.6411 74.1644C65.8973 73.4186 66.6611 72.674 67.5744 72.8539L67.5817 72.8557C68.4472 73.1722 68.6651 74.1195 68.5036 74.875C68.1339 76.5018 67.8041 78.1708 67.6037 79.8368C67.5695 80.2225 67.5013 80.6873 67.6037 80.9908C67.5582 81.0209 67.5127 81.0512 67.4672 81.0814C67.296 80.6232 67.3906 80.2287 67.4055 79.8181C67.5622 78.1246 67.8497 76.4634 68.194 74.7981C68.3328 74.1918 68.0505 73.3647 67.4932 73.2023C66.8444 73.0866 66.2259 73.638 66.0056 74.3031C65.1045 76.6441 64.1205 79.0667 64.1926 81.5315C64.2383 82.4259 64.5901 83.3361 65.4219 83.6586C66.0133 83.903 66.6977 83.9655 67.3553 83.9008C67.7335 83.8546 68.1845 83.7825 68.4067 83.5341C68.4536 83.5621 68.5006 83.5901 68.5475 83.6181C68.2411 84.0115 67.7974 84.0698 67.3921 84.1604C66.6987 84.2777 65.971 84.2596 65.2829 84.0103C64.2539 83.6667 63.7925 82.5117 63.7567 81.5605C63.6854 78.9186 64.7165 76.4963 65.6411 74.1644Z" fill="#111F78"/>
<path d="M70.7594 78.5924C74.1413 77.9339 77.7194 79.0967 80.2375 81.3371C80.4191 81.4967 80.5949 81.6606 80.7669 81.8306C80.7294 81.8704 80.6919 81.9101 80.6545 81.9499C80.4765 81.7909 80.2956 81.6381 80.1096 81.4895C77.525 79.4074 74.0774 78.3945 70.8409 79.0217C69.9205 79.1962 69.018 79.4714 68.1475 79.8431C67.9288 79.9366 67.7145 80.0347 67.4992 80.1404C67.4715 80.0933 67.4439 80.0462 67.4162 79.9992C67.6161 79.8603 67.8191 79.7309 68.03 79.6088C68.8692 79.1219 69.7991 78.7741 70.7594 78.5924Z" fill="#111F78"/>
<path d="M77.5066 74.6667C77.5066 74.2544 77.4298 73.7781 77.2684 73.3036C77.1663 73.3567 77.0395 73.3964 76.8836 73.4201C76.9246 73.5557 76.9572 73.6996 76.9818 73.8479C77.0071 73.9997 77.0245 74.1571 77.0353 74.3161C77.0793 74.9631 77.0131 75.6559 76.8965 76.1353C76.9909 76.0698 77.0865 75.985 77.1728 75.8726C77.3544 75.6363 77.5066 75.2648 77.5066 74.6667ZM75.4474 71.1133C74.7904 70.8044 73.9579 70.7085 72.9251 70.9856C71.2986 71.422 70.6019 72.4099 70.3481 73.4192C70.0911 74.4411 70.2868 75.4955 70.4723 76.0363C70.6207 76.4691 70.7904 76.733 70.9811 76.8991C71.17 77.0636 71.3933 77.1443 71.6742 77.1847C71.9211 77.2203 72.1002 77.1346 72.2202 76.9832C72.3453 76.8254 72.4145 76.584 72.4014 76.3051C72.3906 76.0774 72.312 75.7683 72.2239 75.393C72.1378 75.0263 72.0466 74.6092 72.0251 74.1928C72.0166 74.0294 72.0189 73.8647 72.0366 73.7021C72.0891 73.2198 72.2782 72.7558 72.7221 72.3942C72.9283 72.1764 73.2851 71.8687 73.7319 71.6097C74.1831 71.3482 74.7356 71.1309 75.3242 71.1143C75.3659 71.1132 75.407 71.1129 75.4474 71.1133ZM75.1443 72.1766C74.5116 71.9942 73.7587 72.0439 73.0529 72.512C73.0267 72.5294 73.0015 72.5472 72.9772 72.565L72.9538 72.5825C72.9398 72.5931 72.9263 72.6037 72.9131 72.6144C72.6236 72.8477 72.4604 73.1311 72.3791 73.4425C72.897 73.1826 73.8099 72.8463 74.8018 72.8463C75.6092 72.8463 76.2083 73.1481 76.5818 73.432C76.572 73.4031 76.562 73.3747 76.5513 73.3471C76.5351 73.305 76.5178 73.2645 76.4996 73.2261C76.2867 72.7769 75.7821 72.3605 75.1443 72.1766ZM77.7979 74.6667C77.7979 75.3167 77.6313 75.7539 77.4038 76.0501C77.1982 76.3177 76.9515 76.4579 76.7628 76.539C76.7467 76.5732 76.7298 76.6053 76.7116 76.634C76.355 77.1964 76.0322 77.3898 75.7505 77.4926C75.6835 77.5171 75.6199 77.536 75.5646 77.5528C75.5077 77.5701 75.4603 77.5851 75.4171 77.6027C75.3358 77.6359 75.2738 77.6769 75.2193 77.7555C75.1282 77.8867 75.1019 78.0753 75.1181 78.278C75.1342 78.4775 75.1897 78.6669 75.2345 78.7768L74.9647 78.8869C74.9102 78.7534 74.8466 78.5347 74.8279 78.3013C74.8094 78.0711 74.8327 77.8017 74.9799 77.5895C75.0743 77.4534 75.1877 77.3816 75.3072 77.3329C75.3643 77.3096 75.4237 77.2912 75.4797 77.2742C75.5372 77.2566 75.5926 77.2402 75.6506 77.219C75.8688 77.1394 76.1416 76.9891 76.4657 76.478C76.4821 76.4522 76.5 76.4169 76.5189 76.3713C76.6758 75.9929 76.7993 75.138 76.7448 74.3358C76.7354 74.1988 76.7206 74.0644 76.7004 73.9349C76.4756 73.6767 75.8279 73.1376 74.8018 73.1376C73.724 73.1376 72.7366 73.5625 72.3195 73.8049C72.3099 73.9268 72.3095 74.0515 72.316 74.1777C72.3361 74.5655 72.4214 74.9601 72.5073 75.3264C72.5913 75.6841 72.68 76.0293 72.6924 76.2914C72.7079 76.6205 72.6283 76.9372 72.4485 77.1641C72.2635 77.3974 71.9814 77.5232 71.6327 77.473C71.3179 77.4277 71.0349 77.3321 70.7898 77.1187C70.5467 76.907 70.3546 76.5911 70.1968 76.1308C69.9993 75.5552 69.7908 74.4411 70.0656 73.3482C70.3436 72.2428 71.1149 71.1697 72.8495 70.7043C74.2905 70.3177 75.3991 70.6118 76.1989 71.2362L76.0698 71.4911C75.858 71.4313 75.6134 71.3975 75.3323 71.4055C74.8232 71.4198 74.3324 71.6041 73.9144 71.841C74.3712 71.7489 74.8203 71.78 75.2251 71.8967C75.9274 72.0992 76.5077 72.5631 76.7628 73.1015C76.7688 73.1141 76.7743 73.1271 76.78 73.14C77.0417 73.1098 77.1719 73.0376 77.2371 72.9719L77.3954 72.8126L77.4764 73.0221C77.6939 73.5855 77.7979 74.1655 77.7979 74.6667Z" fill="#111F78"/>
<path d="M72.1023 77.2494C72.4212 77.4504 72.7806 77.5601 73.1296 77.5273L73.281 77.5229L73.2771 77.6667C73.2811 77.8152 73.2832 77.9638 73.2832 78.1123C73.2832 78.2653 73.2637 78.4184 73.2249 78.5714C73.2152 78.6097 73.2043 78.6479 73.1922 78.6862H73.0829C73.0708 78.6479 73.0599 78.6097 73.0502 78.5714C73.0114 78.4184 72.9919 78.2653 72.9919 78.1123C72.9919 78.0093 72.9932 77.9064 72.9952 77.8034C72.622 77.7763 72.2746 77.5969 72.0211 77.3544C71.9923 77.3274 71.9639 77.2992 71.9375 77.2718C71.9608 77.2438 71.9841 77.2158 72.0074 77.1879C72.0387 77.2088 72.0706 77.2297 72.1023 77.2494Z" fill="#111F78"/>
<path d="M68.6173 70.0794C68.8845 70.0438 69.3106 70.1164 69.4265 70.4845L69.4293 70.4937C69.5266 70.8629 69.6227 71.2323 69.7177 71.6021C69.7518 71.7346 69.7847 71.8674 69.8162 72.0006L69.8199 72.0504C69.7884 72.2715 69.6687 72.4247 69.5463 72.5567C69.4111 72.6854 69.308 72.8011 69.0718 72.8683C69.0072 72.8745 68.9415 72.8721 68.877 72.8585C68.728 72.8212 68.5785 72.752 68.5289 72.563C68.565 72.5585 68.6012 72.554 68.6374 72.5495C68.6698 72.6165 68.798 72.6841 68.9021 72.6856C68.9486 72.6881 68.9952 72.6833 69.0416 72.6724C69.2318 72.5668 69.4982 72.2727 69.5347 72.046C69.5006 71.9225 69.4676 71.7987 69.4357 71.6747C69.3412 71.3072 69.2477 70.9394 69.1554 70.5713C69.0309 70.2022 68.3514 70.3552 67.9246 70.5572C67.3175 71.0569 67.0906 72.1108 66.764 72.9467C66.72 73.0707 66.6759 73.1948 66.6311 73.3186C66.5965 73.3073 66.562 73.296 66.5274 73.2846C66.5643 73.1587 66.601 73.0323 66.6377 72.9059C66.9457 72.0312 66.996 71.0584 67.8171 70.3289C68.0648 70.2094 68.327 70.1104 68.6173 70.0794Z" fill="#111F78"/>
<path d="M68.603 72.3448C68.6992 72.2366 68.9025 72.1985 69.019 72.2816C69.048 72.2992 69.0739 72.3201 69.0968 72.3459C69.0724 72.373 69.048 72.4001 69.0237 72.4271C69.0057 72.4165 68.9844 72.4076 68.9636 72.4022C68.8718 72.3788 68.8101 72.4155 68.762 72.4861C68.6527 72.6635 68.578 72.9989 68.2977 73.1899C68.1878 73.267 68.0479 73.2955 67.9237 73.2751C67.8918 73.2703 67.8623 73.2626 67.8317 73.2527C67.8291 73.2164 67.8264 73.1801 67.8238 73.1438C67.8497 73.1297 67.8728 73.1161 67.8963 73.1026C67.9884 73.0485 68.0611 72.9994 68.1316 72.9505C68.3169 72.8316 68.3873 72.5954 68.603 72.3448Z" fill="#111F78"/>
<path d="M80.4221 73.819C80.4766 73.6436 80.7121 73.4525 80.9448 73.524C81.0688 73.5603 81.1588 73.6181 81.2453 73.6947C81.3309 73.7723 81.3996 73.8743 81.4358 73.9868C81.4766 74.1068 81.4717 74.2607 81.3879 74.3768C81.3069 74.4948 81.1536 74.546 81.0329 74.521C80.9416 74.5045 80.8672 74.4583 80.8088 74.4039C80.8293 74.3738 80.8499 74.3438 80.8704 74.3138C80.9308 74.3405 80.9927 74.3528 81.0454 74.3466C81.1911 74.3268 81.227 74.1991 81.1739 74.0823C81.1457 74.0169 81.1033 73.9594 81.0491 73.91C80.9974 73.8623 80.9246 73.8199 80.8688 73.8038C80.7221 73.7435 80.6093 74.0335 80.6285 74.3131C80.6389 74.6901 80.7201 75.1266 80.9952 75.3241L81.0365 75.3442L81.0443 75.3976C81.0571 75.5997 81.0687 75.802 81.0793 76.0043C81.0831 76.0761 81.0868 76.1479 81.0903 76.2197C81.0541 76.2236 81.0178 76.2273 80.9816 76.2311C80.9701 76.1601 80.9587 76.0891 80.9474 76.0181C80.9181 75.8331 80.8895 75.648 80.8619 75.4627C80.472 75.1897 80.3983 74.7259 80.3619 74.3252C80.3531 74.1644 80.3537 73.9963 80.4221 73.819Z" fill="#111F78"/>
<path d="M81.6721 73.21C81.7656 73.194 81.8622 73.185 81.9678 73.1965C82.0686 73.2094 82.2074 73.2405 82.2959 73.3781C82.3019 73.3876 82.3075 73.3963 82.3135 73.4051C82.352 73.4598 82.3848 73.4903 82.4489 73.5277C82.5128 73.5578 82.6428 73.6614 82.6779 73.7647C82.7536 74.0275 82.7329 74.1699 82.773 74.3549C82.8273 74.63 82.9906 75.0324 82.8207 75.3845C82.6813 75.7251 82.4071 76.0206 82.0608 76.1569C81.6593 76.3083 81.2728 76.0056 81.1427 75.6895C81.0991 75.5972 81.0666 75.5013 81.0413 75.405C81.0761 75.3944 81.1109 75.3838 81.1457 75.3731C81.1771 75.462 81.2148 75.5483 81.2605 75.6282C81.4052 75.9098 81.7285 76.0882 81.9814 75.9718C82.2653 75.8393 82.4794 75.5855 82.5871 75.2913C82.7026 75.0203 82.5794 74.7586 82.4977 74.4083C82.4568 74.2245 82.4447 73.9815 82.4139 73.8822C82.3871 73.8292 82.3809 73.8247 82.3006 73.7778C82.2209 73.7346 82.1277 73.6528 82.0741 73.5708C82.0647 73.5572 82.0564 73.5442 82.0478 73.5302C82.0419 73.491 81.8568 73.4546 81.7059 73.4719C81.5508 73.4845 81.3732 73.5177 81.2457 73.5725C81.2263 73.5821 81.2082 73.593 81.1916 73.6054C81.1324 73.6491 81.0926 73.7171 81.1095 73.7834C81.0765 73.7987 81.0435 73.8141 81.0105 73.8294C80.9428 73.714 80.9904 73.5676 81.0694 73.4805C81.0915 73.4551 81.116 73.4326 81.1421 73.4127C81.3165 73.2955 81.4846 73.2466 81.6721 73.21Z" fill="#111F78"/>
<path d="M81.6072 73.968C81.6039 73.9841 81.6002 74.0004 81.5964 74.0163C81.5812 74.0801 81.5631 74.1387 81.5402 74.195C81.4616 74.3892 81.4203 74.6114 81.5681 74.7717C81.5783 74.7832 81.5886 74.7938 81.6003 74.8046C81.5898 74.8194 81.5792 74.8343 81.5687 74.8491C81.5532 74.8406 81.5389 74.8319 81.5244 74.8217C81.3015 74.6773 81.3118 74.3492 81.4051 74.1403C81.431 74.0766 81.4704 74.0197 81.5214 73.9717C81.5341 73.9598 81.5477 73.9482 81.5617 73.9379C81.5769 73.9479 81.592 73.958 81.6072 73.968Z" fill="#111F78"/>
<path d="M81.8031 74.3939C81.8755 74.3174 81.9779 74.2853 82.0691 74.2841C82.0922 74.2836 82.1149 74.2848 82.137 74.2871C82.1402 74.305 82.1434 74.3229 82.1466 74.3408C82.1269 74.3505 82.1077 74.3597 82.0892 74.3691C82.0151 74.4064 81.9542 74.4461 81.9085 74.4944C81.8837 74.5205 81.8642 74.5513 81.8501 74.5863C81.7791 74.7767 81.6453 74.9092 81.7122 75.0763C81.728 75.1298 81.7568 75.1769 81.8038 75.1964C81.8187 75.2029 81.838 75.2061 81.8506 75.2049C81.8554 75.2224 81.8603 75.2399 81.8652 75.2575C81.8363 75.2665 81.8113 75.2653 81.7854 75.2602C81.7063 75.2437 81.651 75.1761 81.622 75.1111C81.5753 75.0217 81.5685 74.891 81.6085 74.7952C81.6442 74.6988 81.6856 74.6197 81.7159 74.5347C81.7348 74.4836 81.7644 74.4344 81.8031 74.3939Z" fill="#111F78"/>
<path d="M82.4051 74.8215C82.3814 74.8392 82.3572 74.857 82.3334 74.8744C82.2382 74.9444 82.1405 75.0095 82.0509 75.0743C82.0263 75.0922 82.0024 75.1114 81.9842 75.1299C81.8948 75.2193 81.8426 75.3337 81.8681 75.448C81.8881 75.554 82.032 75.6157 82.1539 75.5583C82.2367 75.5237 82.3204 75.4916 82.4049 75.462C82.4332 75.4521 82.4613 75.4426 82.4901 75.4335C82.4967 75.4504 82.5033 75.4674 82.5099 75.4843C82.4836 75.4968 82.4571 75.5099 82.4307 75.5231C82.3516 75.5627 82.2732 75.6037 82.1956 75.6457C82.0527 75.737 81.7948 75.6848 81.7403 75.4792C81.6921 75.3142 81.7712 75.1364 81.88 75.0288C81.9077 75.0002 81.9363 74.9777 81.9647 74.9567C82.0674 74.8827 82.1783 74.8334 82.2942 74.7962C82.3231 74.7872 82.3526 74.7789 82.3822 74.7719C82.3898 74.7884 82.3975 74.805 82.4051 74.8215Z" fill="#111F78"/>
<path d="M35.7662 27.9116C52.9274 16.4254 74.9639 12.7048 94.9913 17.6163C101.873 19.2646 108.597 21.6361 114.755 25.2408C116.796 26.5274 118.675 28.3178 119.558 30.7142C120.488 33.1021 119.884 35.9299 118.386 37.8782C116.14 41.4482 113.78 45.1817 111.089 48.576C109.478 50.6041 107.757 52.572 105.761 54.255C105.215 54.6994 104.675 55.2248 103.919 55.5112C103.158 55.7967 102.354 55.6933 101.648 55.5236C97.7435 54.6596 93.8134 53.9591 89.8615 53.4422C69.8491 50.9426 47.8541 52.4395 31.1478 64.1466L31.1194 64.1678C30.1927 64.858 28.8089 65.0392 27.735 64.5877C26.6471 64.1606 25.8303 63.3772 25.1804 62.5298C23.8944 60.8103 23.2089 58.7482 23.0477 56.6459C22.6338 51.2462 21.8134 45.3361 24.2423 40.0174C26.5993 34.7253 31.1186 30.9636 35.7662 27.9116ZM94.6587 19.0341C74.9715 14.2174 53.4315 17.8101 36.5014 29.0448C31.942 32.0099 27.619 35.6332 25.4175 40.5393C23.1376 45.4507 23.8477 51.0679 24.2504 56.5623C24.3805 58.4425 25.0061 60.3281 26.1158 61.8228C27.1786 63.3188 29.0564 64.312 30.4717 63.2324L30.4432 63.2535C47.7438 51.3118 69.8329 50.1082 89.9507 52.7848C93.9179 53.3419 97.8583 54.0842 101.769 54.991C102.439 55.1322 103.122 55.182 103.7 54.9419C104.282 54.7078 104.786 54.2159 105.323 53.7464C107.214 52.0596 108.858 50.0809 110.396 48.0425C112.988 44.6025 115.173 40.9734 117.456 37.2092C120.397 33.5435 117.931 28.4877 114.046 26.3828C108.098 22.9838 101.402 20.6431 94.6587 19.0341Z" fill="#111F78"/>
<path d="M50.267 54.634L49.9868 54.9694L29.5976 37.9298L29.8778 37.5945L50.267 54.634Z" fill="white"/>
<path d="M50.1796 54.739C50.4972 54.9823 50.8135 55.2271 51.1287 55.4733C52.3896 56.4579 53.6318 57.4648 54.8551 58.494C59.1368 62.096 63.393 65.7284 67.6237 69.3911C67.9259 69.6528 68.228 69.9146 68.5299 70.1765L68.4244 70.3019C68.1146 70.0493 67.805 69.7964 67.4955 69.5435C63.1628 66.0021 58.8555 62.4303 54.5738 58.8282C53.3504 57.799 52.1459 56.7475 50.96 55.6738C50.6636 55.4054 50.3682 55.1356 50.0741 54.8644L50.1796 54.739Z" fill="#111F78"/>
<path d="M30.0449 63.3139C30.6722 63.4199 31.2993 63.5275 31.9259 63.6371C34.4325 64.0751 36.9334 64.5417 39.4287 65.0368C48.162 66.7699 56.8877 68.5419 65.6057 70.3527C66.2284 70.4821 66.851 70.6117 67.4736 70.7414C67.463 70.795 67.4524 70.8486 67.4418 70.9021C66.8168 70.7843 66.1917 70.6662 65.5668 70.548C56.818 68.8927 48.077 67.1986 39.3436 65.4655C36.8484 64.9703 34.3588 64.4465 31.8749 63.8942C31.2539 63.7561 30.6333 63.6163 30.013 63.4746C30.0237 63.4211 30.0342 63.3675 30.0449 63.3139Z" fill="#111F78"/>
<path d="M115.835 30.3247L96.902 54.2092L96.5595 53.9378L115.492 30.0533L115.835 30.3247Z" fill="white"/>
<path d="M96.7946 54.1248C96.5491 54.4591 96.3021 54.7922 96.0538 55.1241C95.0603 56.4519 94.0441 57.7616 93.0052 59.0529C89.3691 63.5725 85.7022 68.0672 82.0043 72.5371C81.7402 72.8564 81.4759 73.1756 81.2114 73.4946C81.1689 73.4604 81.1263 73.4261 81.0837 73.3919C81.3387 73.0653 81.5939 72.7388 81.8492 72.4124C85.4235 67.8431 89.0286 63.2986 92.6647 58.779C93.7036 57.4877 94.7653 56.2146 95.8495 54.9598C96.1206 54.6462 96.393 54.3336 96.6669 54.0222C96.7094 54.0564 96.7521 54.0906 96.7946 54.1248Z" fill="#111F78"/>
<path d="M101.885 53.8414C101.555 54.1822 101.224 54.5218 100.892 54.86C99.5633 56.2128 98.2144 57.5445 96.8454 58.8552C92.0539 63.4428 87.2351 68.0017 82.3888 72.532C82.0426 72.8556 81.6963 73.1791 81.3498 73.5024C81.3121 73.463 81.2744 73.4235 81.2366 73.3841C81.5746 73.052 81.9128 72.7201 82.2511 72.3884C86.9877 67.7435 91.7519 63.1273 96.5433 58.5398C97.9123 57.229 99.3013 55.9392 100.711 54.6706C101.063 54.3534 101.417 54.0376 101.771 53.7231C101.809 53.7625 101.847 53.802 101.885 53.8414Z" fill="#111F78"/>
<path d="M76.0055 75.7472C75.8372 75.531 74.8972 75.6571 74.4483 75.7472C74.6026 75.9016 74.7429 76.2104 75.3742 76.2104C75.6302 76.2104 76.216 76.0174 76.0055 75.7472Z" fill="#111F78"/>
<path d="M67.3647 87.6851C68.3473 87.1255 69.5298 87.0037 70.5936 87.2313C70.6696 87.2472 70.7448 87.2646 70.8213 87.2839C70.812 87.3377 70.8027 87.3915 70.7934 87.4453C70.7169 87.4383 70.6423 87.4329 70.5673 87.4285C69.5152 87.365 68.4658 87.5629 67.5804 88.0651C67.329 88.2084 67.077 88.3517 66.8303 88.513C66.7681 88.5543 66.7069 88.5963 66.6477 88.6408C66.6052 88.6066 66.5626 88.5724 66.52 88.5382C66.5557 88.4648 66.5983 88.3945 66.6457 88.3268C66.8332 88.0599 67.0855 87.8439 67.3647 87.6851Z" fill="#111F78"/>
<path d="M77.1976 102.071C77.5481 101.995 77.9179 101.982 78.2744 102.055C78.3628 102.073 78.4512 102.096 78.5362 102.125C78.5294 102.179 78.5228 102.234 78.516 102.288C78.4313 102.296 78.3465 102.305 78.2639 102.317C77.9313 102.362 77.6125 102.428 77.2901 102.498C76.1713 102.76 75.054 103.278 74.1692 104.036C74.1087 104.094 74.0531 104.152 74.0091 104.214C73.9621 104.187 73.915 104.159 73.868 104.131C73.9115 104.046 73.9644 103.973 74.0223 103.901C74.8576 102.973 75.9777 102.359 77.1976 102.071Z" fill="#111F78"/>
<path d="M75.1981 73.7907C75.2207 73.8168 75.2433 73.8442 75.2648 73.8712C75.4859 74.1618 75.6806 74.4499 75.8271 74.8097C75.8724 74.9854 75.7386 75.1236 75.6282 75.1925C75.498 75.2722 75.3451 75.315 75.1891 75.2761C75.1509 75.2648 75.1107 75.2451 75.0843 75.2102L75.123 75.1715C75.1457 75.1855 75.174 75.1899 75.2033 75.1899C75.3225 75.186 75.4471 75.1334 75.5498 75.0697C75.6429 75.0116 75.7124 74.9236 75.6909 74.8439C75.5751 74.5388 75.3929 74.2091 75.2106 73.9096C75.1926 73.881 75.1737 73.8518 75.1548 73.824C75.1693 73.8129 75.1837 73.8018 75.1981 73.7907Z" fill="#111F78"/>
<path d="M92.5625 97.9128C92.6658 97.9113 92.7696 97.9163 92.8714 97.9285V98.0377C92.7738 98.0498 92.6768 98.0664 92.5815 98.0866C92.1996 98.168 91.8374 98.3042 91.4817 98.4628C90.2412 99.0373 89.1702 99.9752 88.231 100.996C88.1645 101.07 88.0982 101.146 88.0358 101.221C88.007 101.198 87.9781 101.176 87.9493 101.154C88.0062 101.073 88.0674 100.991 88.1291 100.911C89.0007 99.8086 90.0531 98.8052 91.3628 98.1968C91.7382 98.029 92.1474 97.9192 92.5625 97.9128Z" fill="#111F78"/>
<path d="M75.4464 80.0517C75.481 80.138 75.5142 80.2245 75.5461 80.3119C75.9895 81.5369 76.1827 82.8475 76.1941 84.1497C76.1961 84.5224 76.1656 84.896 76.0942 85.2645C76.0764 85.3558 76.0556 85.4492 76.0317 85.5382C75.9956 85.5335 75.9594 85.5288 75.9233 85.524C75.9229 85.4337 75.9219 85.3401 75.9203 85.249C75.9136 84.8816 75.9048 84.5166 75.9028 84.1516C75.8912 82.8746 75.7563 81.5915 75.4197 80.3523C75.3954 80.2638 75.3701 80.1758 75.3434 80.0878C75.3778 80.0757 75.4121 80.0637 75.4464 80.0517Z" fill="#111F78"/>
</svg>
