<svg width="120" height="120" viewBox="0 0 120 120" fill="none" xmlns="http://www.w3.org/2000/svg">
<g clip-path="url(#clip0_3330_7738)">
<rect x="11.9287" y="22.8435" width="65" height="89" rx="2" transform="rotate(-6.67137 11.9287 22.8435)" fill="#A2D8FF"/>
<path d="M53.0432 108.019C53.0142 107.771 52.9852 107.522 52.9561 107.274C51.7118 107.336 50.4685 107.405 49.2261 107.484C44.2566 107.796 39.3026 108.242 34.3641 108.819C30.9556 109.218 27.548 109.624 24.1411 110.036C23.6046 110.118 23.049 109.691 22.9935 109.142C21.4232 96.3144 19.7534 83.498 17.9843 70.6932C17.8142 69.4616 17.6431 68.2301 17.4711 66.9987C17.2228 67.0277 16.9745 67.0568 16.7262 67.0858C16.843 68.3237 16.9607 69.5614 17.0794 70.799C18.3131 83.6665 19.6461 96.5223 21.0786 109.366C21.2191 110.94 22.7949 112.198 24.3686 111.981C27.7787 111.596 31.188 111.204 34.5965 110.806C39.535 110.228 44.458 109.518 49.3655 108.676C50.5924 108.465 51.8183 108.246 53.0432 108.019Z" fill="#111F78"/>
<path d="M47.3689 97.7334C26.2264 91.1932 18.298 51.4683 15.9986 27.909C15.8939 26.8358 16.6693 25.8862 17.7396 25.7553L72.3896 19.0721C73.4901 18.9375 74.4901 19.7272 74.6223 20.828C78.5752 53.7285 84.6941 81.525 108.453 90.5887L47.3689 97.7334Z" fill="white"/>
<path d="M69.7311 95.2434C69.7602 95.4917 69.7892 95.74 69.8183 95.9883C71.1656 95.9146 72.5129 95.8325 73.8591 95.7422C79.2432 95.3809 84.6119 94.8872 89.9657 94.261C96.683 93.4753 103.399 92.6662 110.109 91.8343C111.145 91.7154 111.306 90.4155 110.333 90.0418C98.9162 86.2275 90.4054 76.794 85.4978 65.8309C84.9182 64.6108 84.3766 63.4031 83.8446 62.1563C83.6127 62.2496 83.3808 62.343 83.1489 62.4363C83.6328 63.7126 84.1293 64.9516 84.6675 66.2061C89.1308 77.4176 97.8788 87.6912 109.67 91.7796L109.893 89.987C103.172 90.7261 96.4507 91.4888 89.7334 92.2745C84.3795 92.9007 79.0418 93.6593 73.7196 94.5503C72.389 94.7731 71.0591 95.0041 69.7311 95.2434Z" fill="#111F78"/>
<path d="M33.3673 25.37L31.0061 18.0951L39.9452 17.0495C39.5667 15.248 39.7035 11.5403 43.2792 11.1221C46.8548 10.7038 48.5057 14.2024 48.8843 16.0039L56.3335 15.1326L56.2116 22.698L33.3673 25.37Z" fill="white"/>
<path d="M31.9573 17.7864C31.3232 17.9922 30.6891 18.198 30.055 18.4038C30.4284 19.5206 30.8018 20.6373 31.1752 21.7541C31.6103 23.0553 32.0454 24.3566 32.4805 25.6579C32.6086 26.0647 33.0516 26.3419 33.4756 26.2961C41.0825 25.338 48.6894 24.38 56.2962 23.422C56.6529 23.3834 56.9314 23.0684 56.9403 22.7098C56.9587 20.1876 56.977 17.6655 56.9953 15.1433C57.0059 14.7187 56.6789 14.4296 56.2566 14.4752C53.7761 14.7876 51.2956 15.1 48.8151 15.4124L49.4671 15.8815C48.8879 13.1293 46.4525 10.0789 43.2184 10.6024C41.8088 10.7248 40.3512 11.6865 39.8139 13.0439C39.2472 14.3769 39.2281 15.7918 39.5003 17.143L39.8924 16.598C38.0841 16.8257 36.2758 17.0535 34.4675 17.2812C33.2992 17.4283 32.1309 17.5755 30.9626 17.7226C30.9916 17.9709 31.0207 18.2192 31.0497 18.4675C32.2204 18.3411 33.3912 18.2146 34.5619 18.0882C36.3739 17.8925 38.186 17.6968 39.998 17.5011C40.2765 17.466 40.4503 17.2302 40.3901 16.956C39.8881 14.6246 40.8446 11.7254 43.3399 11.6417C45.8771 11.2557 47.8088 13.7104 48.3014 16.1264C48.3671 16.426 48.6491 16.6338 48.9535 16.5955C51.4391 16.327 53.9247 16.0586 56.4104 15.7901L55.6716 15.122C55.6087 17.6434 55.5457 20.1648 55.4828 22.6863L56.1269 21.9741C48.5043 22.7974 40.8816 23.6207 33.259 24.444L34.2541 25.0822C33.8421 23.7735 33.4301 22.4647 33.0181 21.156C32.6645 20.0328 32.3109 18.9096 31.9573 17.7864ZM30.055 18.4038L31.9573 17.7864L31.0497 18.4675L30.9626 17.7226C30.467 17.7761 29.9053 17.9284 30.055 18.4038Z" fill="#111F78"/>
<path d="M40.8051 20.0953C40.7325 20.1435 40.6642 20.2006 40.6173 20.2721C40.5704 20.3436 40.5487 20.4234 40.5578 20.5018C40.567 20.5802 40.6066 20.6528 40.6687 20.7116C40.7308 20.7702 40.8105 20.8101 40.8922 20.8402C41.0674 20.9036 41.2417 20.9588 41.415 21.0056C42.1081 21.193 42.7857 21.248 43.4479 21.1706C45.7654 20.8995 48.0619 20.4482 50.3372 19.8166C50.4998 19.7715 50.6622 19.7254 50.8245 19.6785C50.9136 19.6526 50.9959 19.6008 51.0522 19.525C51.1085 19.4493 51.1343 19.357 51.1236 19.2659C51.113 19.1749 51.0666 19.091 50.9943 19.0303C50.9221 18.9696 50.83 18.9382 50.7374 18.9336C50.5686 18.9253 50.3999 18.918 50.2314 18.9116C47.8717 18.8222 45.5331 18.913 43.2155 19.1841C42.5534 19.2616 41.9067 19.4714 41.2755 19.8137C41.1177 19.8993 40.9609 19.9932 40.8051 20.0953Z" fill="#111F78"/>
<path d="M44.3889 65.3835C44.2547 65.3419 44.1076 65.341 43.9745 65.3925C43.8414 65.4439 43.7339 65.5419 43.6744 65.6676C43.6148 65.7934 43.6072 65.9387 43.6518 66.0742C43.6964 66.2098 43.7903 66.323 43.9075 66.4004C44.655 66.8925 45.4078 67.3734 46.166 67.843C49.1986 69.7213 52.3169 71.4188 55.5207 72.9356C57.2004 73.7308 58.8827 74.5205 60.5676 75.3046C61.7498 75.8724 62.8183 75.0968 62.6732 73.7933C61.9489 63.8661 61.7344 52.212 67.8315 44.2298C68.4073 43.6423 69.0598 43.1476 69.7933 42.7971C69.9252 42.7347 70.0311 42.6255 70.0859 42.4891C70.1407 42.3527 70.1402 42.2011 70.0842 42.0666C70.0282 41.9321 69.9208 41.825 69.7854 41.7678C69.65 41.7107 69.4979 41.709 69.3607 41.7586C68.4544 42.0903 67.6278 42.6067 66.902 43.228C59.2536 51.7775 59.1535 63.513 59.7299 74.1376L61.8356 72.6263C60.1611 71.82 58.4841 71.0193 56.8044 70.2241C53.6006 68.7073 50.3112 67.3713 46.9362 66.2161C46.0924 65.9273 45.2433 65.6498 44.3889 65.3835Z" fill="#2291EA"/>
</g>
<defs>
<clipPath id="clip0_3330_7738">
<rect width="120" height="120" fill="white"/>
</clipPath>
</defs>
</svg>
