<svg width="120" height="120" viewBox="0 0 120 120" fill="none" xmlns="http://www.w3.org/2000/svg">
<g clip-path="url(#clip0_3371_580)">
<path d="M90.7231 7.73013C90.3492 7.61884 89.2413 8.0511 87.4663 9.00094C75.6636 15.3169 62.8427 26.4089 52.5464 39.2112C43.0844 50.9765 36.1474 62.7448 29.0433 79.0832L26.939 83.9233L28.1036 85.4732C32.2853 91.036 36.9616 94.8457 42.2116 96.966L43.8574 97.6308L48.0326 95.1664C60.9819 87.5225 69.2884 81.4261 79.2723 72.2388C91.5736 60.9188 101.088 48.2357 107.725 34.3116C108.839 31.9753 110.044 29.3404 110.404 28.4563L111.059 26.8489L110.282 25.2598C108.44 21.4955 103.457 15.8308 99.107 12.5567C96.6849 10.7335 92.2657 8.1895 90.7231 7.73013ZM29.9767 80.2616C29.9767 80.1016 31.4746 81.4217 33.3052 83.1954C36.7058 86.4904 39.6013 88.8602 43.8283 91.8086C45.1384 92.7225 46.0644 93.5186 45.886 93.5781C45.4026 93.739 41.3473 91.4996 39.1351 89.85C35.429 87.0867 29.9771 81.3786 29.9767 80.2616ZM42.8374 61.3849C43.2458 60.9337 43.6222 60.8619 45.0779 60.957C48.5113 61.1816 51.9384 61.5803 52.7823 61.8536C59.9274 64.168 63.5886 72.6182 60.3825 79.3954C58.9518 82.4197 55.7012 85.1081 52.42 85.9806C50.3558 86.5295 47.2528 86.4195 45.1597 85.7229C43.1329 85.0486 40.3939 83.1723 39.2576 81.6798C36.7921 78.4414 35.8906 73.8139 37.0188 70.1881C37.3368 69.167 37.4511 68.3383 37.3065 68.1097C36.9338 67.5218 37.0132 66.5607 37.4649 66.1857C37.6892 65.9996 37.9121 65.506 37.9605 65.0891C38.0129 64.636 38.2973 64.2215 38.6677 64.0587C39.0086 63.9091 39.3468 63.5596 39.4197 63.2815C39.4922 63.0037 39.7868 62.702 40.0743 62.6111C40.3618 62.5202 40.9293 62.2677 41.336 62.0505C41.7423 61.8334 42.136 61.7167 42.2107 61.7911C42.2855 61.8659 42.5675 61.6831 42.8374 61.3849ZM75.5451 37.2742C77.8729 36.5673 78.1278 36.6632 78.6633 38.4501C78.8561 39.0944 79.7862 40.593 80.7298 41.7807C83.5711 45.357 84.4662 48.0374 83.778 50.9062C83.5291 51.9432 83.1123 52.684 82.3465 53.4497C81.6935 54.1028 81.1365 55.0112 80.9388 55.7447C78.7251 63.9668 68.9339 67.6617 61.652 63.0229C60.0239 61.9856 57.968 59.8187 57.2214 58.3532C54.6432 53.2913 55.4973 47.221 59.3562 43.1843L60.3499 42.145L59.7279 41.2716C59.1885 40.5142 59.165 40.3757 59.5509 40.2276C59.7956 40.1336 59.9959 39.8155 59.9959 39.5207C59.9959 39.1446 60.1975 38.9844 60.6707 38.9844C61.1173 38.9844 61.3984 38.7842 61.5007 38.3926C61.6145 37.9583 61.8021 37.8476 62.2078 37.9764C62.5757 38.093 62.8204 37.9958 62.9393 37.6862C63.0521 37.3926 63.3218 37.2743 63.6703 37.3654C63.9741 37.445 64.3721 37.3304 64.5542 37.111C65.0557 36.5069 65.6599 37.1624 65.6599 38.311V39.2676H68.032C69.9294 39.2676 70.7155 39.1298 71.9636 38.5779C72.8214 38.1987 74.4332 37.612 75.5451 37.2742ZM84.4564 16.0826C86.4465 15.1081 87.11 15.0351 88.8823 15.5967C89.5832 15.8187 90.9772 16.1478 91.9798 16.3282C95.2841 16.9221 98.0487 18.6868 99.7938 21.3154C100.718 22.7087 100.931 22.8771 101.588 22.7372C105.003 22.0117 105.903 21.9085 106.203 22.2084C106.413 22.4182 106.506 24.0336 106.479 27.0021C106.429 32.521 106.216 34.6023 105.623 35.3327C104.917 36.2041 90.7812 40.6835 88.7374 40.6836C84.7952 40.6836 80.5496 37.8683 78.7006 34.0284C76.4841 29.4242 77.1332 24.1035 80.3528 20.4877C81.0721 19.68 81.8991 18.5494 82.1908 17.9757C82.5916 17.1867 83.1444 16.7252 84.4564 16.0826Z" fill="#A4D2F6"/>
<path fill-rule="evenodd" clip-rule="evenodd" d="M90.7231 7.73013C90.3492 7.61884 89.2413 8.0511 87.4663 9.00094C75.6636 15.3169 62.8427 26.4089 52.5464 39.2112C43.0844 50.9765 36.1474 62.7448 29.0433 79.0832L26.939 83.9233L28.1036 85.4732C32.2853 91.036 36.9616 94.8457 42.2116 96.966L43.8574 97.6308L48.0326 95.1664C60.9819 87.5225 69.2884 81.4261 79.2723 72.2388C91.5736 60.9188 101.088 48.2357 107.725 34.3116C108.839 31.9753 110.044 29.3404 110.404 28.4563L111.059 26.8489L110.282 25.2598C108.44 21.4955 103.457 15.8308 99.107 12.5567C96.6849 10.7335 92.2657 8.1895 90.7231 7.73013ZM33.3052 83.1954C31.4746 81.4217 29.9767 80.1016 29.9767 80.2616C29.9771 81.3786 35.429 87.0867 39.1351 89.85C41.3473 91.4996 45.4026 93.739 45.886 93.5781C46.0644 93.5186 45.1384 92.7225 43.8283 91.8086C39.6013 88.8602 36.7058 86.4904 33.3052 83.1954ZM45.0779 60.957C43.6222 60.8619 43.2458 60.9337 42.8374 61.3849C42.5675 61.6831 42.2855 61.8659 42.2107 61.7911C42.136 61.7167 41.7423 61.8334 41.336 62.0505C40.9293 62.2677 40.3618 62.5202 40.0743 62.6111C39.7868 62.702 39.4922 63.0037 39.4197 63.2815C39.3468 63.5596 39.0086 63.9091 38.6677 64.0587C38.2973 64.2215 38.0129 64.636 37.9605 65.0891C37.9121 65.506 37.6892 65.9996 37.4649 66.1857C37.0132 66.5607 36.9338 67.5218 37.3065 68.1097C37.4511 68.3383 37.3368 69.167 37.0188 70.1881C35.8906 73.8139 36.7921 78.4414 39.2576 81.6798C40.3939 83.1723 43.1329 85.0486 45.1597 85.7229C47.2528 86.4195 50.3558 86.5295 52.42 85.9806C55.7012 85.1081 58.9518 82.4197 60.3825 79.3954C63.5886 72.6182 59.9274 64.168 52.7823 61.8536C51.9384 61.5803 48.5113 61.1816 45.0779 60.957ZM78.6633 38.4501C78.1278 36.6632 77.8729 36.5673 75.5451 37.2742C74.4332 37.612 72.8214 38.1987 71.9636 38.5779C70.7155 39.1298 69.9294 39.2676 68.032 39.2676H65.6599V38.311C65.6599 37.1624 65.0557 36.5069 64.5542 37.111C64.3721 37.3304 63.9741 37.445 63.6703 37.3654C63.3218 37.2743 63.0521 37.3926 62.9393 37.6862C62.8204 37.9958 62.5757 38.093 62.2078 37.9764C61.8021 37.8476 61.6145 37.9583 61.5007 38.3926C61.3984 38.7842 61.1173 38.9844 60.6707 38.9844C60.1975 38.9844 59.9959 39.1446 59.9959 39.5207C59.9959 39.8155 59.7956 40.1336 59.5509 40.2276C59.165 40.3757 59.1885 40.5142 59.7279 41.2716L60.3499 42.145L59.3562 43.1843C55.4973 47.221 54.6432 53.2913 57.2214 58.3532C57.968 59.8187 60.0239 61.9856 61.652 63.0229C68.9339 67.6617 78.7251 63.9668 80.9388 55.7447C81.1365 55.0112 81.6935 54.1028 82.3465 53.4497C83.1123 52.684 83.5291 51.9432 83.778 50.9062C84.4662 48.0374 83.5711 45.357 80.7298 41.7807C79.7862 40.593 78.8561 39.0944 78.6633 38.4501ZM88.8823 15.5967C87.11 15.0351 86.4465 15.1081 84.4564 16.0826C83.1444 16.7252 82.5916 17.1867 82.1908 17.9757C81.8991 18.5494 81.0721 19.68 80.3528 20.4877C77.1332 24.1035 76.4841 29.4242 78.7006 34.0284C80.5496 37.8683 84.7952 40.6836 88.7374 40.6836C90.7812 40.6835 104.917 36.2041 105.623 35.3327C106.216 34.6023 106.429 32.521 106.479 27.0021C106.506 24.0336 106.413 22.4182 106.203 22.2084C105.903 21.9085 105.003 22.0117 101.588 22.7372C100.931 22.8771 100.718 22.7087 99.7938 21.3154C98.0487 18.6868 95.2841 16.9221 91.9798 16.3282C90.9772 16.1478 89.5832 15.8187 88.8823 15.5967Z" fill="#A4D2F6"/>
<path d="M33.4528 104.939C33.8422 104.87 35.1857 104.867 36.4383 104.933C42.2529 105.235 44.1449 107.706 40.9119 110.776C39.887 111.749 37.8512 112.65 35.6691 113.095L33.9589 113.444L35.889 114.419C39.0039 115.991 39.5741 117.498 37.5547 118.821C36.6833 119.392 32.3133 119.687 29.3779 119.372C26.167 119.028 27.2988 118.65 31.5412 118.65C36.1576 118.649 37.5592 118.256 37.5592 116.96C37.559 116.077 36.2056 115.281 32.9406 114.241C31.6464 113.829 30.6693 113.41 30.7693 113.31C30.8701 113.21 32.3109 112.86 33.9719 112.533C37.5648 111.826 40.1218 110.66 41.0284 109.316C41.8085 108.159 41.8235 107.763 41.1141 107.054C39.6414 105.582 33.9466 105.313 30.3376 106.546C29.1694 106.945 28.1517 107.211 28.0761 107.136C27.5981 106.664 30.575 105.447 33.4528 104.939ZM109.775 -0.176287C113.09 -0.722272 115.522 -0.569583 116.166 0.225004C116.936 1.17655 117.117 3.64297 116.763 8.38027C115.746 21.9984 110.93 34.4303 100.759 49.6909C94.4815 59.1101 85.4111 69.006 75.0262 77.7645C71.3738 80.8451 63.3614 87.0564 62.205 87.7036C61.8465 87.9044 61.8541 88.1556 62.2645 89.6279C62.9965 92.2537 62.9324 97.3027 62.1359 99.8173C60.5777 104.735 56.1755 109.87 50.02 113.95C45.8954 116.684 46.0564 116.887 46.0513 108.96C46.0473 102.967 46.0111 102.542 45.3317 100.525C44.6503 98.5017 44.57 98.3939 43.6366 98.2472C42.8584 98.1249 42.4114 98.2645 41.4656 98.9237C40.4897 99.6039 40.0869 99.7237 39.2373 99.5858C36.1819 99.0898 28.334 92.7701 26.6327 89.4354C26.0726 88.3375 26.0727 88.3259 26.6267 87.0736C27.1442 85.9036 27.1527 85.7378 26.7481 84.7076C26.3434 83.6774 26.2024 83.5772 24.7377 83.2833C22.2221 82.7781 19.0087 82.9127 15.0196 83.6907C12.979 84.0885 10.8437 84.3751 10.2744 84.3279C9.3047 84.2469 9.24161 84.1836 9.28013 83.3275C9.37711 81.1737 13.3673 74.5438 16.6801 71.0319C21.1486 66.2952 24.9721 64.6829 31.2629 64.8825L34.5103 64.9857L35.4642 63.1457C36.9403 60.2986 41.5783 52.6234 44.1933 48.6997C52.9094 35.6233 63.6878 23.9543 74.6583 15.7175C86.1908 7.05868 97.8292 1.7911 109.775 -0.176287ZM34.1669 100.112C35.5711 99.365 36.0075 99.2441 35.9927 99.6049C35.9876 99.7218 33.5436 101.601 30.5613 103.782C22.8013 109.456 22.4967 109.665 22.1328 109.543C21.9523 109.483 23.5009 108.09 25.5749 106.448C31.2105 101.986 32.6792 100.903 34.1669 100.112ZM23.2202 95.5018C25.4932 92.016 26.0895 91.2965 26.0896 92.0406C26.0896 93.1173 18.1206 105.394 17.6965 104.97C17.5087 104.781 20.3874 99.8471 23.2202 95.5018ZM27.5891 94.6489C28.5587 93.6315 28.9648 93.5235 29.4808 94.145C29.7623 94.4843 29.664 94.758 28.9492 95.6254C27.9246 96.8684 27.8307 97.276 28.6727 96.8254C29.3613 96.457 29.3131 96.5706 28.0147 98.3758C27.5767 98.9846 27.2765 99.5405 27.3466 99.6112C27.4174 99.6811 28.0553 99.2632 28.7645 98.682C29.8149 97.8213 30.0543 97.721 30.0544 98.1413C30.0544 98.5437 30.3017 98.4165 31.1744 97.5644C32.1214 96.6399 32.3625 96.5268 32.732 96.8335C32.9726 97.033 33.1694 97.2852 33.1696 97.3938C33.1696 97.7815 31.0621 100.045 29.6951 101.125C28.1069 102.381 27.4778 102.534 27.7205 101.606C27.8558 101.087 27.6096 101.196 26.2071 102.27C24.2918 103.738 23.279 104.323 23.0502 104.094C22.9631 104.006 23.4837 102.915 24.207 101.67C25.5614 99.3395 25.7281 98.9494 25.24 99.2509C25.0842 99.3472 24.9568 99.1888 24.9568 98.8985C24.9569 98.2397 26.4235 95.8717 27.5891 94.6489ZM14.4632 87.5941C15.3125 87.0039 15.7232 86.9113 17.0941 87.0017C19.5457 87.1634 20.9313 88.7016 21.1231 91.474C21.2887 93.8684 20.1696 97.1746 18.5361 99.1156C17.2985 100.586 17.2707 100.032 18.4672 97.7461C20.0608 94.7026 20.4997 92.722 20.0047 90.813C19.3912 88.4496 17.657 87.3571 15.7002 88.1018C14.3245 88.6257 13.6636 89.6 13.2659 91.6919C13.0827 92.6564 12.8442 93.4453 12.7363 93.4453C12.6281 93.445 12.3918 92.9961 12.2106 92.4472C11.5173 90.3468 9.70338 88.9141 7.73719 88.9141C6.46088 88.9141 5.26999 89.827 4.96603 91.0375C4.76384 91.8432 4.95462 94.0804 5.30233 94.9786C5.45667 95.3776 5.41722 95.4619 5.15216 95.298C4.54415 94.9221 4 93.2536 4 91.7652C4.00001 90.5883 4.14703 90.1827 4.87283 89.3558C6.5536 87.4417 9.30144 87.487 11.3787 89.4631L12.4634 90.4946L12.9598 89.3939C13.2328 88.7885 13.9095 87.9783 14.4632 87.5941ZM90.8007 7.81664C90.4269 7.70537 89.3189 8.13765 87.5439 9.08744C75.7413 15.4034 62.9203 26.4954 52.6241 39.2977C43.1621 51.0629 36.225 62.8314 29.121 79.1697L27.0166 84.0098L28.1812 85.5597C32.3629 91.1226 37.0393 94.9322 42.2892 97.0525L43.935 97.7173L48.1103 95.2529C61.0596 87.6091 69.366 81.5126 79.3499 72.3253C91.6512 61.0053 101.166 48.3222 107.802 34.3981C108.916 32.0618 110.122 29.4269 110.482 28.5428L111.136 26.9354L110.359 25.3463C108.518 21.582 103.534 15.9173 99.1847 12.6432C96.7625 10.82 92.3433 8.276 90.8007 7.81664ZM30.0544 80.3481C30.055 80.1888 31.5526 81.5087 33.3828 83.2819C36.7834 86.5769 39.679 88.9468 43.906 91.8952C45.216 92.809 46.1419 93.605 45.9636 93.6646C45.4802 93.8255 41.425 91.5861 39.2127 89.9365C35.5066 87.1732 30.0548 81.4651 30.0544 80.3481ZM42.9151 61.4714C43.3234 61.0203 43.6999 60.9484 45.1555 61.0435C48.5889 61.2681 52.016 61.6669 52.86 61.9402C60.005 64.2545 63.6661 72.7048 60.4602 79.4819C59.0295 82.5062 55.7788 85.1946 52.4977 86.0672C50.4334 86.616 47.3305 86.5061 45.2374 85.8094C43.2106 85.1351 40.4715 83.2588 39.3352 81.7663C36.8698 78.528 35.9682 73.9004 37.0965 70.2746C37.4145 69.2535 37.5288 68.4249 37.3841 68.1963C37.0115 67.6083 37.0909 66.6472 37.5426 66.2722C37.7668 66.0861 37.9897 65.5925 38.0382 65.1757C38.0906 64.7226 38.3749 64.308 38.7453 64.1452C39.0862 63.9956 39.4245 63.6461 39.4973 63.368C39.5699 63.0903 39.8645 62.7886 40.1519 62.6977C40.4394 62.6067 41.007 62.3543 41.4136 62.1371C41.8199 61.92 42.2135 61.8033 42.2884 61.8776C42.3631 61.9524 42.6452 61.7696 42.9151 61.4714ZM47.0464 81.6925C47.0463 80.9355 46.9378 80.8879 46.0552 81.2583C45.7436 81.3888 45.1481 81.629 44.7315 81.7915L43.9743 82.0872L44.4848 83.4315C44.9048 84.5385 45.1764 84.8387 46.0206 85.131C47.2086 85.5425 47.252 85.4674 46.4661 84.3635C46.0046 83.7153 45.9485 83.4309 46.1929 82.9744C46.3617 82.6589 46.623 82.4005 46.7731 82.4005C46.9235 82.4004 47.0464 82.0819 47.0464 81.6925ZM37.9804 70.0813C37.0673 72.1897 37.3529 76.2368 38.6046 78.9255C39.2942 80.4072 41.8269 83.0819 43.3446 83.9313C44.2924 84.4617 44.3052 84.4617 44.0996 83.9313C43.5774 82.5826 43.0815 80.1858 43.0827 79.0134C43.0841 77.3444 43.7782 76.2346 45.7537 74.7428C46.6203 74.0886 47.3296 73.5132 47.3296 73.4642C47.3293 73.4146 47.2052 73.0478 47.0535 72.6486C46.8375 72.0806 46.582 71.9221 45.8831 71.9221C45.2015 71.9221 44.687 71.6196 43.7152 70.6477C43.0143 69.9469 42.2026 69.3734 41.9114 69.3733C41.2791 69.3733 41.2068 69.8903 41.8072 70.1206C42.0407 70.2103 42.2319 70.4244 42.232 70.5965C42.232 70.7687 42.5785 71.1863 43.0025 71.5241C43.6529 72.0429 43.7159 72.2069 43.4076 72.5787C43.1429 72.8975 43.1228 73.1696 43.3349 73.5663C43.496 73.8669 43.5518 74.1892 43.4588 74.2826C43.2574 74.4836 42.2321 73.243 42.232 72.798C42.2319 72.6281 42.0544 72.4886 41.8376 72.4885C41.6207 72.4885 41.3695 72.2973 41.2798 72.0637C41.1895 71.8288 40.7649 71.637 40.3292 71.6348C39.2222 71.6285 38.8095 71.291 38.5625 70.1889L38.3482 69.2317L37.9804 70.0813ZM52.5486 82.2791C51.9933 81.7242 51.4648 81.7122 51.0225 82.2453C50.2539 83.1711 51.6565 84.5738 52.5823 83.8052C53.1155 83.3628 53.1036 82.8344 52.5486 82.2791ZM56.8989 71.6179C55.7703 71.0325 54.2408 70.9569 52.8146 71.4163C51.9599 71.6915 51.9205 71.7748 51.7294 73.7148C51.5141 75.8991 51.204 76.7365 50.6104 76.7365C50.4011 76.7365 49.3598 76.2988 48.2964 75.7636L46.3627 74.7906L45.0053 76.148C43.6897 77.4636 43.6479 77.5566 43.6521 79.1741C43.6583 81.5465 43.8463 81.7404 45.4492 81.0312C46.7008 80.4777 46.7483 80.4137 46.5773 79.5154C46.3412 78.2766 46.672 78.6182 47.2933 80.2547L47.7928 81.5708L48.9065 80.6789C49.5191 80.1881 50.9325 79.1678 52.048 78.4116L54.0757 77.0368L55.0216 78.1069C55.5415 78.6953 56.3831 79.7811 56.8917 80.5196C57.8234 81.873 58.1371 81.9574 58.6528 80.9934C58.8832 80.5629 58.5681 79.9704 56.9224 77.7379C54.9998 75.1301 54.4454 73.9931 55.7984 75.4333L56.4343 76.1098L57.8868 75.1532C58.6856 74.627 59.4726 74.1382 59.6357 74.0668C60.0183 73.899 58.2559 72.3219 56.8989 71.6179ZM60.2859 74.4933C60.0914 74.5055 59.1966 74.9591 58.2977 75.5008L56.663 76.4857L57.5657 77.7426C58.0621 78.4342 58.6899 79.1999 58.9604 79.4449C59.4183 79.8591 59.4934 79.7801 60.0462 78.3027C60.7145 76.5166 60.8438 74.4582 60.2859 74.4933ZM47.2021 66.7971C46.9144 66.5237 46.8609 66.5235 45.3494 66.7913C44.5299 66.9363 44.3355 67.1099 44.2157 67.803C44.1155 68.3852 43.8692 68.6882 43.4071 68.7972C42.7509 68.9521 42.7563 68.9699 43.8324 70.182C44.7482 71.2136 45.1025 71.4171 46.0488 71.4539C47.0079 71.491 47.2162 71.6145 47.4521 72.2863C47.639 72.8187 47.6292 73.3408 47.4214 73.891C47.1175 74.6964 47.135 74.7166 48.8072 75.4671C49.7385 75.885 50.5993 76.1189 50.7205 75.9865C50.8411 75.8537 51.0232 74.8875 51.1245 73.8395L51.309 71.9334L50.5014 72.095C49.3205 72.3311 48.6153 71.1764 48.5799 68.9485C48.5572 67.5112 48.4697 67.2344 48.0121 67.1511C47.7145 67.097 47.3499 66.9379 47.2021 66.7971ZM54.4076 64.0144C52.4381 62.9646 48.5608 62.007 48.1086 62.4582C47.9382 62.6286 48.8478 64.7294 49.6311 65.9749C50.3173 67.0655 50.3026 68.7114 49.6032 69.086C48.8836 69.4711 48.8692 70.2462 49.5658 71.1065L50.1026 71.7697L52.0637 71.1378C55.2627 70.1075 56.1401 70.2829 59.1946 72.5621L60.7226 73.7021L60.5791 72.4279C60.2298 69.3295 57.5658 65.6977 54.4076 64.0144ZM45.064 68.8288C45.064 68.5294 45.1995 68.5913 45.5081 69.032C45.7525 69.3809 46.0711 69.5925 46.2161 69.503C46.3613 69.4134 46.4799 69.4753 46.48 69.6399C46.48 69.8047 46.3143 69.9397 46.1119 69.9397C45.6137 69.9397 45.064 69.3569 45.064 68.8288ZM75.6227 37.3607C77.9505 36.6539 78.2054 36.7498 78.7409 38.5366C78.9338 39.1809 79.8638 40.6795 80.8074 41.8673C83.6487 45.4435 84.5438 48.1239 83.8557 50.9927C83.6068 52.0297 83.1899 52.7705 82.4242 53.5363C81.7712 54.1893 81.2142 55.0977 81.0165 55.8312C78.8027 64.0533 69.0115 67.7483 61.7296 63.1095C60.1015 62.0721 58.0456 59.9052 57.2991 58.4397C54.7209 53.3778 55.575 47.3075 59.4339 43.2708L60.4275 42.2315L59.8055 41.3581C59.2662 40.6008 59.2427 40.4622 59.6286 40.3141C59.8732 40.2201 60.0735 39.902 60.0735 39.6072C60.0736 39.2312 60.2752 39.071 60.7484 39.0709C61.195 39.0709 61.4761 38.8708 61.5783 38.4791C61.6922 38.0449 61.8798 37.9341 62.2855 38.0629C62.6534 38.1796 62.898 38.0823 63.017 37.7728C63.1297 37.4792 63.3995 37.3608 63.7479 37.4519C64.0518 37.5315 64.4497 37.4169 64.6318 37.1975C65.1333 36.5936 65.7375 37.249 65.7375 38.3975V39.3541H68.1096C70.007 39.3541 70.7932 39.2163 72.0412 38.6644C72.899 38.2852 74.5109 37.6985 75.6227 37.3607ZM61.2262 59.1073C61.2001 58.4537 60.6401 58.4639 60.6399 59.1181C60.6399 59.6814 62.6051 61.6835 64.6974 63.2516C65.8726 64.1323 66.278 64.2757 67.588 64.2757H69.1119L68.0836 62.5497L67.0554 60.8234L66.5562 61.4849L66.0572 62.1462L64.4817 61.3732C63.3716 60.8286 62.9055 60.437 62.9055 60.0476C62.9055 59.7435 62.7781 59.416 62.6223 59.3197C62.4667 59.2235 62.3392 59.28 62.3391 59.4447C62.3391 59.6095 62.2041 59.7445 62.0393 59.7445C61.8745 59.7445 61.8181 59.6171 61.9143 59.4613C62.0105 59.3055 61.9961 59.0272 61.8823 58.8429C61.7399 58.6129 61.608 58.6791 61.4608 59.0553C61.2739 59.5328 61.2438 59.5395 61.2262 59.1073ZM61.5717 61.0839C59.5211 59.1704 58.6453 58.6632 59.2085 59.7158C59.5716 60.3938 61.703 62.2669 62.91 62.9681C64.2373 63.7393 63.8846 63.2425 61.5717 61.0839ZM59.2192 54.4199C58.4478 56.0239 57.8146 57.501 57.8118 57.7029C57.8095 57.904 58.3494 58.3003 59.0115 58.5832C60.1795 59.0825 60.221 59.0819 60.4184 58.5716C60.6719 57.9158 61.3021 57.9029 62.3662 58.5315C62.889 58.8402 63.1887 59.251 63.1887 59.6585C63.1887 60.1388 63.5259 60.4715 64.5303 60.9819L65.8714 61.6636L67.4998 58.7926C68.3951 57.2137 69.1299 55.8495 69.1321 55.7612C69.1337 55.6729 68.4029 55.3062 67.5075 54.9464C66.6118 54.5862 64.6961 53.664 63.2504 52.8971L60.622 51.5024L59.2192 54.4199ZM59.2795 44.6984C57.8259 46.5375 56.9505 48.8598 56.7567 51.3901C56.6112 53.2901 57.0711 56.6421 57.4741 56.6183C57.58 56.6115 58.1521 55.5601 58.7458 54.2819C60.299 50.9366 60.3996 50.8264 61.419 51.3536C62.2454 51.781 62.2523 51.7777 63.8937 50.1193C65.5033 48.4924 65.5314 48.437 65.1794 47.5866C64.9492 47.031 64.6172 46.7174 64.2593 46.7173C63.1109 46.7173 61.8533 45.8414 61.14 44.5444L60.4267 43.247L59.2795 44.6984ZM79.3278 40.5577C78.9648 40.1325 78.2989 40.0955 78.0567 40.4869C77.9604 40.6427 78.1761 40.7849 78.5357 40.8031C79.0154 40.8271 79.0575 40.8705 78.6939 40.9654C78.4216 41.0367 78.2003 41.2449 78.2025 41.4281C78.2093 41.937 78.7097 42.6186 78.9213 42.4071C79.2481 42.0805 80.3846 43.4182 80.7474 44.5563C81.0807 45.6027 81.0613 45.6802 80.316 46.2746C79.5534 46.8825 79.5388 46.9507 79.6713 49.2396C79.7458 50.5281 79.7044 51.3993 79.5789 51.1752C79.4538 50.9514 79.3147 50.2392 79.2703 49.5928C79.2258 48.9466 79.1258 48.4201 79.0479 48.4234C78.97 48.4266 78.4602 49.0609 77.9151 49.8325C77.37 50.6042 76.8508 51.2387 76.7613 51.2424C76.6716 51.2456 75.9713 50.8024 75.2045 50.2573C73.8115 49.2669 73.2536 49.037 73.4312 49.5261C73.6096 50.0174 78.9068 54.0934 79.6013 54.2738C80.6534 54.5471 82.1923 53.5372 82.9419 52.0821C83.7156 50.5806 83.7869 48.2784 83.1208 46.3232C82.7475 45.228 80.8434 42.3336 79.3278 40.5577ZM64.3069 39.9205C64.2205 39.9205 63.4978 40.2456 62.7014 40.6424C60.5922 41.6936 60.4948 41.885 61.2155 43.5609C62.0172 45.4246 62.6855 45.9966 64.061 45.9966C64.7927 45.9966 65.171 46.1242 65.1711 46.3711C65.1711 46.577 65.3774 47.1534 65.6291 47.6521C66.652 49.6766 67.9598 50.4055 68.5596 49.2849C69.0056 48.4512 68.9263 47.9716 67.991 45.8404C67.3411 44.3593 67.1733 43.6428 67.3084 42.9226C67.5074 41.8619 67.1238 41.3983 66.5846 42.0479C66.0548 42.6862 65.8748 42.5798 65.1402 41.1949C64.7685 40.4943 64.3937 39.9208 64.3069 39.9205ZM77.6762 37.2597C77.5736 37.1982 76.1433 37.6221 74.4974 38.2023C72.8516 38.7822 71.356 39.3492 71.1734 39.462C70.9366 39.6084 71.0746 40.1281 71.6557 41.2807C72.1034 42.1682 72.8737 44.0412 73.3676 45.4429C73.8614 46.8446 74.3655 48.0922 74.488 48.2157C74.61 48.3389 76.0057 47.8292 77.5891 47.083C80.4002 45.7582 80.4648 45.7067 80.3204 44.8915C80.1227 43.7757 79.4242 42.7525 78.8601 42.7525C78.1955 42.7525 77.6512 41.8995 77.641 40.8409C77.634 40.1161 77.7488 39.9205 78.1812 39.9205C78.7075 39.9205 78.7122 39.8675 78.2962 38.6464C78.0575 37.946 77.7784 37.3219 77.6762 37.2597ZM70.2328 40.279C69.5791 39.9386 67.8009 39.8541 66.7995 40.1158C66.1108 40.2959 66.1808 40.6765 67.0009 41.2137C67.8383 41.7626 68.1675 42.6379 67.7335 43.161C67.4945 43.4493 67.5919 43.9374 68.1342 45.1631C68.7666 46.5935 68.9261 46.7618 69.4891 46.5976C69.84 46.4951 70.7324 46.259 71.4723 46.0727C72.2122 45.8863 72.8128 45.6048 72.8076 45.4468C72.802 45.2887 72.3716 44.1399 71.8512 42.8941C71.2243 41.3936 70.6779 40.5106 70.2328 40.279ZM62.6223 42.7772C62.6224 42.4717 62.7526 42.5294 63.0632 42.9727C63.3056 43.319 63.7196 43.6061 63.9836 43.6107C64.3987 43.6184 64.3906 43.6619 63.9219 43.9337C63.4878 44.1857 63.3056 44.1454 63.0015 43.7294C62.7929 43.4442 62.6224 43.0159 62.6223 42.7772ZM78.7647 41.3365C78.9204 41.3365 79.0478 41.4641 79.0479 41.6197C79.0479 41.7755 78.9205 41.9029 78.7647 41.9029C78.609 41.9029 78.4815 41.7755 78.4815 41.6197C78.4817 41.4641 78.609 41.3365 78.7647 41.3365ZM84.5341 16.1691C86.5241 15.1946 87.1877 15.1216 88.9599 15.6832C89.6608 15.9052 91.0549 16.2343 92.0574 16.4147C95.3617 17.0086 98.1263 18.7733 99.8714 21.4019C100.796 22.7952 101.008 22.9636 101.666 22.8237C105.081 22.0982 105.981 21.9951 106.281 22.2949C106.491 22.5047 106.583 24.1201 106.556 27.0886C106.507 32.6074 106.293 34.6888 105.701 35.4192C104.995 36.2906 90.8588 40.77 88.815 40.7701C84.8728 40.7701 80.6273 37.9548 78.7783 34.1149C76.5618 29.5107 77.2108 24.19 80.4305 20.5742C81.1498 19.7665 81.9768 18.6359 82.2685 18.0622C82.6692 17.2732 83.2221 16.8116 84.5341 16.1691ZM96.273 37.562C96.3891 36.962 96.497 36.9424 92.6415 38.2271C90.5631 38.9201 89.3523 39.4704 89.2948 39.7488C89.2147 40.1387 89.3488 40.1408 90.5692 39.769C95.629 38.2271 96.186 38.0114 96.273 37.562ZM93.5553 27.1057C92.7667 25.3899 92.7209 25.346 92.1224 25.7254C91.814 25.9208 91.8531 26.3159 92.3348 27.8751C92.6593 28.9253 92.9246 29.9515 92.9247 30.1551C92.9245 30.6015 89.1631 32.1296 88.5979 31.913C88.3783 31.8283 87.7648 30.9199 87.2344 29.8941C86.7038 28.8681 86.1897 28.0282 86.0917 28.0275C85.994 28.027 85.77 28.1999 85.5941 28.412C85.3492 28.707 85.4577 29.1897 86.0549 30.4652C86.796 32.0471 86.833 32.3234 86.7792 35.8559C86.7243 39.4745 86.7402 39.5838 87.3456 39.746C88.3753 40.0221 88.6767 39.9463 88.6767 39.4119C88.677 39.0062 89.4362 38.6703 92.4291 37.7504L96.1815 36.5971L96.2628 33.8555L96.3441 31.1142L95.3239 29.9242C94.7629 29.2697 93.9667 28.0012 93.5553 27.1057ZM84.7426 29.1589C84.5928 29.1589 84.0747 29.637 83.5916 30.2209C82.535 31.4984 81.88 33.5433 81.8799 35.563C81.8799 36.8634 81.9777 37.1191 82.6587 37.5988C83.7659 38.3789 85.8747 39.4182 86.0322 39.2612C86.105 39.1877 86.1884 37.4903 86.2172 35.4892C86.2637 32.2599 86.1987 31.6975 85.6425 30.5041C85.2977 29.7644 84.8928 29.1592 84.7426 29.1589ZM81.7997 21.1442C81.9917 20.141 81.7756 20.1797 80.9355 21.3002C79.0009 23.8804 77.9842 27.571 78.4705 30.2481C78.7633 31.862 80.5823 35.9557 81.0065 35.9557C81.132 35.9557 81.3033 35.2002 81.3871 34.2767C81.6125 31.7906 82.7061 29.9919 85.0532 28.2466C86.8086 26.9411 87.5617 26.0422 86.5864 26.4166C86.1993 26.5652 84.6377 26.1218 83.9102 25.6568C83.6947 25.5192 83.5987 25.1552 83.6859 24.8078C83.8017 24.3462 83.636 24.0835 82.9983 23.7173C82.0244 23.1586 81.5921 22.2305 81.7997 21.1442ZM87.4023 21.5126C87.1408 21.09 86.3378 21.1591 86.579 21.5834C86.6897 21.7782 86.9721 22.1602 87.206 22.433C87.5863 22.8756 87.5835 22.9286 87.1797 22.9286C86.931 22.9285 86.6563 22.8132 86.569 22.6722C86.3953 22.3915 85.0016 22.9328 84.9973 23.2826C84.9925 23.7433 86.1638 24.6277 86.7789 24.6278C87.3609 24.6278 87.4194 24.741 87.3279 25.6898C87.2719 26.2739 87.0919 27.0246 86.9288 27.358C86.5177 28.1974 88.4935 31.8421 89.2063 31.5592C89.4604 31.4584 90.3213 31.1288 91.1196 30.8266L92.5713 30.2774L91.9479 28.2314C91.4396 26.5629 91.208 26.1686 90.6912 26.0927C89.7048 25.9483 89.0063 24.5491 89.1748 23.0552C89.3152 21.8077 89.3088 21.7958 88.4472 21.7958C87.9688 21.7958 87.4986 21.6683 87.4023 21.5126ZM102.665 29.0406C102.461 28.5107 101.674 28.4529 101.194 28.9324C100.727 29.3994 100.767 30.7159 101.26 31.1256C101.583 31.3935 101.786 31.3425 102.251 30.8772C102.856 30.2721 102.96 29.8109 102.665 29.0406ZM94.9779 25.2503C93.8994 25.188 93.4931 25.266 93.4975 25.5335C93.5196 26.8439 96.1681 30.7418 96.4816 29.9253C96.5645 29.708 96.5949 28.5867 96.5488 27.4332L96.4647 25.3358L94.9779 25.2503ZM90.8068 20.9345C92.0873 18.4577 88.6452 15.0383 85.9631 16.1232C85.4171 16.3441 84.523 17.2848 83.6364 18.5719C83.3212 19.0295 83.2909 19.0348 83.424 18.6098C83.5092 18.337 83.6566 17.9229 83.7511 17.6894C84.0828 16.8696 83.3052 17.2747 82.8473 18.1603C82.5494 18.7363 82.4356 19.4388 82.5279 20.1286C82.6123 20.7567 82.548 21.2428 82.3727 21.3013C81.7928 21.4947 82.4498 22.8844 83.398 23.4706C84.1464 23.933 84.3226 24.2044 84.2213 24.7353C84.0718 25.5177 84.1966 25.6187 85.6323 25.8778C86.4898 26.0324 86.6943 25.9838 86.6943 25.625C86.6942 25.3804 86.3907 25.065 86.0198 24.924C85.3936 24.6857 83.9282 22.8307 83.5147 21.7534C83.4094 21.4787 83.5999 20.9279 83.9768 20.4168C84.3297 19.9385 84.8556 19.0018 85.1456 18.3351C85.4354 17.6688 85.6897 17.0922 85.7106 17.0535C85.7319 17.0157 86.2477 17.2266 86.8569 17.5229C87.4667 17.8194 88.0834 17.9893 88.2276 17.9001C88.3716 17.811 88.4087 17.949 88.31 18.2065C88.1803 18.5447 88.3253 18.7238 88.8308 18.8506C89.7061 19.0704 89.8667 19.6994 89.7028 22.2676C89.6317 23.3836 89.639 24.3623 89.7191 24.4433C89.979 24.7033 90.6591 24.2954 90.6591 23.8797C90.6592 23.657 90.8614 23.1666 91.1082 22.7897C91.6352 21.9855 91.4002 21.2984 90.7755 21.8168C90.2598 22.2447 90.2696 21.9733 90.8068 20.9345ZM91.218 18.1731C91.6485 19.1461 91.719 19.6461 91.5228 20.3308C91.3679 20.8708 91.3706 21.2859 91.5297 21.3842C91.8666 21.5925 91.8667 22.5133 91.5294 23.1451C91.385 23.4155 91.1966 23.8627 91.1107 24.1391C91.0249 24.4154 90.6654 24.7531 90.3115 24.8897C89.0977 25.3575 90.6057 25.6135 92.048 25.1845C92.7639 24.9715 94.0505 24.7911 94.9071 24.7835C95.8184 24.7752 96.5575 24.6245 96.6887 24.4201C96.8121 24.2277 97.6073 23.8685 98.4559 23.6219L99.9994 23.1733L99.5542 22.3124C98.3743 20.031 94.5236 17.4253 91.7905 17.0588L90.658 16.9067L91.218 18.1731ZM88.305 23.2889C88.3089 23.319 88.3107 23.3486 88.31 23.3793C88.2925 23.8474 87.7777 24.1016 87.3686 24.0876C87.2461 24.0854 87.1218 24.045 87.0223 23.9673C86.9976 23.948 86.9743 23.9264 86.9537 23.9029L87.0013 23.8077C87.029 23.8084 87.056 23.8086 87.0821 23.8083C87.1863 23.8067 87.2794 23.8023 87.3741 23.8044C87.6984 23.8071 88.0778 23.6896 88.1822 23.3611C88.1893 23.3377 88.1949 23.3141 88.1988 23.2889H88.305ZM84.9951 20.3798C84.7219 20.3798 84.3447 20.5648 84.1569 20.791C83.4044 21.6975 84.5094 23.0901 85.4907 22.4722C86.4711 21.8545 86.1219 20.3798 84.9951 20.3798ZM88.3935 19.247C88.1203 19.247 87.743 19.432 87.5553 19.6582C86.8804 20.4713 87.8112 21.7182 88.8075 21.3358C89.8377 20.9404 89.5022 19.247 88.3935 19.247ZM87.1058 18.1598C86.1306 17.7152 86.0382 17.74 86.2101 18.3974C86.2913 18.7088 86.2426 18.9637 86.1014 18.9638C85.9603 18.9638 85.8396 18.8046 85.8334 18.6098C85.827 18.4156 85.6259 18.6179 85.3865 19.0597C85.147 19.5019 84.9927 19.8842 85.0438 19.9093C85.0948 19.9346 85.4218 20.1144 85.77 20.309C86.6494 20.8003 86.9775 20.7519 86.9775 20.1311C86.9776 19.8389 87.1687 19.4409 87.4023 19.247C87.9955 18.7548 87.9364 18.5381 87.1058 18.1598Z" fill="#111F78"/>
</g>
<defs>
<clipPath id="clip0_3371_580">
<rect width="120" height="120" fill="white"/>
</clipPath>
</defs>
</svg>
