<svg width="120" height="120" viewBox="0 0 120 120" fill="none" xmlns="http://www.w3.org/2000/svg">
<path d="M78.4629 7.48395C79.6836 8.13604 81.6054 9.22331 82.7337 9.89997L84.785 11.1304L84.9503 13.8289C85.041 15.3134 85.1172 17.9056 85.1193 19.5895L85.123 22.651L86.6048 23.2206C88.7919 24.0613 88.7071 24.1163 89.0452 21.6419C89.2709 19.9904 89.7682 19.0707 90.7643 18.464C91.8206 17.82 92.628 17.8402 93.7742 18.5386C94.6917 19.098 96.5147 21.2302 96.5149 21.7445C96.5149 21.8893 97.0084 21.6603 97.6116 21.2352C99.835 19.6693 101.923 20.1222 101.944 22.1746C101.95 22.7151 101.857 23.5447 101.739 24.0181C101.549 24.7808 101.575 24.8592 101.971 24.7073C102.217 24.6129 102.8 24.6617 103.267 24.8156C104.413 25.1933 104.671 26.2924 103.994 27.9038C103.829 28.2944 103.971 28.3468 105.196 28.3468C107.844 28.3468 109.136 28.9706 108.082 29.7404C107.456 30.1978 107.567 30.3717 108.484 30.374C109.741 30.377 113.236 31.2783 113.669 31.7109C114.012 32.0537 113.99 32.1287 113.458 32.4128C112.99 32.6631 109.941 32.6936 99.1357 32.5566C91.5853 32.4609 85.3567 32.4715 85.2942 32.5801C85.2319 32.6889 85.2367 33.9733 85.305 35.4349L85.4295 38.093H95.1217L99.1115 40.1033C101.306 41.2088 103.101 42.1918 103.101 42.2875C103.101 42.3834 103.438 42.6011 103.85 42.7718C104.337 42.973 104.686 43.3611 104.848 43.8783C104.988 44.3286 105.173 50.8168 105.272 58.7878L105.448 72.9007H104.844C104.511 72.9007 103.442 72.6704 102.467 72.3887C101.492 72.1072 99.3162 71.7426 97.6314 71.5786L94.5683 71.2802L94.4016 63.3157C94.3101 58.9353 94.2351 51.6672 94.2351 47.165V38.979H85.3689V40.4979H92.3953L92.5313 41.5115C92.7738 43.3177 92.6509 43.4454 90.5033 43.6269C89.4485 43.716 87.8617 43.7888 86.9771 43.7888C86.074 43.7888 85.3691 43.8997 85.3689 44.0419C85.3689 44.1986 86.7241 44.2951 88.928 44.2951H92.4871L92.4111 45.7507C92.3372 47.1691 92.3157 47.2076 91.5752 47.2579C91.1572 47.2863 89.5899 47.3827 88.0921 47.472C86.0006 47.5971 85.3689 47.7173 85.3689 47.9902C85.369 48.2782 86.0364 48.3454 88.8881 48.3454C92.7213 48.3454 92.7151 48.343 92.7151 49.8643C92.7151 51.3857 92.7214 51.3832 88.8881 51.3832C85.8854 51.3832 85.3689 51.4405 85.3689 51.7738C85.3689 52.1087 85.8626 52.1592 88.8211 52.1278C92.5626 52.0878 92.7041 52.1372 92.7114 53.4885C92.7201 55.1025 92.5377 55.1804 88.762 55.1804C85.3518 55.1804 85.3341 55.1835 85.4144 55.75C85.4939 56.3097 85.5571 56.3196 89.042 56.3196H92.5885V59.1042L88.9787 59.1744C86.0325 59.2319 85.369 59.3118 85.3689 59.6105C85.3689 59.9092 86.0323 59.9893 88.9787 60.0468L92.5885 60.1168L92.6706 60.9746C92.7157 61.4465 92.6849 62.1014 92.6023 62.4302C92.4534 63.023 92.4223 63.028 88.8921 63.028C85.6378 63.028 85.3391 63.066 85.4169 63.471C85.4923 63.8641 85.9083 63.9219 89.1212 63.9844L92.7399 64.0549L92.5885 66.9517L89.1053 67.0222C86.2398 67.0802 85.6222 67.1586 85.6222 67.4652C85.6222 67.7755 86.2155 67.8378 89.1687 67.8378H92.7151V69.2004C92.7151 70.8691 92.72 70.8672 88.6284 70.8721C85.6872 70.8756 85.6809 70.8768 85.5601 71.5084L85.4391 72.1413H92.1496C97.9709 72.1413 99.1163 72.2066 100.791 72.6344C101.853 72.9056 104.431 73.5465 106.521 74.0586C108.611 74.5708 110.462 75.1202 110.634 75.2791C111.134 75.7428 111.432 79.7708 111.726 90.024C111.878 95.2952 112.082 99.6901 112.18 99.7906C112.279 99.8911 114.057 100.005 116.132 100.044C118.578 100.089 119.938 100.211 119.998 100.391C120.133 100.798 114.724 101 103.709 101C80.8226 101 57.9386 100.746 35.0524 100.745C17.6547 100.744 2.65032 100.671 1.70991 100.582C0.519389 100.47 7.2135e-05 100.316 0 100.077C0 99.8043 0.767035 99.7343 3.77259 99.7343C6.97912 99.7343 7.56834 99.6743 7.69905 99.3338C7.87354 98.8794 7.91142 95.9383 7.74284 95.9371C7.68229 95.9371 7.32371 96.0546 6.94626 96.1979C4.90071 96.975 2.61646 94.1817 3.65558 92.1737C3.87267 91.7543 4.29884 91.2373 4.60281 91.0247C5.08563 90.6865 5.11777 90.5555 4.85761 89.9846C4.29677 88.7546 4.48824 88.0713 5.72592 86.8861L6.89233 85.7692L6.46387 84.6478C6.03932 83.5373 6.04174 83.5157 6.69072 82.4088C7.06031 81.7787 7.34628 80.9017 7.34628 80.3987C7.34629 78.5963 8.38603 77.5536 9.55813 78.1804C10.1007 78.4709 10.6394 79.9987 10.6394 81.2476C10.6395 81.8209 10.83 82.2177 11.2727 82.5658C11.9668 83.1113 12.0594 83.7778 11.6166 85.0471C11.34 85.8399 11.3698 85.9131 12.2843 86.6804L13.2417 87.4833L13.0631 89.3889C12.9065 91.0565 12.9535 91.4372 13.4393 92.4365C13.9829 93.5549 13.985 93.5983 13.5405 94.5344C12.8966 95.8907 11.8275 96.4976 10.3122 96.367L9.098 96.2624L9.17222 97.9353L9.24618 99.6077L14.4392 99.7521L14.4439 95.7561C14.4515 89.5699 15.3207 74.772 15.7014 74.3449C15.8006 74.2343 17.4078 74.0634 19.2736 73.9652L22.6662 73.7867L22.8443 72.521C22.9424 71.8247 23.2014 68.692 23.42 65.5594C23.6386 62.4268 23.9282 59.0662 24.0637 58.0916C24.1995 57.1169 24.4864 53.8133 24.7017 50.7503C25.1095 44.9477 25.4999 41.5517 25.8184 41.0368C25.9905 40.7589 27.3047 40.5634 32.425 40.0541L34.3249 39.865L34.506 38.2196C34.6055 37.3145 34.8653 33.84 35.0829 30.4986C35.3005 27.157 35.5828 23.113 35.7105 21.5119C35.8381 19.9107 36.0702 16.6641 36.2263 14.2972C36.4058 11.5693 36.6343 9.80198 36.8502 9.46933C37.1435 9.01746 37.6249 8.90221 40.3177 8.63894C42.0375 8.47085 44.4136 8.20119 45.5981 8.04018C51.6769 7.2128 64.1215 7.05316 67.3557 6.71512C67.9976 6.64778 70.2602 6.52667 72.3832 6.44541L76.2432 6.29807L78.4629 7.48395ZM105.382 90.7458C105.383 92.2783 105.458 94.99 105.549 96.7719L105.714 100.012L106.878 99.9362L108.041 99.8608L107.968 95.3042C107.928 92.7981 107.83 90.1599 107.752 89.4418L107.609 88.1365L106.495 88.0477L105.381 87.9595L105.382 90.7458ZM88.6729 73.1959C83.9994 73.2192 77.4969 73.322 74.2228 73.4245C54.495 74.0425 49.1418 74.1763 33.5649 74.4413C24.0928 74.6025 16.2653 74.8061 16.1675 74.8935C16.073 74.9811 15.8743 79.4952 15.7259 84.9252C15.5777 90.3551 15.3891 95.9083 15.3073 97.2661L15.1586 99.7343L17.5221 99.7306C18.8217 99.7283 20.0395 99.629 20.2283 99.5096C20.4537 99.3668 20.6182 98.5367 20.7092 97.0797C20.8455 94.8973 20.8398 94.8707 20.3198 95.1489C19.3587 95.6628 18.2552 95.486 17.4595 94.6909C16.8377 94.0694 16.7191 93.7473 16.7191 92.6785C16.7191 91.5911 16.8296 91.3029 17.4793 90.6961C18.1645 90.0562 18.2157 89.9036 17.9986 89.1476C17.6931 88.0828 17.9905 87.2752 19.0413 86.316L19.8463 85.5813L19.3978 84.587C18.9611 83.6195 18.9634 83.56 19.4807 82.3915C19.7732 81.7308 20.0123 80.7007 20.0123 80.1028C20.0123 78.9008 20.9659 77.4573 21.7598 77.4573C22.732 77.4574 23.1725 78.1187 23.3045 79.7767C23.4253 81.2946 23.4765 81.3998 24.274 81.7749C25.7178 82.4541 25.9409 83.3628 25.0787 85.0518C24.68 85.833 24.6394 86.0996 24.8887 86.3036C25.0627 86.4464 25.576 86.8598 26.0286 87.2223C26.8952 87.9162 27.0438 88.5642 26.6028 89.7238C26.4189 90.2071 26.4595 90.6431 26.7574 91.3871C27.3352 92.8303 27.0616 93.945 25.9148 94.8192C24.9677 95.5411 23.9889 95.7081 22.7355 95.3611L22.0388 95.168L22.0426 97.1348C22.0448 98.2165 22.1381 99.2458 22.2501 99.422C22.4084 99.6708 24.0885 99.7273 29.7827 99.6752L37.1114 99.6077L37.2381 93.0259C37.3546 86.9694 37.3292 86.4164 36.9214 86.0967C36.5716 85.8226 36.4781 85.3603 36.4781 83.9017C36.4781 82.0872 36.4905 82.0521 37.1747 81.9223C39.0939 81.558 61.0633 80.9185 61.366 81.218C61.7146 81.5627 61.7151 85.6291 61.3668 85.7467C61.1239 85.8287 61.0501 87.4673 61.0501 92.7937V99.7343C65.8993 99.7343 96.2616 99.671 96.887 99.671C96.9438 99.4961 97.0306 93.4587 97.0802 86.2542L97.17 73.1538L88.6729 73.1959ZM101.835 99.9874H104.875V87.893L103.925 87.7207C103.402 87.626 102.718 87.4871 102.405 87.4119L101.835 87.2752V99.9874ZM38.1502 91.064C38.0643 93.8139 37.9548 96.8893 37.9072 97.899L37.8206 99.7343H48.303L48.4638 93.1176C48.5519 89.4785 48.5632 86.4028 48.4893 86.2826C48.4151 86.1626 46.0936 86.0643 43.3303 86.0643H38.3067L38.1502 91.064ZM58.0736 85.8633C56.8547 85.892 54.3182 85.9773 52.4373 86.0532L49.0174 86.1909L48.9501 92.9626L48.8824 99.7343H59.9594L60.1237 96.8864C60.2139 95.3201 60.2884 92.1874 60.2889 89.9248L60.2902 85.8112L58.0736 85.8633ZM103.979 94.6713C104.199 94.6713 104.368 94.8913 104.368 95.1776C104.368 95.456 104.315 95.6838 104.25 95.6839C104.186 95.6839 104.01 95.4561 103.861 95.1776C103.645 94.7737 103.669 94.6713 103.979 94.6713ZM105.888 95.0221C105.888 94.6179 106.006 94.4154 106.204 94.4815C106.678 94.6389 106.729 95.3451 106.28 95.5175C105.989 95.6292 105.888 95.5015 105.888 95.0221ZM50.0478 93.4056C50.4938 93.4057 50.5304 94.0744 50.094 94.2506C49.916 94.3225 49.9849 94.387 50.2516 94.3982C50.6511 94.4151 50.6743 94.4802 50.4001 94.8105C50.1166 95.152 50.027 95.1556 49.7099 94.8389C49.4862 94.6152 49.4108 94.2684 49.5152 93.9403C49.6084 93.6462 49.8482 93.4056 50.0478 93.4056ZM46.5191 93.7853C46.7469 93.1922 47.4556 93.3077 47.2974 93.9119C47.2247 94.1903 47.2647 94.418 47.3864 94.4182C47.5083 94.4182 47.5453 94.5821 47.4686 94.7821C47.3056 95.2063 46.7123 95.0469 46.5119 94.5252C46.4357 94.327 46.4391 93.9941 46.5191 93.7853ZM58.7703 81.8657C57.586 81.8535 52.2566 81.9545 46.9275 82.0896L37.2381 82.3359V85.558C45.1888 85.558 53.1264 85.2084 61.0722 84.9716L60.9979 83.4295L60.9235 81.8874L58.7703 81.8657ZM107.281 77.8096C104.944 77.318 105.1 77.1708 105.182 79.7866L105.254 82.1161L106.901 82.4197C107.807 82.5865 108.638 82.6383 108.749 82.5349C108.859 82.4316 108.916 81.3977 108.875 80.2377L108.801 78.129L107.281 77.8096ZM100.115 78.8697L100.188 81.3613L101.708 81.6768C104.418 82.2388 104.287 82.3291 104.428 79.7989C104.497 78.5811 104.453 77.458 104.332 77.3026C104.21 77.1479 103.57 76.9544 102.909 76.8727C102.249 76.7909 101.333 76.646 100.875 76.5508L100.042 76.3777L100.115 78.8697ZM32.9467 41.0403C32.172 41.0598 30.3413 41.1838 28.8785 41.3157C27.4156 41.4473 26.1869 41.5862 26.1484 41.6242C26.1098 41.6634 25.9107 44.1875 25.7058 47.2342C25.5011 50.282 25.2193 53.6868 25.0797 54.8007C24.9398 55.9145 24.6517 59.5029 24.4392 62.7748C24.2264 66.0467 23.9414 69.5579 23.8057 70.5774C23.6699 71.597 23.5588 72.7076 23.5588 73.0456V73.6601H27.597C30.1616 73.6601 31.6954 73.5625 31.8006 73.3926C31.8918 73.2453 32.1789 70.2551 32.4388 66.7475C32.699 63.2399 32.9724 59.9712 33.0464 59.4839C33.1204 58.9963 33.3592 55.465 33.577 51.6363C33.7949 47.8075 34.0592 43.849 34.1641 42.8395L34.355 41.0042L32.9467 41.0403ZM74.9281 7.1208C74.3313 7.14206 72.1543 7.24636 70.0905 7.35293C60.001 7.87519 52.1371 8.12651 44.9599 8.95339C43.1512 9.16199 40.6938 9.40976 39.4996 9.50443L37.3283 9.67625L37.0117 15.151C36.8374 18.1622 36.5928 21.4801 36.4682 22.5244C36.3433 23.5687 36.0627 27.4418 35.8445 31.1314C35.6262 34.821 35.3419 38.7511 35.2125 39.865C35.0833 40.9789 34.8014 44.909 34.5859 48.5986C34.37 52.2881 34.0807 56.3321 33.9427 57.5853C33.585 60.8312 32.881 73.1876 33.0444 73.3509C33.1929 73.493 62.6025 72.9576 69.9163 72.6797L74.0961 72.521L74.2693 65.5594C74.3645 61.7306 74.5661 55.4652 74.7168 51.6363C74.8675 47.8074 75.1578 36.7576 75.3615 27.0811C75.5654 17.4046 75.7953 8.94615 75.8726 8.28493L76.0136 7.08248L74.9281 7.1208ZM30.3984 61.6114L31.285 61.6357L31.2732 63.028C31.2569 64.9151 30.9035 70.6128 30.7588 71.3185C30.6464 71.8676 30.5415 71.8881 27.8605 71.8881H25.0787V71.139C25.0787 70.7269 25.1985 69.5594 25.3451 68.5443C25.4918 67.5292 25.6912 65.6164 25.7884 64.2937L25.9653 61.8888L27.7385 61.738C28.7138 61.655 29.9108 61.598 30.3984 61.6114ZM26.5986 63.7409C26.5986 64.4115 26.494 65.5793 26.3663 66.3357C26.2384 67.0923 26.0717 68.4802 25.9957 69.4199L25.8577 71.1287H30.0714L30.2359 68.6605C30.3263 67.3029 30.4721 65.3665 30.56 64.357L30.7198 62.5217H26.5986V63.7409ZM97.2606 67.5846C97.1291 67.5846 97.0216 68.0186 97.0216 68.549V69.5129L98.8582 70.0592C99.8684 70.3597 101.185 70.682 101.785 70.7751L102.875 70.9447L102.702 70.214C102.607 69.8123 102.458 69.4089 102.372 69.3173C102.196 69.131 97.6344 67.5849 97.2606 67.5846ZM71.6896 64.6902C71.6896 66.9222 71.5758 68.8428 71.4274 69.1203C71.2032 69.5387 70.8814 69.6104 69.2108 69.6137C68.1359 69.6158 65.6605 69.7229 63.71 69.8518C61.7594 69.9809 55.9457 70.2068 50.7907 70.3536C45.6357 70.5005 40.0953 70.6665 38.4784 70.7227C36.8615 70.7787 35.4297 70.7506 35.2963 70.6602C35.1456 70.5579 35.1318 69.302 35.2595 67.3315C35.5429 62.9554 35.6284 62.5495 36.2992 62.4065C36.6066 62.3406 41.5889 62.1102 47.3709 61.8937C53.1529 61.6773 59.4796 61.3855 61.4301 61.2456C63.3807 61.1056 65.7746 60.959 66.7498 60.9197C67.7251 60.8807 69.2357 60.8267 70.1063 60.7993L71.6896 60.7496V64.6902ZM88.8251 68.3999C86.1283 68.3404 85.5883 68.3913 85.4631 68.7168C85.3813 68.9303 85.3857 69.3891 85.473 69.7368C85.6303 70.3634 85.6571 70.3692 88.4302 70.3692C91.6193 70.3692 92.1136 70.2085 92.0695 69.1868L92.0383 68.4706L88.8251 68.3999ZM40.9973 63.0777C40.2533 63.105 38.8827 63.1667 37.9515 63.2154L36.2584 63.3034L36.1248 64.6213C36.0514 65.346 35.9405 66.8788 35.8784 68.0276L35.7661 70.1161H36.844C37.4368 70.1161 38.7855 70.0433 39.841 69.9541L41.76 69.792L41.8953 68.6251C41.9698 67.9831 42.1025 66.4614 42.1902 65.243L42.35 63.028L40.9973 63.0777ZM78.5292 65.2682C78.5292 66.5033 78.4568 68.0427 78.3682 68.6884L78.2069 69.8629H81.3157V66.6909C81.3157 64.374 81.2304 63.4922 80.9991 63.421C80.8251 63.3674 80.1978 63.2556 79.6058 63.1728L78.5292 63.022V65.2682ZM48.0675 62.8218C46.9182 62.8476 45.3834 62.9103 44.6568 62.9612C43.3882 63.0503 43.3312 63.0861 43.22 63.8638C43.0376 65.1396 42.6116 69.7298 42.6693 69.7969C42.6996 69.8302 44.3252 69.7846 46.2834 69.6956L49.8454 69.5336L50.0015 68.3972C50.0871 67.7721 50.1574 66.2516 50.1574 65.0178V62.7748L48.0675 62.8218ZM57.7901 62.512C57.7016 62.4374 56.2222 62.4583 54.5022 62.5585C52.7816 62.6587 51.3035 62.8109 51.2177 62.8964C51.132 62.9832 51.0154 64.5464 50.9584 66.3713L50.855 69.6901L53.2049 69.5233C54.4976 69.4316 56.0353 69.3566 56.6225 69.3566H57.6899L57.8198 66.0024C57.8912 64.1575 57.8778 62.587 57.7901 62.512ZM63.0767 62.1185C61.8924 62.1056 60.4391 62.1404 59.8469 62.1963L58.7703 62.2977V63.51C58.7703 64.1768 58.695 65.781 58.603 67.0753L58.4358 69.4281L61.6466 69.3045C63.4122 69.2366 64.8999 69.1352 64.9526 69.079C65.005 69.0223 65.089 67.4387 65.1389 65.5594L65.2299 62.1419L63.0767 62.1185ZM66.1165 63.8769C66.1165 65.0401 66.0434 66.6919 65.954 67.5475L65.791 69.1035L67.6639 69.1C68.6936 69.0982 69.7865 69.0298 70.092 68.948C70.763 68.768 70.8561 68.3581 71.0788 64.6101L71.248 61.7622H66.1165V63.8769ZM100.185 64.8119C97.0463 63.8071 96.9721 63.8113 97.0698 64.9805C97.1473 65.9075 97.1727 65.9277 98.9391 66.4791C99.9237 66.7866 101.149 67.1169 101.662 67.213L102.595 67.3881V65.5834L100.185 64.8119ZM88.9228 64.5468C86.2837 64.5468 85.5778 64.6207 85.4676 64.9083C85.3911 65.107 85.3663 65.5344 85.4122 65.8576C85.4945 66.4384 85.536 66.4454 88.7887 66.4454H92.0818L92.1603 65.4961L92.2392 64.5468H88.9228ZM97.3382 60.2997C97.1191 60.2233 97.0216 60.503 97.0216 61.208C97.0216 62.1764 97.0748 62.246 98.0982 62.6176C98.6902 62.8325 99.7448 63.1728 100.441 63.3736C101.138 63.5741 101.908 63.8187 102.151 63.9167C102.533 64.0703 102.595 63.9408 102.595 62.9832V61.8717L100.125 61.1407C98.7663 60.7388 97.5126 60.3602 97.3382 60.2997ZM90.2453 60.539C89.305 60.5626 87.8514 60.6479 87.0154 60.7289C85.6607 60.8603 85.4864 60.9413 85.4107 61.475C85.3641 61.8043 85.4312 62.179 85.5596 62.3073C85.6959 62.4435 87.0752 62.4684 88.874 62.3667L91.9552 62.1926V60.4965L90.2453 60.539ZM78.7365 57.9816C78.6874 59.555 78.7547 60.5903 78.9092 60.6347C79.0485 60.6747 79.639 60.7739 80.2211 60.8552L81.2799 61.003L81.361 58.6884C81.4509 56.125 81.3403 55.926 79.6232 55.5688L78.8169 55.4009L78.7365 57.9816ZM65.1033 50.872C68.8326 50.674 71.5147 50.7391 72.0013 51.0396C72.3337 51.2468 72.0391 58.4297 71.6802 58.8622C71.5188 59.0566 69.3742 59.2095 65.1681 59.3262C61.7189 59.4221 57.2476 59.6206 55.2314 59.7677C53.2155 59.9145 48.0288 60.0532 43.7054 60.0757L35.8448 60.1168L35.9131 58.0916C35.9508 56.9778 36.0475 55.3026 36.1278 54.3693C36.2686 52.7336 36.3028 52.6631 37.0726 52.4257C37.5118 52.2903 41.1202 52.0538 45.091 51.9004C49.0618 51.747 54.3625 51.4968 56.8704 51.3444C59.3782 51.1917 63.083 50.979 65.1033 50.872ZM97.2831 56.4461C97.1392 56.4461 97.0216 56.8951 97.0216 57.4439C97.0216 57.9926 97.1565 58.5249 97.3217 58.6271C97.6517 58.8306 101.48 59.9876 102.088 60.0673C102.363 60.1033 102.489 59.824 102.545 59.0545C102.622 57.9974 102.617 57.9906 101.532 57.7025C100.932 57.5432 99.7896 57.1955 98.993 56.9297C98.1961 56.6637 97.4268 56.4462 97.2831 56.4461ZM40.5799 52.9426C39.5082 52.9649 38.2699 53.0286 37.8283 53.0838L37.0253 53.1844L36.868 55.1317C36.7813 56.2027 36.6476 57.62 36.5706 58.2815L36.4303 59.4839L38.9242 59.4802C40.2957 59.4779 41.5633 59.384 41.7412 59.2711C42.0621 59.0674 42.1799 58.2678 42.4091 54.7374L42.5283 52.9021L40.5799 52.9426ZM48.8737 52.7589C48.2561 52.7496 46.7708 52.7823 45.5729 52.8314L43.3947 52.9206L43.1663 56.0761L42.9378 59.2313L46.2794 59.231C48.117 59.231 49.6754 59.1425 49.7425 59.0345C49.8094 58.9264 49.8936 57.4738 49.93 55.8068L49.9966 52.7755L48.8737 52.7589ZM32.0386 54.3577C31.9595 55.7153 31.8388 57.2943 31.7699 57.8664L31.6445 58.9069L29.945 59.0639C29.01 59.1502 27.8178 59.1514 27.2952 59.0664L26.3453 58.9114L26.3532 57.4889C26.3621 55.889 26.765 52.4885 26.9887 52.1266C27.0693 51.9962 28.2708 51.8895 29.6585 51.8895H32.1818L32.0386 54.3577ZM57.2261 52.4499C56.8912 52.4795 55.3515 52.5401 53.8048 52.5844L50.992 52.665L50.8283 54.9742C50.7378 56.2443 50.664 57.6646 50.664 58.1307V58.9776L53.7672 58.9739C55.4739 58.9716 57.0125 58.8798 57.1865 58.7695C57.3945 58.6373 57.5595 57.5132 57.6689 55.4823L57.8347 52.3958L57.2261 52.4499ZM88.9661 56.6993C86.9791 56.6993 85.8751 56.8011 85.6729 57.0031C85.5057 57.1702 85.3689 57.6259 85.3689 58.0157C85.3689 58.6929 85.4228 58.7245 86.5721 58.723C87.2341 58.7222 88.7157 58.6484 89.8653 58.5591L91.9552 58.3964V56.6993H88.9661ZM64.0266 52.1948C63.4347 52.2234 61.9645 52.2847 60.76 52.3308L58.5696 52.4148L58.4647 55.5062C58.4072 57.2065 58.3813 58.631 58.4073 58.6721C58.4332 58.7131 59.9505 58.6676 61.7789 58.5712L65.1033 58.3957V52.1426L64.0266 52.1948ZM69.3788 51.9241C68.2115 51.9431 67.0155 52.0058 66.7211 52.0638C66.2695 52.1524 66.1608 52.4098 66.0245 53.7117C65.9359 54.5605 65.8632 55.9907 65.8632 56.8904V58.526L68.4597 58.3438C69.8876 58.2438 71.0736 58.1462 71.0954 58.1267C71.1167 58.1075 71.2169 56.6962 71.3178 54.9905L71.5013 51.8895L69.3788 51.9241ZM29.4 52.6489C28.4331 52.6489 27.5895 52.7343 27.5248 52.8388C27.4605 52.9433 27.3248 54.1964 27.2237 55.6234L27.0399 58.2182H30.8388L30.9958 57.2689C31.0822 56.7468 31.1541 55.4937 31.1556 54.4842L31.1584 52.6489H29.4ZM97.7553 52.7698C97.041 52.6131 97.0216 52.6356 97.0216 53.6267C97.0216 54.1863 97.1565 54.7277 97.3217 54.8299C97.6517 55.0334 101.48 56.1904 102.088 56.2701C102.37 56.3068 102.468 56.0622 102.468 55.3223V54.325L100.479 53.6279C99.3845 53.2447 98.159 52.8585 97.7553 52.7698ZM88.7808 52.6489C86.2646 52.6489 85.5775 52.7241 85.4676 53.0104C85.1728 53.7779 85.4761 54.5482 86.0655 54.5297C86.3791 54.5196 87.8324 54.4913 89.2953 54.4664L91.9552 54.421V52.6489H88.7808ZM79.1519 48.3454C79.1261 48.3454 79.0322 48.8742 78.9436 49.5202C78.8549 50.166 78.7825 51.2348 78.7825 51.8949V53.0954L79.9353 53.3854C80.5695 53.5448 81.1964 53.6087 81.3286 53.527C81.4608 53.4455 81.5691 52.4277 81.5691 51.2655V49.1526L80.3841 48.7491C79.7323 48.5271 79.1777 48.3454 79.1519 48.3454ZM97.3679 48.8517C97.0829 48.8517 97.0113 49.1108 97.0706 49.9261C97.1471 50.9838 97.1698 51.0077 98.5415 51.471C99.3078 51.7299 100.469 52.1577 101.121 52.422C101.774 52.686 102.38 52.9021 102.466 52.9021C102.799 52.9019 102.453 50.7945 102.088 50.5948C101.323 50.1779 97.7327 48.8518 97.3679 48.8517ZM89.232 48.8863C87.7343 48.9053 86.2462 48.9709 85.9242 49.0322C85.4384 49.1251 85.353 49.2794 85.4176 49.9471C85.485 50.6405 85.5908 50.7482 86.1922 50.7348C86.5752 50.7259 88.0287 50.6975 89.422 50.6715L91.9552 50.6238V48.8517L89.232 48.8863ZM72.4495 44.8182C72.4495 46.7884 72.3325 48.5974 72.1873 48.8685C71.9682 49.2776 71.6449 49.3587 70.2241 49.3607C69.2886 49.362 66.9271 49.4716 64.9766 49.604C63.026 49.7364 57.3263 49.9613 52.3106 50.1039C47.2949 50.2464 41.6627 50.4319 39.7948 50.516L36.3982 50.669L36.5684 47.6953C36.8118 43.4374 36.9427 42.7903 37.5876 42.6657C38.5923 42.4718 49.4942 41.9619 59.4036 41.6452C64.8373 41.4718 69.9956 41.3137 70.8663 41.2937L72.4495 41.2573V44.8182ZM28.7518 42.9604C30.1081 42.7673 32.3912 42.7712 32.5128 42.9668C32.7476 43.3465 32.1203 49.7381 31.8303 49.9239C31.4303 50.1788 27.8176 50.1596 27.408 49.9004C27.141 49.7311 27.1298 49.0882 27.3497 46.5576C27.4993 44.8349 27.705 43.3451 27.8068 43.2464C27.9084 43.1484 28.3339 43.0199 28.7518 42.9604ZM43.0854 43.3878C42.977 43.2798 41.5 43.3089 38.9754 43.4689L37.5458 43.5594L37.3632 46.5989C37.2627 48.2699 37.2218 49.6665 37.2724 49.7029C37.3231 49.7383 38.5616 49.704 40.0246 49.6263L42.6844 49.4846L42.9378 46.4889C43.0771 44.8414 43.1437 43.4458 43.0854 43.3878ZM32.0759 44.2318C32.2061 43.5656 32.1704 43.5373 31.2417 43.5717C30.7082 43.5915 29.8158 43.6768 29.2585 43.7616L28.2452 43.9154L28.1109 46.4468C28.0369 47.839 28.0153 49.0637 28.0626 49.1682C28.1097 49.2725 28.875 49.358 29.7631 49.358C31.6123 49.358 31.5366 49.4577 31.782 46.7C31.8687 45.7254 32.0009 44.6145 32.0759 44.2318ZM47.4916 43.0294C44.7544 43.0294 44.3194 43.0866 44.1207 43.4724C43.9953 43.7161 43.8167 45.1401 43.7237 46.6367L43.555 49.358H50.121L50.2553 48.029C50.3291 47.2981 50.4447 45.8742 50.5121 44.8647L50.6346 43.0294H47.4916ZM54.968 42.7762C52.6359 42.7762 51.6502 42.8664 51.5061 43.0926C51.3954 43.2668 51.2624 44.6908 51.2105 46.257L51.116 49.1049H54.4443C56.886 49.1049 57.7991 49.0206 57.871 48.7884C57.9247 48.6142 58.0272 47.1903 58.0986 45.6241L58.2285 42.7762H54.968ZM98.8745 45.9057C97.1651 45.1275 97.0216 45.1471 97.0216 46.1554C97.0216 46.9119 97.1372 47.0519 98.0982 47.4604C98.6902 47.7123 99.7664 48.1853 100.489 48.5116C102.242 49.3031 102.595 49.2801 102.595 48.3746C102.595 47.6126 102.029 47.0792 100.821 46.7015C100.473 46.5926 99.5969 46.2345 98.8745 45.9057ZM62.3316 42.5231C60.5093 42.5231 59.2419 42.6279 59.1438 42.7866C59.0541 42.9314 58.9166 44.3554 58.8378 45.9509L58.6951 48.8517L61.4556 48.8483C65.648 48.8432 65.3566 49.0909 65.3566 45.5312V42.5231H62.3316ZM66.2823 44.3584C66.1929 45.5069 66.1188 46.9434 66.118 47.5502L66.1165 48.6532L68.7131 48.471C70.1407 48.3711 71.3586 48.2425 71.4199 48.1857C71.4807 48.1288 71.581 46.7745 71.6421 45.1762L71.7534 42.2699H66.4448L66.2823 44.3584ZM85.3689 46.8266H87.4867C88.6517 46.8266 90.1337 46.7542 90.7799 46.6656C91.867 46.5168 91.9552 46.4502 91.9552 45.7796V45.0545H85.3689V46.8266ZM80.5897 41.5505C79.0154 41.0792 79.0359 41.0531 79.0359 43.5356C79.0359 45.6221 79.0773 45.814 79.5277 45.814C79.7981 45.814 80.0897 45.9279 80.1758 46.0671C80.2619 46.2063 80.6104 46.3202 80.9506 46.3203C81.5596 46.3203 81.5691 46.2864 81.5691 44.082V41.844L80.5897 41.5505ZM97.1915 41.7636C97.0981 41.7637 97.0216 42.2083 97.0216 42.7515C97.0216 43.599 97.1204 43.7753 97.7182 43.9922C98.1013 44.1312 99.2985 44.6518 100.378 45.1495L102.341 46.0545V44.1329L99.8514 42.9485C98.482 42.2969 97.285 41.7636 97.1915 41.7636ZM85.3689 43.0447L91.8285 42.9028L91.9874 41.2573H85.3689V43.0447ZM72.6992 35.3717C72.6969 37.2862 72.5959 39.0091 72.4745 39.2003C72.2129 39.6131 69.1318 39.8312 57.757 40.242C53.5075 40.3957 48.4918 40.6288 46.6109 40.7604C44.73 40.8921 41.8344 41.0007 40.1767 41.002L37.1626 41.0042L37.3397 37.3968C37.4563 35.0201 37.6269 33.6778 37.8402 33.4624C38.0879 33.2123 41.4489 33.046 52.0771 32.7569C59.7291 32.5488 66.9588 32.2844 68.1431 32.1695C69.3274 32.0543 70.8377 31.9445 71.4996 31.9255L72.7029 31.8909L72.6992 35.3717ZM38.1628 36.2334C38.0721 37.5077 37.998 38.942 37.998 39.4208V40.291L40.6373 40.2044C42.0891 40.1568 43.3277 40.0612 43.3897 39.9916C43.4518 39.9212 43.5795 38.5261 43.6737 36.8905L43.8452 33.9161H38.327L38.1628 36.2334ZM48.7052 33.7035C47.3442 33.7257 45.8603 33.7902 45.4076 33.8461L44.5843 33.9482L44.5821 35.6409C44.5811 36.5719 44.5063 37.9474 44.4161 38.6977L44.2523 40.0615L47.3946 39.8786C49.123 39.7779 50.6083 39.6197 50.6952 39.5271C50.7821 39.4341 50.9264 38.0771 51.0163 36.5108L51.1798 33.6629L48.7052 33.7035ZM58.3613 33.2004C58.0985 33.2244 56.5726 33.3235 54.9705 33.4201C53.3682 33.5171 52.0392 33.6113 52.0174 33.6295C51.9956 33.6487 51.9014 34.7739 51.8079 36.1311C51.7144 37.4887 51.5766 38.8153 51.5021 39.0794C51.3722 39.5382 51.5184 39.5535 54.8255 39.4274C56.7279 39.355 58.3272 39.2526 58.3789 39.2005C58.4309 39.1476 58.5557 37.7667 58.6562 36.1311C58.8295 33.3119 58.8143 33.1589 58.3613 33.2004ZM79.2892 38.9296L80.087 39.2074C81.5305 39.7104 81.5691 39.6653 81.5691 37.4752C81.5691 36.3696 81.4827 35.4118 81.3771 35.3464C81.2717 35.2811 80.7587 35.148 80.2372 35.05L79.2892 34.8723V38.9296ZM63.8367 33.0075C62.7917 32.9954 61.3954 33.03 60.7335 33.0847L59.5302 33.1846V34.2716C59.5302 34.8695 59.4549 36.2466 59.3632 37.3318L59.1963 39.3051L62.2828 39.178C63.9803 39.1081 65.4139 39.0062 65.4689 38.9516C65.5236 38.8968 65.6061 37.5418 65.6525 35.941L65.7366 33.03L63.8367 33.0075ZM69.4245 32.6503C68.0394 32.6503 66.8439 32.7515 66.7676 32.875C66.6911 32.9989 66.5524 34.4338 66.4592 36.0643L66.2897 39.0289L68.8726 38.9409C70.8214 38.8743 71.5144 38.7593 71.6953 38.4727C71.8272 38.2635 71.9369 36.868 71.9392 35.3717L71.9429 32.6503H69.4245ZM80.7713 29.3844C79.6213 28.9837 79.5428 29.0183 79.5398 29.929C79.5383 30.3814 79.469 31.1624 79.3859 31.6642C79.2456 32.5121 79.2859 32.5866 79.9586 32.7223C80.3566 32.8025 80.8821 32.9453 81.1258 33.0394C81.5222 33.1926 81.5691 33.0227 81.5691 31.4365C81.5691 29.6739 81.5636 29.6603 80.7713 29.3844ZM72.9003 26.6381L72.8295 29.9923L70.1697 30.1648C68.7067 30.2595 65.9139 30.4612 63.9633 30.6125C62.0128 30.7642 56.883 31.0574 52.5639 31.2644C48.2449 31.4713 43.2039 31.7145 41.3617 31.8046C38.4178 31.9489 37.9928 31.9193 37.8553 31.5606C37.7689 31.3362 37.8528 29.8092 38.0415 28.1676L38.3847 25.1825L42.8143 24.889C45.2507 24.7275 49.0111 24.4759 51.1707 24.3296C53.3302 24.1835 58.289 23.9389 62.1901 23.786C66.0911 23.6333 69.4539 23.4711 69.663 23.4255C69.872 23.38 70.702 23.3295 71.507 23.3133L72.9708 23.2839L72.9003 26.6381ZM92.1167 18.7272C91.4625 18.7273 91.0952 18.9013 90.7064 19.3952C90.1516 20.1 89.422 22.2408 89.422 23.1642C89.422 23.4652 89.1981 23.9144 88.9243 24.162C88.3964 24.6394 87.9983 24.6091 86.2555 23.9605L85.2422 23.5838L85.172 27.4101C85.1332 29.5147 85.1585 31.3837 85.2274 31.5638C85.3282 31.8258 88.0596 31.8866 98.9769 31.8691C106.47 31.8572 112.302 31.757 111.936 31.6464C111.57 31.536 110.09 31.3084 108.648 31.1406C105.183 30.7381 104.939 30.5703 106.584 29.7248L107.534 29.2368L105.085 29.108C103.737 29.0374 102.568 28.9117 102.485 28.8286C102.402 28.7454 102.561 28.3894 102.838 28.0373C103.369 27.3622 103.584 26.1386 103.263 25.6183C103.033 25.247 101.862 25.2151 100.965 25.556C100.182 25.8537 100.117 25.5129 100.695 24.1311C101.18 22.9699 101.181 21.6624 100.697 21.2609C100.105 20.77 98.6561 21.1796 97.6156 22.1321C96.56 23.0986 96.1899 23.0675 95.7369 21.9744C95.5619 21.5529 94.875 20.6497 94.2103 19.9675C93.2186 18.9501 92.8425 18.7272 92.1167 18.7272ZM44.4047 25.7521C44.3036 25.5671 43.5528 25.5664 40.3707 25.7489L38.8171 25.8379L38.6353 28.5016C38.5352 29.9661 38.5119 31.223 38.5833 31.2946C38.6548 31.366 39.8916 31.3299 41.3322 31.2145L43.951 31.0049L44.2296 28.4734C44.3826 27.0811 44.4615 25.8564 44.4047 25.7521ZM50.6007 25.1081C50.148 25.1367 48.7748 25.1982 47.549 25.2445C46.09 25.3 45.2885 25.4349 45.227 25.6356C45.1756 25.804 45.0696 27.0607 44.9913 28.4282L44.8488 30.9144L47.8199 30.7376C49.4537 30.6407 50.9333 30.4477 51.1073 30.309C51.3221 30.1378 51.424 29.2535 51.424 27.5565V25.0559L50.6007 25.1081ZM57.187 24.8517C56.1768 24.8785 54.6381 24.9408 53.7672 24.9902L52.1839 25.0801V30.4494L55.3841 30.2781C57.1441 30.1841 58.6831 30.0462 58.8039 29.9715C58.9247 29.8968 59.0236 28.7036 59.0236 27.3194V24.8028L57.187 24.8517ZM65.7366 24.425C65.5971 24.4035 64.2862 24.466 62.8234 24.5635C61.3605 24.6612 60.078 24.7547 59.9735 24.7716C59.8692 24.7888 59.7835 26.0145 59.7835 27.4954V30.1878L62.7601 30.0079C64.397 29.9089 65.8265 29.7406 65.9362 29.6346C66.2264 29.3532 66.0393 24.4716 65.7366 24.425ZM72.2907 24.2446C72.1461 24.0115 68.8842 24.0264 67.7631 24.2651L67.0032 24.427L66.8236 26.9456C66.7248 28.3307 66.6911 29.5114 66.7488 29.5695C66.8069 29.6273 68.0401 29.5939 69.4894 29.4951L72.1242 29.3157L72.2697 26.8806C72.3497 25.5415 72.3591 24.3552 72.2907 24.2446ZM80.9991 23.4433C79.848 23.1353 79.7958 23.2042 79.7958 25.0312C79.7958 26.7635 79.8028 26.7809 80.5936 27.0564C81.0323 27.2092 81.4314 27.3342 81.4803 27.3342C81.5291 27.333 81.5691 26.4923 81.5691 25.4653C81.5691 23.7409 81.525 23.5843 80.9991 23.4433ZM66.7498 15.7058C70.4693 15.38 72.866 15.3974 73.1227 15.7528C73.3502 16.0674 73.1979 21.6259 72.9562 21.8345C72.8858 21.8945 68.6113 22.1384 63.4567 22.3766C58.3016 22.6148 53.0009 22.9133 51.6773 23.0401C50.3537 23.1667 46.8485 23.3484 43.8877 23.4438L38.5047 23.6174L38.5269 21.742C38.5391 20.7104 38.6244 19.2968 38.7169 18.6007L38.8846 17.3349L42.0511 17.0348C43.7927 16.8695 49.5494 16.548 54.8438 16.3201C60.1382 16.092 65.4959 15.8159 66.7498 15.7058ZM44.7674 17.5144C44.5966 17.5435 43.3611 17.6046 42.021 17.6499L39.5842 17.7322L39.4244 18.8978C39.3365 19.539 39.2644 20.703 39.2641 21.4842L39.2636 22.9042L41.9039 22.7776C43.356 22.708 44.5945 22.5941 44.6558 22.5244C44.7171 22.4541 44.8369 21.2869 44.9223 19.9297C45.0401 18.0547 45.0027 17.4742 44.7674 17.5144ZM52.079 18.0311C52.2054 17.2183 52.1953 17.2089 51.2454 17.2605C50.7167 17.2891 49.3018 17.3502 48.1016 17.3965L45.9192 17.4803L45.7606 18.7999C45.6732 19.5257 45.6009 20.6605 45.5998 21.322L45.5976 22.5244L47.3075 22.5222C48.2481 22.5212 49.6083 22.4491 50.3305 22.3625L51.6441 22.2048L51.7975 20.5292C51.8821 19.6077 52.0086 18.4835 52.079 18.0311ZM59.6898 17.3982C59.8045 17.0008 59.6142 16.9597 57.8374 16.999C56.7484 17.023 55.1161 17.1083 54.2105 17.1888L52.5639 17.3349L52.4909 19.8338L52.4182 22.3324L54.0109 22.1796C54.8871 22.0953 56.4181 21.9542 57.4134 21.8659L59.223 21.7052L59.3924 19.773C59.4856 18.7105 59.6194 17.642 59.6898 17.3982ZM65.1666 16.4959C64.5047 16.5217 63.3364 16.5796 62.5701 16.6247C59.9041 16.7819 60.0369 16.6391 60.0369 19.3475V21.7299L62.8867 21.6004C64.4543 21.529 65.8792 21.4263 66.0532 21.3727C66.2776 21.3033 66.3699 20.5712 66.3699 18.8617V16.4489L65.1666 16.4959ZM70.233 16.2158C68.8745 16.2267 67.6208 16.2933 67.4465 16.3634C67.2238 16.4532 67.1296 17.2178 67.1293 18.9381L67.1286 21.3853L72.3197 21.1321L72.4812 20.3727C72.5701 19.955 72.6565 18.8444 72.6729 17.9045L72.7029 16.1958L70.233 16.2158ZM79.8916 17.7147C79.8389 17.7148 79.7958 18.4011 79.7958 19.24C79.7958 20.6441 79.8474 20.7847 80.4457 21.012C81.4634 21.3985 81.5169 21.3445 81.6089 19.8432C81.6948 18.4451 81.6851 18.423 80.8415 18.0711C80.3716 17.8749 79.9443 17.7147 79.8916 17.7147ZM80.0491 13.1555C80.0491 15.1182 80.0679 15.18 80.7769 15.5463C81.1772 15.7534 81.5762 15.851 81.6636 15.7636C81.7509 15.6763 81.8224 14.7907 81.8224 13.7958V11.986L80.0491 11.141V13.1555ZM19.9262 7.20732C20.7654 6.76991 20.7888 6.76733 21.2527 7.06072C21.5247 7.2331 21.4201 7.38052 20.7982 7.702C20.354 7.9316 19.8722 8.42719 19.7278 8.80333L19.4648 9.48737L18.884 8.76403C18.445 8.21723 18.1719 8.08215 17.7646 8.2115C17.375 8.33503 17.2258 8.27488 17.2258 7.9947C17.2258 7.41575 18.1342 7.0086 18.7229 7.32351C19.075 7.51184 19.4028 7.48021 19.9262 7.20732ZM23.1788 1.83388C23.8903 1.40531 24.1739 1.43987 24.6987 2.01954C25.1686 2.53847 25.0929 2.61254 24.1666 2.54091C23.837 2.51535 23.4615 2.76303 23.1803 3.19183L22.7263 3.88427L22.2546 3.30184C21.8635 2.81937 21.7168 2.77402 21.3979 3.03855C20.8994 3.45187 20.5831 3.13391 20.9385 2.57701C21.092 2.33679 21.5361 2.14443 21.9429 2.1424C22.3438 2.14037 22.9001 2.00145 23.1788 1.83388ZM17.8798 0.184223C18.1345 -0.0696435 18.7457 -0.0581579 18.7457 0.200292C18.7456 0.313527 18.3957 0.740823 17.9682 1.14959C17.2607 1.82619 17.1687 1.85321 16.9425 1.44996C16.8057 1.20648 16.462 1.00697 16.1788 1.00695C15.8779 1.00695 15.7086 0.875315 15.7716 0.690517C15.8312 0.516631 16.287 0.374093 16.7844 0.374083C17.2822 0.374083 17.775 0.288773 17.8798 0.184223Z" fill="#111F78"/>
<path d="M88.6729 73.1959C83.9994 73.2192 77.4969 73.322 74.2228 73.4245C54.495 74.0425 49.1418 74.1763 33.5649 74.4413C24.0928 74.6025 16.2653 74.8061 16.1675 74.8935C16.073 74.9811 15.8743 79.4952 15.7259 84.9252C15.5777 90.3551 15.3891 95.9083 15.3073 97.2661L15.1586 99.7343L17.5221 99.7306C18.8217 99.7283 20.0395 99.629 20.2283 99.5096C20.4537 99.3668 20.6182 98.5367 20.7092 97.0797C20.8455 94.8973 20.8398 94.8707 20.3198 95.1489C19.3587 95.6628 18.2552 95.486 17.4595 94.6909C16.8377 94.0694 16.7191 93.7473 16.7191 92.6785C16.7191 91.5911 16.8296 91.3029 17.4793 90.6961C18.1645 90.0562 18.2157 89.9036 17.9986 89.1476C17.6931 88.0828 17.9905 87.2752 19.0413 86.316L19.8463 85.5813L19.3978 84.587C18.9611 83.6195 18.9634 83.56 19.4807 82.3915C19.7732 81.7308 20.0123 80.7007 20.0123 80.1028C20.0123 78.9008 20.9659 77.4573 21.7598 77.4573C22.732 77.4574 23.1725 78.1187 23.3045 79.7767C23.4253 81.2946 23.4765 81.3998 24.274 81.7749C25.7178 82.4541 25.9409 83.3628 25.0787 85.0518C24.68 85.833 24.6394 86.0996 24.8887 86.3036C25.0627 86.4464 25.576 86.8598 26.0286 87.2223C26.8952 87.9162 27.0438 88.5642 26.6028 89.7238C26.4189 90.2071 26.4595 90.6431 26.7574 91.3871C27.3352 92.8303 27.0616 93.945 25.9148 94.8192C24.9677 95.5411 23.9889 95.7081 22.7355 95.3611L22.0388 95.168L22.0426 97.1348C22.0448 98.2165 22.1381 99.2458 22.2501 99.422C22.4084 99.6708 24.0885 99.7273 29.7827 99.6752L37.1114 99.6077L37.2381 93.0259C37.3546 86.9694 37.3292 86.4164 36.9214 86.0967C36.5716 85.8226 36.4781 85.3603 36.4781 83.9017C36.4781 82.0872 36.4905 82.0521 37.1747 81.9223C39.0939 81.558 61.0633 80.9185 61.366 81.218C61.7146 81.5627 61.7151 85.6291 61.3668 85.7467C61.1239 85.8287 61.0501 87.4673 61.0501 92.7937V99.7343C65.8993 99.7343 96.2616 99.671 96.887 99.671C96.9438 99.4961 97.0306 93.4587 97.0802 86.2542L97.17 73.1538L88.6729 73.1959Z" fill="#A4D2F6"/>
<path fill-rule="evenodd" clip-rule="evenodd" d="M74.9281 7.1208C74.3313 7.14206 72.1543 7.24636 70.0905 7.35293C60.001 7.87519 52.1371 8.12651 44.9599 8.95339C43.1512 9.16199 40.6938 9.40976 39.4996 9.50443L37.3283 9.67625L37.0117 15.151C36.8374 18.1622 36.5928 21.4801 36.4682 22.5244C36.3433 23.5687 36.0627 27.4418 35.8445 31.1314C35.6262 34.821 35.3419 38.7511 35.2125 39.865C35.0833 40.9789 34.8014 44.909 34.5859 48.5986C34.37 52.2881 34.0807 56.3321 33.9427 57.5853C33.585 60.8312 32.881 73.1876 33.0444 73.3509C33.1929 73.493 62.6025 72.9576 69.9163 72.6797L74.0961 72.521L74.2693 65.5594C74.3645 61.7306 74.5661 55.4652 74.7168 51.6363C74.8675 47.8074 75.1578 36.7576 75.3615 27.0811C75.5654 17.4046 75.7953 8.94615 75.8726 8.28493L76.0136 7.08248L74.9281 7.1208ZM71.4274 69.1203C71.5758 68.8428 71.6896 66.9222 71.6896 64.6902V60.7496L70.1063 60.7993C69.2357 60.8267 67.7251 60.8807 66.7498 60.9197C65.7746 60.959 63.3807 61.1056 61.4301 61.2456C59.4796 61.3855 53.1529 61.6773 47.3709 61.8937C41.5889 62.1102 36.6066 62.3406 36.2992 62.4065C35.6284 62.5495 35.5429 62.9554 35.2595 67.3315C35.1318 69.302 35.1456 70.5579 35.2963 70.6602C35.4297 70.7506 36.8615 70.7787 38.4784 70.7227C40.0953 70.6665 45.6357 70.5005 50.7907 70.3536C55.9457 70.2068 61.7594 69.9809 63.71 69.8518C65.6605 69.7229 68.1359 69.6158 69.2108 69.6137C70.8814 69.6104 71.2032 69.5387 71.4274 69.1203ZM72.0013 51.0396C71.5147 50.7391 68.8326 50.674 65.1033 50.872C63.083 50.979 59.3782 51.1917 56.8704 51.3444C54.3625 51.4968 49.0618 51.747 45.091 51.9004C41.1202 52.0538 37.5118 52.2903 37.0726 52.4257C36.3028 52.6631 36.2686 52.7336 36.1278 54.3693C36.0475 55.3026 35.9508 56.9778 35.9131 58.0916L35.8448 60.1168L43.7054 60.0757C48.0288 60.0532 53.2155 59.9145 55.2314 59.7677C57.2476 59.6206 61.7189 59.4221 65.1681 59.3262C69.3742 59.2095 71.5188 59.0566 71.6802 58.8622C72.0391 58.4297 72.3337 51.2468 72.0013 51.0396ZM72.1873 48.8685C72.3325 48.5974 72.4495 46.7884 72.4495 44.8182V41.2573L70.8663 41.2937C69.9956 41.3137 64.8373 41.4718 59.4036 41.6452C49.4942 41.9619 38.5923 42.4718 37.5876 42.6657C36.9427 42.7903 36.8118 43.4374 36.5684 47.6953L36.3982 50.669L39.7948 50.516C41.6627 50.4319 47.2949 50.2464 52.3106 50.1039C57.3263 49.9613 63.026 49.7364 64.9766 49.604C66.9271 49.4716 69.2886 49.362 70.2241 49.3607C71.6449 49.3587 71.9682 49.2776 72.1873 48.8685ZM72.4745 39.2003C72.5959 39.0091 72.6969 37.2862 72.6992 35.3717L72.7029 31.8909L71.4996 31.9255C70.8377 31.9445 69.3274 32.0543 68.1431 32.1695C66.9588 32.2844 59.7291 32.5488 52.0771 32.7569C41.4489 33.046 38.0879 33.2123 37.8402 33.4624C37.6269 33.6778 37.4563 35.0201 37.3397 37.3968L37.1626 41.0042L40.1767 41.002C41.8344 41.0007 44.73 40.8921 46.6109 40.7604C48.4918 40.6288 53.5075 40.3957 57.757 40.242C69.1318 39.8312 72.2129 39.6131 72.4745 39.2003ZM72.8295 29.9923L72.9003 26.6381L72.9708 23.2839L71.507 23.3133C70.702 23.3295 69.872 23.38 69.663 23.4255C69.4539 23.4711 66.0911 23.6333 62.1901 23.786C58.289 23.9389 53.3302 24.1835 51.1707 24.3296C49.0111 24.4759 45.2507 24.7275 42.8143 24.889L38.3847 25.1825L38.0415 28.1676C37.8528 29.8092 37.7689 31.3362 37.8553 31.5606C37.9928 31.9193 38.4178 31.9489 41.3617 31.8046C43.2039 31.7145 48.2449 31.4713 52.5639 31.2644C56.883 31.0574 62.0128 30.7642 63.9633 30.6125C65.9139 30.4612 68.7067 30.2595 70.1697 30.1648L72.8295 29.9923ZM73.1227 15.7528C72.866 15.3974 70.4693 15.38 66.7498 15.7058C65.4959 15.8159 60.1382 16.092 54.8438 16.3201C49.5494 16.548 43.7927 16.8695 42.0511 17.0348L38.8846 17.3349L38.7169 18.6007C38.6244 19.2968 38.5391 20.7104 38.5269 21.742L38.5047 23.6174L43.8877 23.4438C46.8485 23.3484 50.3537 23.1667 51.6773 23.0401C53.0009 22.9133 58.3016 22.6148 63.4567 22.3766C68.6113 22.1384 72.8858 21.8945 72.9562 21.8345C73.1979 21.6259 73.3502 16.0674 73.1227 15.7528Z" fill="#A4D2F6"/>
<path fill-rule="evenodd" clip-rule="evenodd" d="M32.9467 41.0403C32.172 41.0598 30.3413 41.1838 28.8785 41.3157C27.4156 41.4473 26.1869 41.5862 26.1484 41.6242C26.1098 41.6634 25.9107 44.1875 25.7058 47.2342C25.5011 50.282 25.2193 53.6868 25.0797 54.8007C24.9398 55.9145 24.6517 59.5029 24.4392 62.7748C24.2264 66.0467 23.9414 69.5579 23.8057 70.5774C23.6699 71.597 23.5588 72.7076 23.5588 73.0456V73.6601H27.597C30.1616 73.6601 31.6954 73.5625 31.8006 73.3926C31.8918 73.2453 32.1789 70.2551 32.4388 66.7475C32.699 63.2399 32.9724 59.9712 33.0464 59.4839C33.1204 58.9963 33.3592 55.465 33.577 51.6363C33.7949 47.8075 34.0592 43.849 34.1641 42.8395L34.355 41.0042L32.9467 41.0403ZM31.285 61.6357L30.3984 61.6114C29.9108 61.598 28.7138 61.655 27.7385 61.738L25.9653 61.8888L25.7884 64.2937C25.6912 65.6164 25.4918 67.5292 25.3451 68.5443C25.1985 69.5594 25.0787 70.7269 25.0787 71.139V71.8881H27.8605C30.5415 71.8881 30.6464 71.8676 30.7588 71.3185C30.9035 70.6128 31.2569 64.9151 31.2732 63.028L31.285 61.6357ZM31.7699 57.8664C31.8388 57.2943 31.9595 55.7153 32.0386 54.3577L32.1818 51.8895H29.6585C28.2708 51.8895 27.0693 51.9962 26.9887 52.1266C26.765 52.4885 26.3621 55.889 26.3532 57.4889L26.3453 58.9114L27.2952 59.0664C27.8178 59.1514 29.01 59.1502 29.945 59.0639L31.6445 58.9069L31.7699 57.8664ZM32.5128 42.9668C32.3912 42.7712 30.1081 42.7673 28.7518 42.9604C28.3339 43.0199 27.9084 43.1484 27.8068 43.2464C27.705 43.3451 27.4993 44.8349 27.3497 46.5576C27.1298 49.0882 27.141 49.7311 27.408 49.9004C27.8176 50.1596 31.4303 50.1788 31.8303 49.9239C32.1203 49.7381 32.7476 43.3465 32.5128 42.9668Z" fill="#A4D2F6"/>
</svg>
