<svg width="120" height="120" viewBox="0 0 120 120" fill="none" xmlns="http://www.w3.org/2000/svg">
<path d="M5.37926 61.6725C5.79304 61.6725 4.82754 85.9484 5.37926 91.4657C11.9999 90.6381 16.9655 87.3277 15.7242 86.0864C14.731 85.0933 12 80.9829 10.7586 79.0519C10.2069 77.3967 12 76.5691 12 76.5691C12 76.5691 17.3793 83.6036 22.3449 84.845C27.3104 86.0864 28.3894 84.8757 30.6207 85.6726C36.4138 87.7415 35.1725 94.3622 35.5863 97.6726C38.5656 97.0105 41.2414 95.1898 42.207 94.3622L43.0345 100.155C44.2759 100.707 48.7449 101.811 56.6897 101.811C64.6346 101.811 70.4829 100.707 72.4139 100.155C72.6898 99.4657 73.5725 97.0933 74.8967 93.1208C78.538 96.7622 84.6898 97.9484 87.3105 98.0864C86.0691 94.3622 84.5794 86.3346 88.5519 84.0174C94.7588 84.845 95.1726 83.1898 97.6553 80.2932C100.138 77.3967 100.552 73.6725 102.207 73.2588C103.862 72.845 104.276 75.7415 104.276 78.2243C104.276 80.707 100.966 83.6036 100.552 84.845C100.138 86.0864 103.862 86.5001 107.586 86.0864C110.566 85.7553 112.69 84.0174 113.379 83.1898C114.621 79.4657 117.186 70.6105 117.517 64.9829C117.931 57.9484 112.138 54.638 110.069 52.9829C108 51.3277 104.276 49.6725 102.621 49.6725C100.966 49.6725 94.345 56.707 93.5174 56.707C92.8553 56.707 89.3794 51.1898 87.7243 48.4311C88.0001 47.8794 87.2277 46.776 81.9312 46.776C76.6346 46.776 72.0001 49.5346 70.3449 50.9139L62.0691 52.9829L57.5173 62.9139C56.5518 60.8449 54.4553 56.4587 53.7932 55.4656C53.1311 54.4725 46.8966 47.6035 43.8621 44.2932L30.6207 43.8794C29.9311 45.5346 27.7242 49.0104 24.4138 49.6725C21.1035 50.3346 18.6207 48.8449 17.7931 48.0173C14.2069 50.9139 6.78615 56.9553 5.79304 57.9484C4.79994 58.9415 5.1034 60.8449 5.37926 61.6725Z" fill="#A4D2F6"/>
<path fill-rule="evenodd" clip-rule="evenodd" d="M103.228 26.3182C100.207 24.4518 96.3445 23.7672 93.4689 24.5886C92.2011 24.951 90.8851 25.7704 90.0906 26.6916C89.125 27.8116 88.3515 28.9563 88.3514 29.2665C88.3514 29.4227 88.1921 29.8494 87.9966 30.2145C87.6011 30.9524 86.9896 32.9118 86.7358 34.2538C86.6451 34.735 86.4737 35.4099 86.3552 35.7538C86.2367 36.0976 85.7796 37.5604 85.3401 39.0044C84.4238 42.0138 83.5744 43.6395 82.0499 45.2977C81.0409 46.3952 80.8793 46.4757 79.3514 46.6377C77.3907 46.8452 74.9908 47.4271 74.002 47.9349L73.277 48.3074L73.4184 47.4362C73.7462 45.4151 71.5174 42.5257 68.4941 41.0515C66.9454 40.2962 65.6004 39.1702 65.6 38.6285C65.6 38.2155 64.6793 36.6155 64.0515 35.9381C63.2654 35.0897 61.0587 33.8156 60.0469 33.6258C59.5919 33.5406 58.9053 33.5895 58.5211 33.7358C57.8976 33.9728 57.6674 33.8921 56.3777 32.9825C55.1847 32.1412 54.6667 31.9395 53.406 31.8252C50.6474 31.5749 48.5274 32.4717 47.3406 34.392C46.924 35.0664 46.7686 35.7477 46.7199 37.114C46.6501 39.0776 46.1368 40.2546 45.35 40.2546C44.9259 40.2548 43.5986 41.7291 43.5986 42.1999C43.5984 42.3256 43.3674 42.6373 43.0846 42.8934C42.6166 43.3167 42.0766 43.3604 37.1347 43.3702C32.2059 43.3797 31.6005 43.334 30.6409 42.8804C29.803 42.4844 29.61 42.2759 29.7123 41.8799C29.7832 41.6048 29.8431 41.1438 29.8448 40.8551C29.8468 40.5666 30.184 39.8352 30.594 39.2298C31.197 38.3397 31.3403 37.8641 31.344 36.7414C31.3465 35.9589 31.2115 35.2172 31.0353 35.041C30.8537 34.8585 30.7213 34.0782 30.7185 33.1765C30.7147 31.9835 30.5737 31.393 30.1099 30.6258C29.1611 29.0568 27.3386 27.3883 26.0488 26.9082C24.7838 26.4371 21.9223 26.3169 21.1729 26.7029C20.9252 26.8307 20.1387 27.0097 19.4256 27.1005C18.7129 27.1913 17.8133 27.4303 17.4262 27.6323C17.0391 27.8341 16.6074 27.9998 16.4677 28.0008C16.0444 28.0045 13.6698 30.2013 13.1104 31.1067C12.7228 31.734 12.579 32.4054 12.5552 33.697C12.5215 35.5293 12.7757 36.0863 14.5304 38.0281C15.0506 38.6036 15.0729 38.713 14.7317 38.9963C14.2321 39.4108 14.239 40.8698 14.7438 41.7247C15.1774 42.4586 16.3871 43.2551 17.0681 43.2554C17.6538 43.2554 19.097 44.785 19.0975 45.406C19.0975 45.9751 18.0913 47.112 16.1314 48.7568C15.3941 49.3755 14.6573 50.0072 14.4941 50.1614C14.3311 50.3157 13.8319 50.6314 13.3844 50.8629C12.9369 51.0942 12.3727 51.4819 12.1301 51.7245C11.8878 51.9668 10.9653 52.5978 10.0805 53.1267C7.22909 54.8313 5.07508 56.7509 4.46279 58.1334C4.17011 58.7944 4.18775 58.9818 4.61311 59.7102C5.14564 60.6221 5.21231 61.4358 4.86203 62.7595C4.73451 63.2414 4.5122 64.9285 4.36823 66.5095C4.22397 68.0911 3.93529 70.9608 3.72652 72.8861C3.41227 75.7881 3.39154 77.4134 3.6053 82.388C3.74728 85.688 3.98478 88.9284 4.13304 89.5898C4.28127 90.2503 4.32853 90.8649 4.23811 90.9557C4.14785 91.0462 3.37859 91.2937 2.52879 91.5052C1.26306 91.8203 0.882902 92.0415 0.42264 92.7289C-0.0898665 93.4945 -0.108406 93.6283 0.217359 94.2579C0.413736 94.6375 0.96577 95.1333 1.44419 95.3603C2.24921 95.7424 2.30351 95.8393 2.17076 96.6567C1.99642 97.7314 2.56563 98.3631 4.306 99.0238C5.42207 99.4477 5.46063 99.4962 5.38412 100.385C5.23739 102.089 6.78081 103.118 9.43397 103.084L11.1465 103.062L11.0221 103.711C10.8517 104.604 11.0189 104.928 11.9426 105.499C13.8204 106.659 16.373 106.65 19.9728 105.47C21.9646 104.817 24.6186 103.504 24.7759 103.095C24.8449 102.914 25.03 102.762 25.1872 102.757C25.3448 102.751 25.9601 102.094 26.5547 101.296C27.4729 100.065 27.8309 99.7863 28.9292 99.453C29.6407 99.2372 30.898 98.9858 31.7231 98.8945C33.5412 98.6935 36.9315 97.8765 38.0116 97.3784C38.4448 97.1789 38.8758 97.0155 38.9693 97.0155C39.0631 97.0151 39.7325 96.6213 40.4572 96.1402C41.1822 95.6589 41.8342 95.265 41.9055 95.265C41.9766 95.2684 42.1153 96.2962 42.2134 97.5513C42.3119 98.8085 42.5126 100.103 42.6603 100.427C43.0511 101.285 43.1999 100.992 43.5986 100.02C43.3905 95.8977 42.9044 92.185 42.4535 88.7412C41.5848 82.1069 40.8468 76.4702 42.4785 70.8212C42.7382 70.4008 42.8795 68.7603 42.4785 68.7603C42.2637 68.7605 42.0079 69.1901 41.8457 69.8231C41.6959 70.4075 41.3572 71.5757 41.0924 72.419C40.0859 75.6271 40.2112 81.1349 41.4893 89.8363C41.8187 92.0793 41.9697 92.9408 41.6421 93.5411C41.4139 93.9591 40.9536 94.2503 40.1598 94.793C39.2322 95.4268 37.9391 96.1802 37.2858 96.4667L36.0986 96.9872L36.0905 96.0643C36.078 94.6842 35.2295 90.7985 34.6552 89.492C34.1456 88.3331 32.3947 86.3089 31.4733 85.8132C31.0083 85.5631 31.0345 85.5197 31.8483 85.1908C32.3296 84.9963 32.9171 84.769 33.1536 84.6857C33.39 84.6025 33.646 84.2203 33.7217 83.8363C34.078 82.0325 34.682 79.5426 34.9825 78.6372C35.1653 78.0871 35.5004 76.9618 35.7277 76.1367C36.4082 73.6632 37.1084 71.5489 37.4879 70.8212C37.6846 70.4439 37.8457 70.0571 37.8467 69.9613C37.8503 69.6124 39.7172 66.5902 41.035 64.7994C42.7841 62.4223 45.6978 59.5354 47.0674 58.8212C47.6609 58.5116 48.1921 58.2579 48.2481 58.2579C48.3038 58.2586 48.3492 58.6556 48.3492 59.1404C48.3492 60.4806 50.1228 63.7591 50.8481 63.7592C50.9651 63.7592 51.379 63.446 51.7678 63.0634C52.1567 62.6808 53.0076 62.0342 53.659 61.6264C55.1563 60.689 55.4428 60.1273 54.308 60.3543C53.8675 60.4426 53.3311 60.6649 53.1159 60.8481C52.9005 61.0315 52.2476 61.3659 51.6652 61.5917C50.6229 61.9957 50.6002 61.993 50.2282 61.4252C50.0202 61.1076 49.7192 60.1915 49.5582 59.3894C49.4102 58.6526 49.3273 58.2656 49.4446 57.9539C49.5797 57.595 49.9804 57.336 50.853 56.7579C51.1641 56.5516 51.7455 56.1162 52.1444 55.7897C52.5437 55.4631 52.9386 55.2641 53.0221 55.3476C53.1985 55.5239 53.693 56.3637 54.1471 57.2582C54.3216 57.6019 54.5243 57.9394 54.5973 58.0082C54.7385 58.1416 55.6347 59.9591 56.7237 62.3215C57.3766 63.7375 58.0998 64.2327 58.1 63.2638C58.1 62.8433 59.4381 59.7183 60.1366 58.5084C60.2556 58.3022 60.4234 57.9647 60.5092 57.7584C60.5947 57.5522 61.0441 56.5764 61.5073 55.59C61.9709 54.6039 62.3503 53.675 62.3503 53.5267C62.3504 53.3785 62.5191 53.2576 62.7253 53.2576C62.9314 53.2577 63.1001 53.361 63.1003 53.4879C63.1003 53.6985 65.5877 55.3783 66.2037 55.5836C66.3704 55.6394 66.3133 56.0274 66.0461 56.652C65.8154 57.1916 65.5547 58.1113 65.4667 58.6959C65.2982 59.8158 65.0272 59.9732 64.2188 59.4225C63.4459 58.896 62.0292 58.4804 61.7967 58.7121C61.6812 58.8276 62.0083 59.1385 62.524 59.4031C63.0399 59.6674 64.0044 60.1929 64.6674 60.5709C66.1266 61.4033 66.2543 61.4128 66.43 60.6962C66.7088 59.5585 67.6312 56.4103 67.7344 56.2431C67.9434 55.908 71.688 57.0301 73.5615 57.9896C74.813 58.6304 78.0826 61.1878 79.1736 62.3789C80.8259 64.1827 82.152 67.542 82.631 71.1356C82.7595 72.0982 82.9693 73.2235 83.0974 73.6361C83.2251 74.0487 83.4034 75.1175 83.4934 76.0114C83.7634 78.6904 84.4569 80.526 85.762 82.013C87.0148 83.4406 87.4126 83.8659 87.3939 84.272C87.3844 84.479 87.2666 84.681 87.0987 85.0082C86.2444 86.6728 86.0919 87.1445 85.7224 89.2641C85.1416 92.5964 85.1961 93.3304 86.2461 96.352L86.5807 97.3145L84.7784 97.1432C80.9379 96.7776 77.564 95.2864 75.9093 93.2235C75.567 92.7966 75.7575 91.7763 76.8605 88.1391C77.7303 85.2714 78.349 81.7649 78.35 79.7C78.3513 76.8105 77.3833 71.6536 76.273 68.6351C75.6954 67.065 74.5352 64.9689 74.1652 64.8269C73.6255 64.6198 73.5048 64.9492 73.8945 65.5647C74.4477 66.4388 75.0671 68.2607 75.2361 69.5103C75.3198 70.1292 75.5463 71.311 75.7388 72.1361C75.931 72.9616 76.2096 75.2121 76.3578 77.1372C76.5876 80.1259 76.5682 80.8936 76.2269 82.388C76.0071 83.3507 75.6747 84.87 75.4882 85.7639C75.3015 86.6577 75.034 87.6701 74.8942 88.0139C74.7547 88.3577 74.4121 89.4266 74.1329 90.3891C73.8536 91.3518 73.4347 92.7588 73.2027 93.5152C72.7834 94.8825 72.1262 98.6127 72.1092 99.7213C72.1022 100.18 72.2171 100.284 72.6579 100.222C73.1014 100.158 73.2749 99.8855 73.5041 98.8913C73.7771 97.7058 75.0461 94.0134 75.2603 93.7811C75.3164 93.7226 75.7809 94.0776 76.2932 94.5715C77.3615 95.6012 79.2151 96.7233 80.8514 97.3307C82.1272 97.8045 83.2382 98.01 89.2267 98.8792C92.2723 99.3213 93.7784 99.6566 94.5397 100.063C95.124 100.375 95.6025 100.718 95.6025 100.824C95.6026 100.93 95.7189 101.016 95.8611 101.016C96.0037 101.016 96.4204 101.213 96.7873 101.453C99.3524 103.134 106.15 104 110.03 103.14C112.435 102.607 113.882 101.892 115.5 100.437C117.162 98.9424 117.799 97.7691 117.412 96.9177C117.156 96.3576 117.199 96.226 117.795 95.7571C119.341 94.5409 119.799 92.8375 118.853 91.8221C118.272 91.1981 118.226 90.8683 118.679 90.5896C118.858 90.4795 119.257 90.0261 119.566 89.5826C120.288 88.5472 120.104 87.3642 119.051 86.2876C118.325 85.5452 118.312 85.4901 118.7 84.8975C119.289 83.9977 119.196 83.1948 118.416 82.4527C117.538 81.6174 116.733 81.4248 115.385 81.7278C114.893 81.8382 114.6 81.9388 114.492 81.8391C114.329 81.6893 114.584 81.0872 115.205 79.3872C115.557 78.4245 116.079 76.6801 116.365 75.5111C116.651 74.3425 116.992 73.1877 117.124 72.9443C117.373 72.4842 117.95 70.1222 118.391 67.7598C118.456 67.4133 118.495 66.9493 118.513 66.4356C117.926 66.3585 117.361 66.2136 116.826 66.0092C116.8 66.9919 116.698 67.6589 116.501 68.2633C116.282 68.932 116.104 69.6509 116.104 69.8611C116.104 70.0711 115.948 70.7249 115.759 71.3142C115.569 71.9036 115.159 73.2302 114.848 74.2617C114.537 75.293 114.13 76.4914 113.943 76.9247C113.756 77.3576 113.604 77.7768 113.603 77.8565C113.603 77.936 113.202 78.8569 112.713 79.9029C112.067 81.282 111.865 81.9973 111.976 82.5044C112.115 83.1332 112.008 83.2786 110.921 83.9479C107.729 85.912 104.29 86.5987 102.04 85.721C101.081 85.347 101.182 84.8204 102.471 83.4823C103.086 82.8437 103.822 81.7244 104.114 80.9818C104.406 80.2423 104.69 79.5928 104.745 79.5376C104.799 79.4826 104.774 80.5108 104.688 81.8223C104.542 84.0504 104.565 84.225 105.041 84.4796C105.826 84.9002 105.998 84.4235 106.062 81.638C106.392 67.2584 107.092 61.2032 108.827 57.7309C109.626 56.1321 109.647 55.7086 108.904 56.1582C107.422 57.0553 105.593 65.1181 105.194 72.5111C105.039 75.3862 104.682 77.7914 104.624 76.3517C104.613 76.0574 104.405 75.3817 104.164 74.8509C102.748 71.7381 100.876 72.0672 99.3121 75.7035C97.1237 80.7914 96.1795 82.1403 94.6181 82.4131C94.1281 82.4986 93.4776 82.725 93.1731 82.9158C92.3537 83.4293 90.1079 83.3485 88.7717 82.7574C86.6917 81.8372 85.6139 80.2172 85.5938 77.9826C85.5894 77.5166 85.2055 75.6922 84.7404 73.9279L83.895 70.7186L84.2531 68.332C84.4503 67.0195 84.6604 65.8674 84.7194 65.7716C84.7785 65.6753 84.9449 64.931 85.0895 64.1165C85.2346 63.3013 85.5771 61.6777 85.8509 60.5087C86.3224 58.4966 86.8923 55.7608 87.3614 53.2576C87.4771 52.6387 87.5788 51.4195 87.5869 50.5486C87.6041 48.7302 87.879 48.6302 88.7038 50.142C89.6696 51.9124 91.7582 55.1523 92.3067 55.7307C92.488 55.922 92.8103 56.3437 93.0227 56.6682C93.2352 56.9927 93.5435 57.2581 93.7073 57.2582C94.1578 57.2582 95.2669 56.3723 98.0925 53.7571C99.5041 52.4506 100.951 51.1125 101.307 50.7837C102.12 50.0328 102.261 50.3877 101.765 51.9435C100.379 56.2928 99.5498 63.0287 99.6588 69.0586C99.7203 72.4662 99.7747 72.8886 100.165 72.9637C100.567 73.041 100.603 72.7103 100.603 68.7886C100.603 66.2919 100.759 63.4645 100.98 61.9562C101.687 57.1369 102.139 54.6342 102.483 53.6326C102.671 53.0825 102.967 51.9007 103.138 51.0068C103.485 49.2021 103.552 49.0373 103.804 49.3888C103.983 49.6386 104.467 49.9115 107.478 51.461C109.645 52.5759 111.437 53.8975 112.888 55.4574C113.022 55.2065 113.171 54.9641 113.332 54.7313C111.735 53.205 109.895 51.6848 108.855 51.1167C107.059 50.1358 107.022 50.0453 107.186 47.0547C107.267 45.584 107.444 43.4803 107.58 42.3802C108.173 37.5643 107.741 32.5131 106.522 30.0124C105.988 28.9172 104.213 26.9273 103.228 26.3182ZM11.4868 77.5672C11.8289 77.0783 11.9464 77.049 12.459 77.3239C12.7798 77.4962 13.5841 78.3123 14.2459 79.1375C15.8912 81.1892 18.0638 83.3278 19.2891 84.1014C21.3119 85.3786 23.0386 85.7668 26.9127 85.8148C30.7165 85.862 31.1346 85.9833 32.4884 87.4336C34.011 89.0646 34.8401 92.5901 34.6326 96.5516C34.59 97.3626 34.4112 97.434 31.2535 97.8932C26.9592 98.5181 26.7403 98.6142 25.1864 100.562C23.4022 102.798 21.9763 103.706 18.5972 104.759C16.2168 105.5 13.9383 105.667 12.7847 105.185C11.7424 104.749 11.6433 104.406 12.3241 103.59C12.808 103.01 15.1143 102.017 15.9779 102.017C16.7019 102.016 20.3055 99.9072 21.3903 98.8485C21.8947 98.356 22.2515 97.8076 22.1832 97.6289C21.9319 96.974 21.3454 97.0585 20.5086 97.8714C19.5768 98.7763 17.5073 100.265 17.1772 100.268C17.0644 100.269 16.6853 100.419 16.3351 100.601C15.0603 101.267 11.2136 102.079 9.18666 102.11C6.85946 102.146 6.01022 101.705 6.14706 100.53L6.22141 99.891L9.72169 99.7391C13.1552 99.5901 13.2629 99.5679 15.3475 98.5777C16.5163 98.0224 17.7645 97.3029 18.122 96.9791C18.4793 96.6553 19.2016 96.0111 19.7271 95.5478C20.4948 94.871 20.6304 94.6254 20.4189 94.2975C20.0344 93.7019 19.4184 93.9209 18.1681 95.0968C16.6692 96.5066 15.3253 97.3865 13.6349 98.0661C12.4022 98.5617 11.7757 98.6348 8.72195 98.6375C5.92128 98.64 4.98395 98.5493 4.03364 98.1825C3.08533 97.8165 2.8464 97.6064 2.8464 97.1383C2.84642 96.1387 4.04443 95.7676 8.09641 95.5123C10.0899 95.3865 12.1711 95.1541 12.7217 94.9958C15.037 94.3288 18.2455 92.0772 17.6888 91.5101C17.3921 91.209 16.394 91.6517 14.2209 93.0497C12.4445 94.1924 10.6009 94.5605 5.93693 94.7041C1.77617 94.8321 1.64347 94.8204 1.37146 94.3121C1.14188 93.8828 1.18235 93.7045 1.59775 93.3172C2.57179 92.4098 3.33791 92.216 9.59642 91.2959C12.5147 90.8669 14.6481 89.5786 16.0312 87.4101C16.6435 86.45 16.6476 86.4155 16.2131 85.6798C15.9695 85.2672 15.3672 84.5828 14.8755 84.1588C13.3504 82.8443 12.7287 82.0704 11.8981 80.4508C10.9879 78.6755 10.9415 78.3458 11.4868 77.5672ZM101.285 74.8121C101.716 73.9184 102.054 73.513 102.324 73.565C102.948 73.6856 103.447 74.9833 103.552 76.7614C103.683 78.9803 102.972 80.8345 101.323 82.5747C99.507 84.4909 99.4933 84.5402 100.479 85.5553C101.376 86.4781 103.322 87.2658 104.694 87.2606C106.259 87.2549 109.379 86.2857 111.53 85.1375C112.739 84.4914 113.897 83.8326 114.104 83.6731C115.515 82.5802 117.042 82.2115 117.563 82.8382C118.293 83.7181 116.756 85.6749 114.112 87.2332C111.324 88.8757 111.116 88.9472 106.603 89.7992C105.327 90.0397 101.967 89.9277 100.665 89.6012C100.344 89.5207 100.103 89.5749 100.102 89.7272C100.102 90.7059 107.374 90.9472 110.609 90.0756C112.617 89.5347 115.522 88.0926 116.58 87.1111C117.375 86.3733 118.262 86.3302 118.481 87.019C118.769 87.9264 118.319 89.062 117.248 90.1329C115.025 92.3565 110.289 93.7462 104.779 93.7924C102.379 93.8127 101.359 93.9053 101.422 94.0979C101.473 94.2505 101.956 94.4736 102.496 94.5933C103.695 94.8593 110.546 94.6308 111.378 94.2975C111.708 94.1655 112.822 93.8034 113.853 93.4934C114.884 93.1831 116.195 92.6138 116.765 92.2278L117.803 91.5255L117.953 92.1276C118.168 92.9852 117.784 93.8129 116.691 94.8439C115.084 96.3608 113.341 97.064 109.353 97.8019C107.954 98.0609 104.469 97.8928 103.486 97.519C103.189 97.406 102.277 97.2335 101.461 97.1367C100.157 96.982 100.023 97.0052 100.352 97.3266C100.995 97.9535 104.095 98.56 107.353 98.6965C110.777 98.8401 112.536 98.5398 115.067 97.3816C116.129 96.8956 116.374 96.8504 116.254 97.1626C116.171 97.3791 116.104 97.6445 116.104 97.7518C116.103 97.8598 115.625 98.4467 115.041 99.057C113.071 101.116 111.553 101.838 107.965 102.423C106.957 102.587 106.331 102.692 105.701 102.716C104.616 102.759 103.522 102.564 100.453 102.03C99.3834 101.844 96.0195 100.45 95.6025 100.02C94.6549 99.0417 92.9125 98.4498 90.0696 98.1405C88.358 97.9545 87.8083 97.448 87.0615 95.37C86.3177 93.3001 86.3441 89.5201 87.1181 87.2469C87.8716 85.0337 88.1755 84.7318 89.4505 84.9233C90.015 85.0081 90.5839 85.1751 90.7145 85.2951C90.8453 85.4151 91.4638 85.5127 92.0893 85.5125C93.0283 85.512 93.5389 85.3048 95.0133 84.3253C97.5015 82.672 98.7657 80.9986 100.065 77.6367C100.384 76.8115 100.933 75.5404 101.285 74.8121ZM58.951 71.2108C58.8041 66.0486 58.7134 65.0117 58.3982 64.8899C58.0655 64.7624 58.0404 65.4618 58.1857 70.8156C58.2762 74.1544 58.464 79.306 58.6035 82.2628C58.7433 85.2196 58.8566 90.48 58.8549 93.9525C58.8524 99.2056 58.9107 100.266 59.2024 100.266C59.4666 100.266 59.5976 99.673 59.7334 97.8617C59.9441 95.0515 59.6621 81.3829 59.3446 79.0122C59.2249 78.1183 59.0475 74.6076 58.951 71.2108ZM15.5649 50.4677C16.339 49.6898 17.085 49.0433 17.2225 49.0308C17.3816 49.0185 17.5002 51.3946 17.5482 55.5707C17.636 63.1943 18.3582 70.497 19.3965 74.2617C19.6806 75.2911 20.2633 77.8692 20.6121 79.637C20.7478 80.3245 21.0383 81.6522 21.2578 82.5869C21.4773 83.5218 21.5922 84.3513 21.5132 84.4303C21.2309 84.7118 18.9541 83.1473 17.4763 81.6558C14.9309 79.0868 13.503 77.2522 11.7656 74.3207C10.848 72.7719 10.0969 71.3979 10.0967 71.2665C10.0967 70.965 9.1037 70.4212 8.90865 70.6159C8.82864 70.6962 8.8846 71.0146 9.03311 71.3239C9.18196 71.6332 9.56266 72.5615 9.88009 73.3864C10.1976 74.2115 10.6169 75.1441 10.8119 75.4586C11.1321 75.9753 11.1116 76.0882 10.5986 76.6345C9.31458 78.0013 10.7367 81.4846 13.605 83.9996C14.4256 84.7192 15.097 85.5154 15.097 85.7687C15.0967 86.4339 14.1043 87.8416 13.1444 88.5384C12.6894 88.8687 12.1831 89.2519 12.0194 89.3894C11.3903 89.918 9.14576 90.4862 7.42157 90.5532C6.43277 90.5917 5.5717 90.5704 5.50697 90.5063C5.34946 90.3465 4.89594 84.8775 4.69393 80.703C4.52371 77.1888 4.94394 71.3398 5.72195 66.3851C6.27623 62.8549 6.35652 60.967 5.98299 60.2751C5.26526 58.9449 6.67304 57.0652 10.3472 54.4473C11.5159 53.6147 12.51 52.8368 12.556 52.7185C12.6023 52.6007 12.7282 52.5583 12.8356 52.6248C13.0296 52.7454 12.8517 53.7433 12.2109 56.1332C11.4987 58.7899 11.3532 59.4584 10.9897 61.759C10.6002 64.2254 9.95969 67.9502 9.85019 68.3853C9.69377 69.0083 9.93202 69.2975 11.132 69.9435C12.7725 70.8269 14.6735 72.053 17.2346 73.8778C17.7619 74.2533 17.9577 73.8356 17.4787 73.3565C17.0362 72.9139 13.1583 70.263 12.9496 70.2603C12.8861 70.2603 12.4635 69.9232 12.0105 69.5111L11.1869 68.7619L11.4949 67.0728C11.6641 66.1441 11.9919 64.2033 12.2238 62.7595C12.4558 61.3157 12.7966 59.459 12.9811 58.6337C13.1656 57.8086 13.5061 55.9519 13.7376 54.5079L14.1578 51.8821L15.5649 50.4677ZM30.7144 44.5938C30.9713 44.2274 31.2647 44.1069 31.6988 44.1897C32.3019 44.305 32.3211 44.3759 32.4351 46.9699C32.4993 48.4339 32.7193 50.6443 32.924 51.8821C33.1288 53.1197 33.4237 55.0886 33.5795 56.2576C34.0033 59.4349 34.9435 64.5037 35.6428 67.3848C35.7763 67.9349 35.9465 68.6382 36.021 68.947C36.0956 69.2559 35.9784 69.8841 35.7608 70.3428C35.1923 71.541 33.3909 77.423 32.2646 81.7601C32.0064 82.7533 31.8347 82.9477 30.7637 83.4557C29.2707 84.164 26.5056 84.7633 24.733 84.7633C23.2977 84.7633 23.0981 84.5816 23.0981 83.2795C23.098 82.8987 22.976 82.2386 22.8273 81.8118C22.6786 81.385 22.2372 79.6518 21.8462 77.9608C21.4554 76.2697 20.9603 74.2673 20.747 73.5109C19.6203 69.5153 19.0967 67.3009 19.0927 66.5127C19.0899 66.0296 18.9295 64.7341 18.7362 63.634C18.3025 61.1654 17.9207 48.8957 18.2707 48.6792C18.4049 48.5967 18.9143 48.8008 19.4038 49.1334C21.1589 50.3261 25.0574 50.5011 26.7745 49.464C27.7541 48.8722 29.8471 46.5839 29.8481 46.1043C29.8481 45.9129 29.9604 45.7562 30.0978 45.756C30.2353 45.756 30.3483 45.6122 30.3483 45.4367C30.3483 45.261 30.5132 44.8814 30.7144 44.5938ZM77.4764 48.0205C78.5592 47.5681 79.0605 47.5165 81.2264 47.635C82.6013 47.7103 84.12 47.8269 84.6014 47.8936C86.9771 48.2239 87.1292 48.2751 87.0098 48.7075C86.9453 48.9405 86.8218 49.8067 86.735 50.6318C86.5875 52.0325 86.3145 53.4351 85.471 57.1329C85.2828 57.958 84.9513 59.4207 84.7347 60.3834C84.5185 61.3461 84.1191 63.1057 83.8465 64.2935C83.5743 65.481 83.3512 66.8124 83.3511 67.2522C83.3511 68.1957 82.7725 68.1858 82.644 67.2401C82.4929 66.1289 80.898 63.1467 79.9131 62.134C78.823 61.0135 75.8639 58.3642 75.1213 57.8441C74.7105 57.5561 74.6585 57.3015 74.7762 56.159L74.9152 54.8134L73.5227 53.3756C72.1617 51.9704 72.1396 51.9247 72.5529 51.3761C72.9987 50.7843 75.4648 49.0065 75.8398 49.0065C75.9607 49.0063 76.0969 48.902 76.1429 48.7746C76.1891 48.6469 76.7891 48.3075 77.4764 48.0205ZM33.2409 44.5025C33.3519 44.2807 35.7076 44.5462 36.0429 44.8185C36.3526 45.0703 37.8484 47.1874 37.8484 47.374C37.8485 47.4253 38.4237 48.4601 39.1261 49.6741C41.1465 53.1663 41.5953 54.2118 41.4303 55.0389C41.3052 55.6632 41.4354 55.917 42.3015 56.7409C42.861 57.2735 43.719 57.8417 44.2088 58.0033C45.1535 58.3151 45.3224 58.6068 44.7471 58.9335C44.1132 59.2935 39.3506 63.8287 39.3484 64.0744C39.3484 64.2052 39.0109 64.7384 38.5984 65.2592C38.1862 65.7796 37.849 66.2843 37.8484 66.381C37.8484 66.477 37.6358 66.8269 37.3756 67.1577C36.9489 67.7004 36.8843 67.7165 36.7201 67.3226C36.4394 66.6485 35.599 62.5874 35.3365 60.634C35.207 59.6713 34.9906 58.3208 34.8556 57.6332C34.1514 54.0431 33.0304 44.9253 33.2409 44.5025ZM59.6 53.4265C60.5388 52.9977 61.1979 52.8898 61.0192 53.1946C60.6364 53.8464 59.8797 55.76 59.7342 56.4427C59.6395 56.8877 59.4579 57.3157 59.3309 57.3947C59.2039 57.473 59.0989 57.7279 59.0981 57.9605C59.0971 58.193 58.9461 58.6718 58.7619 59.0249C58.5779 59.3777 58.3464 59.9881 58.2479 60.3802C58.1493 60.7725 57.9189 61.3085 57.7347 61.5715C57.4292 62.0075 57.2834 61.8115 56.0771 59.3409C55.3496 57.8516 54.4883 56.2038 54.1633 55.6789C53.634 54.8246 53.6066 54.6473 53.8974 53.9906C54.2464 53.2023 54.5728 53.0803 55.0515 53.5591C55.491 53.9974 58.5446 53.9083 59.6 53.4265ZM91.9026 42.5854C92.0675 42.1288 92.2759 41.7557 92.3657 41.7554C92.4554 41.7554 92.8411 42.0444 93.2224 42.3979C95.0486 44.0907 95.7655 44.3723 98.2081 44.3578L100.489 44.3441L100.492 45.2379C100.496 46.3554 101.334 48.1823 101.915 48.3406C102.356 48.4607 102.538 49.0065 102.138 49.0065C102.018 49.0072 100.81 50.0846 99.4503 51.4012C98.0902 52.7182 96.2139 54.4222 95.2808 55.1876C93.6566 56.52 93.5678 56.5585 93.207 56.1057C92.3905 55.0804 89.9348 51.3274 89.4619 50.3821C89.1868 49.832 88.7527 49.0688 88.4977 48.6865C88.257 48.3257 88.1172 48.1416 88.154 48.0049C88.1985 47.8394 88.5021 47.7436 89.1992 47.4879C89.7342 47.2916 90.2648 46.962 90.3783 46.7557C90.8219 45.949 91.6019 44.0167 91.6019 43.7242C91.6021 43.5541 91.7374 43.042 91.9026 42.5854ZM52.9268 39.0237C53.8683 38.4206 55.5418 38.344 56.2395 38.8718C56.5452 39.103 57.316 39.2418 58.3206 39.2468C60.3678 39.2571 61.694 39.9781 62.9225 41.7498C63.2775 42.2616 63.3262 42.719 63.2029 44.3756C63.0496 46.4378 62.1618 50.0071 61.8023 50.0071C61.6911 50.0071 61.6003 50.1672 61.6003 50.3635C61.6003 50.5598 61.1866 51.0614 60.6814 51.478C59.8619 52.1535 58.9281 52.5032 56.8255 52.923C56.1477 53.0583 53.9937 52.4383 53.3842 51.9322C52.6824 51.3498 51.8494 49.749 51.8494 48.9839C51.8493 48.5528 51.5666 47.0287 51.2215 45.596C50.845 44.0334 50.6589 42.7176 50.7568 42.3099C51.0328 41.1594 52.0885 39.5609 52.9268 39.0237ZM39.8131 49.0065C39.3718 48.2501 38.5642 46.9668 38.0189 46.1544L37.0272 44.6779L38.2225 44.8419C38.8801 44.9322 40.2466 45.006 41.2589 45.006C42.9982 45.006 43.0992 45.0366 43.1064 45.5685C43.1108 45.8781 43.3913 46.6937 43.7296 47.3813C44.1233 48.1819 44.3455 49.0658 44.347 49.839C44.349 50.9089 44.237 51.1606 43.3643 52.051C42.4277 53.0066 41.8489 53.1339 41.8489 52.3848C41.8487 52.1964 41.708 51.8892 41.5361 51.7018C41.1796 51.313 40.936 50.9311 39.8131 49.0065ZM58.8306 49.7371C59.8475 48.7202 59.8531 47.3766 58.8379 48.0189C58.6384 48.1452 57.6593 48.2502 56.6622 48.2525C54.5626 48.2567 54.4103 48.4823 55.6746 49.708C56.7725 50.7721 57.7867 50.7812 58.8306 49.7371ZM56.1886 49.3815C55.8556 49.0484 55.9451 49.0065 56.9879 49.0065C58.0024 49.0065 58.1184 49.0573 57.8495 49.3815C57.6782 49.5877 57.3189 49.7565 57.051 49.7565C56.783 49.7564 56.3948 49.5877 56.1886 49.3815ZM28.5186 43.8252C29.2268 42.6166 29.3485 42.5659 29.9483 43.2288C30.3553 43.6783 30.3386 43.7629 29.6121 44.9437C29.1918 45.6269 28.8483 46.2763 28.8483 46.3864C28.848 46.6938 27.3636 47.9499 26.1829 48.642C24.4071 49.6827 20.766 49.5145 19.4919 48.3333C18.8164 47.7067 18.815 47.6979 19.2923 47.1663C19.5567 46.8717 19.8453 46.4259 19.934 46.1754C20.077 45.7719 20.2604 45.7434 21.5342 45.9257C25.1716 46.4455 27.371 45.7838 28.5186 43.8252ZM48.5157 43.6725C49.1119 43.0759 49.7947 43.944 49.9817 45.5378C50.0685 46.2767 50.2334 47.1812 50.3486 47.5477C50.4637 47.9136 50.5002 48.2709 50.4295 48.343C50.1724 48.5998 49.1729 47.9485 48.7654 47.2584C48.3528 46.5593 48.1756 44.0141 48.5157 43.6725ZM64.4176 43.0615C64.8329 42.5399 65.5998 43.4263 65.6 44.4273C65.6 45.3575 64.6377 47.4575 63.9529 48.0221C63.5551 48.35 63.5306 48.3268 63.6676 47.7563C63.7504 47.4124 63.8957 46.2871 63.9909 45.2557C64.0862 44.2244 64.2781 43.237 64.4176 43.0615ZM56.3495 46.3807C56.3493 46.1746 56.1806 46.0057 55.9745 46.0057C55.7684 46.0059 55.5997 46.1666 55.5995 46.3629C55.5995 47.4423 57.8293 47.9779 58.3416 47.0216C58.6419 46.4603 58.3663 46.1848 57.8381 46.5189C57.2599 46.8847 56.3495 46.8 56.3495 46.3807ZM54.8495 45.006C54.8495 44.7282 54.6827 44.5057 54.4745 44.5057C54.2663 44.5058 54.0995 44.7283 54.0995 45.006C54.0995 45.2836 54.2663 45.5061 54.4745 45.5062C54.6827 45.5062 54.8494 45.2837 54.8495 45.006ZM21.7225 32.003C23.504 30.7031 25.4897 31.1943 26.8327 33.267C27.5722 34.4087 27.6404 34.4505 28.5711 34.3257C30.009 34.1327 30.5981 34.8159 30.5981 36.676C30.598 37.7911 30.4814 38.2222 30.055 38.6762C29.756 38.9942 29.362 39.2548 29.1797 39.2549C28.9974 39.2549 28.8483 39.4346 28.8483 39.6541C28.8482 40.0468 28.6959 40.3974 27.6692 42.3802C26.9339 43.7999 25.7143 44.6995 24.1107 45.0036C22.0591 45.3926 20.1416 44.8941 18.9722 43.6676C18.2312 42.8905 16.9118 39.9893 16.4337 38.0862L16.0143 36.4165L16.6818 35.1477C17.4101 33.7624 18.801 32.761 20.0221 32.7433C20.4074 32.7377 21.1725 32.4043 21.7225 32.003ZM90.0898 33.2767C90.4715 32.5629 90.9582 32.6202 91.4872 33.4408C91.7309 33.8191 92.0818 34.2189 92.2663 34.329C92.4509 34.4391 92.6016 34.9207 92.6017 35.3998C92.6017 37.557 94.8955 38.8916 96.8584 37.8761C97.2607 37.6683 97.7407 37.2098 97.9252 36.8578C98.2067 36.3204 98.3084 36.2745 98.5564 36.5733C98.7189 36.7694 98.9237 37.4527 99.0114 38.0919C99.1569 39.1546 99.1253 39.2549 98.6486 39.2549C98.3617 39.2547 98.0247 39.0714 97.8994 38.8476C97.7739 38.6236 97.5167 38.4916 97.328 38.5542C96.7215 38.7565 98.3235 40.0039 99.2014 40.013C99.9379 40.0205 99.9528 40.0394 99.4923 40.388C98.581 41.0771 97.3677 40.7906 96.0672 39.579C95.1271 38.7031 94.9467 39.2929 95.8765 40.2021C97.0963 41.3946 99.4071 41.5183 100.303 40.4389C100.547 40.1453 100.532 40.0081 100.23 39.7576C100.022 39.5851 99.8529 39.1851 99.8528 38.8694C99.8528 38.3314 99.9087 38.3104 100.747 38.5421C101.357 38.7103 101.889 38.7038 102.414 38.5211C102.836 38.3736 103.224 38.2949 103.277 38.3457C103.476 38.5447 101.549 42.0348 100.916 42.6226C99.5415 43.8968 96.3046 43.9674 94.6092 42.76C93.5316 41.9927 92.3998 40.3865 92.2048 39.3478C92.0116 38.3179 91.7759 38.1439 91.0798 38.5162C90.7105 38.7141 90.4685 38.7211 90.287 38.5396C89.9078 38.1595 89.7486 33.9144 90.0898 33.2767ZM15.097 40.4615C15.097 39.7781 15.2041 39.5048 15.472 39.5046C15.6782 39.5046 15.847 39.6783 15.847 39.8901C15.8472 40.1022 16.0724 40.7163 16.3472 41.2552C16.9299 42.3977 16.9475 42.5054 16.5509 42.5054C15.8689 42.5054 15.097 41.4204 15.097 40.4615ZM55.5995 40.5278C55.5995 40.0845 54.4613 40.2165 54.013 40.7121C53.4755 41.3061 53.4862 41.757 54.0372 41.7465C54.5521 41.7367 55.5988 40.92 55.5995 40.5278ZM25.5978 39.992C25.5977 39.6073 25.2709 39.7176 24.4728 40.3718C23.696 41.0087 22.0233 41.2417 21.7225 40.7549C21.5359 40.4534 20.8472 40.4203 20.8472 40.7129C20.8476 41.0934 22.1118 41.6041 22.9922 41.5792C23.847 41.555 25.5978 40.4883 25.5978 39.992ZM59.2484 40.7905C58.739 40.2177 57.9844 40.085 57.7145 40.5213C57.491 40.8826 57.5714 40.9321 58.7247 41.1428L59.7253 41.3255L59.2484 40.7905ZM21.8219 38.0176C21.5152 36.9938 21.2658 36.7799 20.9588 37.2764C20.6886 37.7156 21.594 39.4227 22.2575 39.7253C22.7388 39.9445 22.9932 39.9208 23.4617 39.6137C23.7885 39.3997 24.1165 39.0661 24.1907 38.8726C24.4207 38.2733 23.9039 38.2154 23.3769 38.7813C22.7058 39.5014 22.1904 39.2483 21.8219 38.0176ZM19.8475 38.1291C19.8473 37.923 19.6786 37.7541 19.4725 37.7541C19.2664 37.7541 19.0977 37.923 19.0975 38.1291C19.0975 38.3354 19.2662 38.5049 19.4725 38.5049C19.6787 38.5049 19.8475 38.3353 19.8475 38.1291ZM34.4111 37.1083C34.0058 36.9911 33.8486 37.0508 33.8486 37.3209C33.8494 37.8303 35.6698 38.2643 38.5361 38.4378C40.5734 38.5613 40.8491 38.529 40.8492 38.1663C40.8492 37.8279 40.5697 37.7545 39.2861 37.7533C37.8063 37.752 35.6492 37.4661 34.4111 37.1083ZM83.5039 31.5472C83.1696 31.0065 82.7371 31.2781 81.1011 33.0561C80.2073 34.0275 78.7586 35.5462 77.8813 36.4311C76.7527 37.569 76.3644 38.1178 76.5526 38.3061C76.9178 38.6695 78.552 37.3484 80.1466 35.4006C80.8322 34.5635 81.9094 33.4206 82.5397 32.8605C83.2352 32.2424 83.6141 31.7257 83.5039 31.5472ZM100.465 35.6657C101.121 34.9586 102.235 34.7891 103.119 35.2624C104.269 35.8778 103.089 38.0043 101.598 38.0046C99.8537 38.0046 99.3198 36.9024 100.465 35.6657ZM94.3522 34.4389C95.7605 33.8914 97.3521 34.6323 97.3522 35.8354C97.3522 36.6433 96.2743 37.5876 95.352 37.5876C94.4562 37.5874 93.3483 36.6475 93.3598 35.8977C93.3692 35.2984 93.8108 34.6494 94.3522 34.4389ZM101.584 36.3567C101.263 35.9698 101.024 35.9153 100.769 36.1708C100.495 36.4449 100.579 36.6912 101 36.8529C101.582 37.0761 101.933 36.7772 101.584 36.3567ZM25.5978 36.3793C25.5978 36.1731 25.4291 36.0043 25.2228 36.0043C25.0165 36.0044 24.8478 36.1731 24.8478 36.3793C24.8479 36.5855 25.0166 36.7543 25.2228 36.7543C25.429 36.7543 25.5977 36.5855 25.5978 36.3793ZM95.727 35.5041C95.496 35.1304 94.8529 35.2024 94.8525 35.6019C94.8525 36.0259 95.5285 36.3258 95.7342 35.993C95.8154 35.8615 95.8119 35.6416 95.727 35.5041ZM96.936 31.1819C97.9043 30.5239 98.8334 30.0381 99.0009 30.1021C99.8767 30.4382 104.353 34.1044 104.353 34.4858C104.353 35.1725 104.059 35.2915 103.534 34.8171C103.19 34.5058 102.647 34.3828 101.661 34.3928C100.415 34.4053 100.207 34.4877 99.6079 35.205C99.2411 35.6444 98.8195 36.0043 98.6712 36.0043C98.5228 36.004 98.1734 35.617 97.8945 35.1444C97.1845 33.9408 96.0758 33.4184 94.6319 33.6081L93.4769 33.76L94.3264 33.069C94.7933 32.6888 95.9676 31.8396 96.936 31.1819ZM19.8475 34.7767C19.8475 34.3401 18.9623 34.4619 18.5108 34.961C18.0209 35.5025 17.9716 36.0069 18.4097 35.9955C18.8269 35.9842 19.8468 35.1198 19.8475 34.7767ZM25.1856 33.4246C24.9594 33.1986 24.3534 33.2327 23.6606 33.5111C23.041 33.7601 22.8969 34.2538 23.444 34.2538C24.0142 34.2538 25.3679 33.609 25.1856 33.4246ZM77.6008 22.2942C77.6006 21.4988 76.433 21.2043 76.1914 21.9386C75.9793 22.5829 75.4143 23.863 74.2881 26.2519C73.737 27.4209 73.1769 28.6592 73.0426 29.003C72.5744 30.2022 72.1716 31.1361 71.6421 32.2535C71.1448 33.3026 71.1374 33.4 71.5321 33.6945C71.7649 33.8683 72.0705 33.9724 72.211 33.9257C72.5649 33.8072 73.4253 32.0496 74.9888 28.253C75.3568 27.3591 75.8505 26.346 76.0855 26.0022C76.6828 25.1277 77.6008 22.8808 77.6008 22.2942ZM102.292 33.4408C102.171 33.0736 100.603 32.8602 100.603 33.2112C100.603 33.4992 101.209 33.7535 101.894 33.7535C102.183 33.7534 102.351 33.6207 102.292 33.4408ZM32.3473 27.3177C32.3022 27.3701 32.3615 27.5122 32.3955 27.6889C32.4442 27.9386 33.2278 28.4997 34.2268 29.0006C35.1876 29.4824 36.0299 29.9337 36.0986 30.0027C36.1691 30.0726 37.1245 30.5975 38.2234 31.1697C39.3234 31.7426 40.7753 32.5019 41.4488 32.8573C42.6751 33.5042 43.35 33.6675 43.3473 33.3163C43.3455 33.11 42.3922 32.5075 40.4742 31.5019C39.7867 31.1414 38.2114 30.3019 36.9739 29.6358C33.2696 27.6426 32.4632 27.1831 32.3473 27.3177ZM96.5206 32.9575C97.3816 32.8557 97.6117 32.2535 96.7897 32.2535C96.4575 32.2535 96.1102 32.3283 96.0187 32.42C95.6546 32.784 95.8868 33.0327 96.5206 32.9575ZM46.6786 18.1255C45.9187 16.3704 45.5831 15.8575 45.1536 15.7955C44.6206 15.7183 44.6321 15.7811 45.5019 17.7958C45.9959 18.9397 46.5473 20.2828 46.7271 20.7805C46.9069 21.278 47.1599 21.8972 47.2896 22.156C47.6142 22.8031 48.2166 24.1379 48.8559 25.6272C49.8884 28.0322 50.396 29.003 50.6218 29.003C50.9151 29.0025 50.9201 27.5768 50.6275 27.3947C50.5052 27.3192 50.3279 26.9507 50.2339 26.576C50.1399 26.2014 49.8378 25.3844 49.5631 24.7608C49.2881 24.1372 48.8943 23.233 48.6878 22.7516C48.4813 22.2703 48.1643 21.539 47.9831 21.1264C47.8021 20.7138 47.2149 19.3633 46.6786 18.1255ZM60.8608 23.2519C60.3587 17.8861 59.8066 14.5 59.4343 14.5C59.2504 14.5001 59.0997 14.7086 59.0997 14.9631C59.0998 15.2177 59.2069 15.7517 59.3373 16.1503C59.4681 16.5489 59.6937 18.5068 59.8392 20.5008C60.2675 26.3714 60.6443 29.003 61.0556 29.003C61.3354 29.0028 61.3841 28.7201 61.2827 27.6897C61.2114 26.9673 61.0215 24.9707 60.8608 23.2519Z" fill="#111F78"/>
<path d="M59.2711 44.5057C59.2711 44.2279 59.1043 44.0054 58.8961 44.0054C58.6879 44.0056 58.5211 44.228 58.5211 44.5057C58.5212 44.7833 58.6879 45.0058 58.8961 45.006C59.1043 45.006 59.271 44.7834 59.2711 44.5057Z" fill="#111F78"/>
</svg>
