<svg width="101" height="42" viewBox="0 0 101 42" fill="none" xmlns="http://www.w3.org/2000/svg">
<path d="M99.8856 30.0117C100.106 30.0117 100.291 30.0445 100.438 30.1095C100.586 30.1746 100.697 30.265 100.771 30.3806C100.845 30.4951 100.882 30.627 100.882 30.7765C100.882 30.893 100.859 30.9955 100.812 31.0838C100.765 31.1712 100.701 31.2433 100.618 31.2996C100.537 31.3549 100.444 31.3942 100.34 31.4175V31.4464C100.454 31.4513 100.561 31.4836 100.661 31.5428C100.762 31.602 100.843 31.6851 100.906 31.7919C100.968 31.8977 101 32.024 101 32.1706C101 32.3288 100.96 32.4701 100.881 32.5944C100.803 32.7177 100.687 32.8152 100.533 32.887C100.38 32.9589 100.191 32.9947 99.9662 32.9947H98.6836V30.0117H99.8856ZM99.3181 32.4794H99.8356C100.012 32.4794 100.141 32.4456 100.222 32.3786C100.303 32.3107 100.344 32.2205 100.344 32.108C100.344 32.0254 100.324 31.9524 100.284 31.8893C100.244 31.8262 100.187 31.7769 100.113 31.7409C100.039 31.705 99.9519 31.6867 99.8503 31.6867H99.3181V32.4794ZM99.3181 31.26H99.7885C99.8754 31.26 99.9529 31.2451 100.02 31.215C100.089 31.1839 100.142 31.1401 100.182 31.0838C100.222 31.0275 100.242 30.9599 100.242 30.8813C100.242 30.7736 100.203 30.6868 100.126 30.6208C100.049 30.5548 99.941 30.5216 99.8003 30.5216H99.3181V31.26Z" fill="#111F78"/>
<path d="M97.5267 30.012H98.1614V31.9491C98.1614 32.1666 98.1091 32.3569 98.0045 32.5201C97.9009 32.6832 97.7558 32.8104 97.5692 32.9017C97.3825 32.992 97.1651 33.0371 96.9169 33.0371C96.6677 33.0371 96.4497 32.992 96.2631 32.9017C96.0764 32.8104 95.9313 32.6832 95.8277 32.5201C95.7242 32.3569 95.6724 32.1666 95.6724 31.9491V30.012H96.3071V31.8952C96.3071 32.0088 96.332 32.1098 96.3818 32.1982C96.4326 32.2865 96.504 32.356 96.5958 32.4065C96.6877 32.457 96.7947 32.4822 96.9169 32.4822C97.04 32.4822 97.147 32.457 97.2379 32.4065C97.3297 32.356 97.4006 32.2865 97.4504 32.1982C97.5012 32.1098 97.5267 32.0088 97.5267 31.8952V30.012Z" fill="#111F78"/>
<path d="M92.5923 32.9949V30.012H93.227V31.2427H94.5155V30.012H95.1487V32.9949H94.5155V31.7627H93.227V32.9949H92.5923Z" fill="#111F78"/>
<path d="M91.1125 30.012V32.9949H90.5643L89.2583 31.1175H89.2363V32.9949H88.6016V30.012H89.1586L90.4544 31.8879H90.4808V30.012H91.1125Z" fill="#111F78"/>
<path d="M86.7254 29.9711C86.9902 29.9711 87.2288 30.0313 87.4409 30.1516C87.6539 30.2711 87.822 30.445 87.9451 30.6732C88.0692 30.9014 88.1313 31.178 88.1313 31.5032C88.1313 31.8285 88.0692 32.1054 87.9451 32.3336C87.822 32.5617 87.6539 32.7359 87.4409 32.8563C87.2288 32.9757 86.9902 33.0358 86.7254 33.0358C86.4587 33.0357 86.2193 32.9755 86.0073 32.8552C85.7953 32.7348 85.6277 32.5603 85.5046 32.3321C85.3815 32.1039 85.3198 31.8275 85.3198 31.5032C85.3198 31.178 85.3815 30.9014 85.5046 30.6732C85.6277 30.445 85.7953 30.2711 86.0073 30.1516C86.2193 30.0313 86.4587 29.9711 86.7254 29.9711ZM86.7254 30.5289C86.572 30.5289 86.4382 30.5663 86.3239 30.641C86.2095 30.7158 86.1205 30.8256 86.057 30.9703C85.9945 31.1149 85.9632 31.2926 85.9632 31.5032C85.9632 31.7139 85.9945 31.8919 86.057 32.0365C86.1205 32.1812 86.2096 32.2907 86.3239 32.3655C86.4382 32.4402 86.572 32.4779 86.7254 32.4779C86.8788 32.4779 87.0126 32.4402 87.1269 32.3655C87.2413 32.2907 87.3298 32.1812 87.3923 32.0365C87.4558 31.8919 87.4876 31.7139 87.4876 31.5032C87.4876 31.2926 87.4558 31.1149 87.3923 30.9703C87.3298 30.8256 87.2413 30.7158 87.1269 30.641C87.0126 30.5663 86.8788 30.5289 86.7254 30.5289Z" fill="#111F78"/>
<path d="M84.8505 30.012V32.9949H84.2158V30.012H84.8505Z" fill="#111F78"/>
<path d="M81.3442 30.5319V30.012H83.8098V30.5319H82.8907V32.9949H82.2633V30.5319H81.3442Z" fill="#111F78"/>
<path d="M81.4639 32.9945H80.7842L80.5625 32.3148H79.4775L79.2549 32.9945H78.5752L79.6113 30.0121H80.4297L81.4639 32.9945ZM79.6387 31.8226H80.4014L80.0322 30.6937H80.0088L79.6387 31.8226Z" fill="#111F78"/>
<path d="M76.2329 30.5319V30.012H78.6985V30.5319H77.7794V32.9949H77.152V30.5319H76.2329Z" fill="#111F78"/>
<path d="M74.6087 29.9711C74.8735 29.9711 75.1121 30.0313 75.3242 30.1516C75.5372 30.2711 75.7053 30.445 75.8284 30.6732C75.9525 30.9014 76.0146 31.178 76.0146 31.5032C76.0146 31.8285 75.9525 32.1054 75.8284 32.3336C75.7053 32.5617 75.5372 32.7359 75.3242 32.8563C75.1121 32.9757 74.8735 33.0358 74.6087 33.0358C74.342 33.0357 74.1026 32.9755 73.8906 32.8552C73.6786 32.7348 73.511 32.5603 73.3879 32.3321C73.2648 32.1039 73.2031 31.8275 73.2031 31.5032C73.2031 31.178 73.2648 30.9014 73.3879 30.6732C73.511 30.445 73.6786 30.2711 73.8906 30.1516C74.1026 30.0313 74.342 29.9711 74.6087 29.9711ZM74.6087 30.5289C74.4553 30.5289 74.3215 30.5663 74.2072 30.641C74.0928 30.7158 74.0038 30.8256 73.9403 30.9703C73.8778 31.1149 73.8465 31.2926 73.8465 31.5032C73.8465 31.7139 73.8778 31.8919 73.9403 32.0365C74.0038 32.1812 74.0929 32.2907 74.2072 32.3655C74.3215 32.4402 74.4553 32.4779 74.6087 32.4779C74.7621 32.4779 74.8959 32.4402 75.0102 32.3655C75.1246 32.2907 75.2131 32.1812 75.2756 32.0365C75.3391 31.8919 75.3709 31.7139 75.3709 31.5032C75.3709 31.2926 75.3391 31.1149 75.2756 30.9703C75.2131 30.8256 75.1246 30.7158 75.0102 30.641C74.8959 30.5663 74.7621 30.5289 74.6087 30.5289Z" fill="#111F78"/>
<path d="M72.7312 30.012V32.9949H72.183L70.8769 31.1175H70.8549V32.9949H70.2202V30.012H70.7772L72.073 31.8879H72.0994V30.012H72.7312Z" fill="#111F78"/>
<path d="M69.6956 30.012V32.9949H69.1473L67.8413 31.1175H67.8193V32.9949H67.1846V30.012H67.7416L69.0374 31.8879H69.0638V30.012H69.6956Z" fill="#111F78"/>
<path d="M66.8233 32.9947H66.1431L65.9208 32.3145H64.8369L64.6142 32.9947H63.9341L64.9705 30.0117H65.7883L66.8233 32.9947ZM64.9981 31.8223H65.76L65.3912 30.6934H65.3676L64.9981 31.8223Z" fill="#111F78"/>
<path d="M62.7803 32.9947H62.1001L61.8778 32.3145H60.7939L60.5713 32.9947H59.8911L60.9275 30.0117H61.7453L62.7803 32.9947ZM60.9551 31.8223H61.717L61.3482 30.6934H61.3247L60.9551 31.8223Z" fill="#111F78"/>
<path d="M57.5488 30.5319V30.012H60.0144V30.5319H59.0953V32.9949H58.4679V30.5319H57.5488Z" fill="#111F78"/>
<path d="M57.669 32.9947H56.9888L56.7665 32.3145H55.6826L55.4599 32.9947H54.7798L55.8162 30.0117H56.634L57.669 32.9947ZM55.8438 31.8223H56.6057L56.2369 30.6934H56.2133L55.8438 31.8223Z" fill="#111F78"/>
<path d="M53.1816 30.0121C53.4833 30.0121 53.7431 30.0715 53.9609 30.1908C54.1789 30.3093 54.3466 30.4802 54.4639 30.7025C54.5821 30.9248 54.6416 31.1907 54.6416 31.5004C54.6416 31.811 54.582 32.0779 54.4639 32.3011C54.3466 32.5245 54.1779 32.6964 53.958 32.8158C53.7392 32.9351 53.4775 32.9945 53.1729 32.9945H52.1084V30.0121H53.1816ZM52.7432 32.4545H53.1465C53.3337 32.4544 53.4913 32.4216 53.6191 32.3558C53.7481 32.2888 53.8457 32.1851 53.9102 32.0453C53.9756 31.9045 54.0078 31.7227 54.0078 31.5004C54.0078 31.2802 53.9755 31.1001 53.9102 30.9603C53.8457 30.8206 53.749 30.7178 53.6211 30.6517C53.4931 30.5857 53.3351 30.5521 53.1475 30.5521H52.7432V32.4545Z" fill="#111F78"/>
<path d="M49.5806 32.9949V30.012H51.6034V30.5319H50.2153V31.2427H51.4994V31.7627H50.2153V32.4749H51.6093V32.9949H49.5806Z" fill="#111F78"/>
<path d="M48.4316 30.9761C48.411 30.9052 48.3822 30.8425 48.3451 30.7882C48.3079 30.7328 48.2625 30.6862 48.2088 30.6483C48.156 30.6095 48.0954 30.5799 48.027 30.5595C47.9596 30.5391 47.8848 30.5289 47.8027 30.5289C47.6493 30.5289 47.5144 30.5668 47.3981 30.6425C47.2828 30.7183 47.1929 30.8285 47.1284 30.9731C47.0639 31.1169 47.0317 31.2926 47.0317 31.5004C47.0317 31.7082 47.0634 31.8849 47.127 32.0306C47.1905 32.1762 47.2804 32.2874 47.3967 32.3641C47.513 32.4399 47.6503 32.4777 47.8086 32.4777C47.9522 32.4777 48.0749 32.4525 48.1765 32.402C48.2791 32.3505 48.3573 32.2782 48.411 32.185C48.4658 32.0917 48.4931 31.9815 48.4931 31.8543L48.6221 31.8733H47.8482V31.3984H49.1044V31.7742C49.1044 32.0364 49.0487 32.2617 48.9373 32.45C48.8259 32.6375 48.6725 32.7821 48.477 32.8841C48.2816 32.9851 48.0578 33.0356 47.8057 33.0356C47.5242 33.0356 47.277 32.9739 47.0639 32.8506C46.8509 32.7263 46.6848 32.5501 46.5655 32.3219C46.4473 32.0927 46.3882 31.8208 46.3882 31.5062C46.3882 31.2644 46.4234 31.0489 46.4937 30.8595C46.5651 30.6692 46.6647 30.508 46.7928 30.376C46.9208 30.2439 47.0698 30.1434 47.2398 30.0745C47.4099 30.0055 47.5941 29.9711 47.7925 29.9711C47.9625 29.9711 48.1208 29.9958 48.2674 30.0454C48.414 30.0939 48.5439 30.1628 48.6573 30.2522C48.7716 30.3415 48.865 30.4478 48.9373 30.5711C49.0096 30.6935 49.056 30.8285 49.0765 30.9761H48.4316Z" fill="#111F78"/>
<path d="M45.9167 30.012V32.9949H45.3685L44.0625 31.1175H44.0405V32.9949H43.4058V30.012H43.9628L45.2586 31.8879H45.285V30.012H45.9167Z" fill="#111F78"/>
<path d="M42.8832 30.012V32.9949H42.2485V30.012H42.8832Z" fill="#111F78"/>
<path d="M85.2632 26.9229V9.00671H89.6003V16.1977H96.6712V9.00671H101V26.9229H96.6712V19.7232H89.6003V26.9229H85.2632Z" fill="#111F78"/>
<path d="M83.331 26.923H78.6696L77.4868 23.161H71.2898L70.1091 26.923H65.4478L71.5021 9.00671H77.2763L83.331 26.923ZM72.3216 19.8721H76.4524L74.4552 13.5207H74.3148L72.3216 19.8721Z" fill="#111F78"/>
<path d="M55.8888 9.00671C57.7171 9.00673 59.2913 9.36554 60.6114 10.0829C61.9373 10.7944 62.9597 11.8208 63.6782 13.1621C64.3966 14.4976 64.7558 16.0956 64.7558 17.9559C64.7558 19.8221 64.3967 21.4262 63.6782 22.7676C62.9656 24.109 61.9462 25.1383 60.6202 25.8556C59.2943 26.5671 57.72 26.923 55.8976 26.923H49.2646V9.00671H55.8888ZM53.6015 23.2311H55.7308C56.7354 23.2311 57.5854 23.0619 58.2805 22.7236C58.9814 22.3795 59.5101 21.8225 59.8664 21.0527C60.2285 20.2771 60.4098 19.2447 60.4098 17.9559C60.4097 16.6671 60.2285 15.6406 59.8664 14.8766C59.5042 14.1068 58.9697 13.5528 58.2629 13.2145C57.562 12.8705 56.6975 12.6983 55.6695 12.6983H53.6015V23.2311Z" fill="#111F78"/>
<path d="M46.5422 9.00671V26.9229H42.2051V9.00671H46.5422Z" fill="#111F78"/>
<path d="M8.9458 5.98145H16.4686V13.4907H8.9458V5.98145Z" fill="#2291EA"/>
<path d="M4.26953 13.4907H8.94585V21H4.26953V13.4907Z" fill="#2291EA"/>
<path d="M0 9.22876H4.26968V13.4908H0V9.22876Z" fill="#2291EA"/>
<path fill-rule="evenodd" clip-rule="evenodd" d="M16.4686 13.4907L23.9913 5.98145C29.2689 5.98145 33.5473 10.2521 33.5473 15.5203V25.8709C33.5473 31.4753 28.9959 36.0185 23.3814 36.0185H8.9458V21L16.4686 13.4907ZM16.469 13.4907H23.9918V28.5093H16.469V13.4907Z" fill="#2291EA"/>
</svg>
