<svg width="20" height="20" viewBox="0 0 20 20" fill="none" xmlns="http://www.w3.org/2000/svg">
<path d="M19.7323 16.0022L11.7386 2.01311C11.5643 1.70555 11.3116 1.44974 11.0061 1.27175C10.7007 1.09377 10.3535 1 10 1C9.64652 1 9.29934 1.09377 8.9939 1.27175C8.68847 1.44974 8.43571 1.70555 8.26141 2.01311L0.267782 16.0022C0.0916052 16.3074 -0.000775311 16.6536 4.90135e-06 17.006C0.000785114 17.3583 0.0946983 17.7042 0.272225 18.0085C0.449752 18.3129 0.704582 18.5648 1.01089 18.739C1.31719 18.9131 1.66408 19.0031 2.01639 18.9999H18.0036C18.3543 18.9996 18.6986 18.907 19.0021 18.7314C19.3056 18.5559 19.5576 18.3036 19.7328 17.9998C19.9079 17.6961 20.0001 17.3516 20 17.001C19.9999 16.6503 19.9076 16.3059 19.7323 16.0022Z" fill="#EAB308"/>
<path d="M10 6.66699V11.1114M10 15.5559H10.01" stroke="white" stroke-width="2" stroke-linecap="round" stroke-linejoin="round"/>
</svg>
